<?xml version="1.0" encoding="UTF-8" standalone="no"?>
<svg width="4167px" height="768px" viewBox="0 0 4167 768" version="1.1" xmlns="http://www.w3.org/2000/svg" xmlns:xlink="http://www.w3.org/1999/xlink">
    <!-- Generator: Sketch 3.8.3 (29802) - http://www.bohemiancoding.com/sketch -->
    <title>cloud_3</title>
    <desc>Created with Sketch.</desc>
    <defs></defs>
    <g id="Page-1" stroke="none" stroke-width="1" fill="none" fill-rule="evenodd">
        <g id="Artboard-7" transform="translate(-344.000000, -2844.000000)" fill="#CAC9C4">
            <path d="M3065.3868,3045 C3076.1935,3041.09298 3087.76398,3038.94264 3099.81945,3038.94264 C3101.25111,3038.94264 3102.63609,3039.10745 3104.04441,3039.16514 C3117.48181,2970.87423 3174.60829,2919.55923 3243.07914,2919.55923 C3298.76617,2919.55923 3346.82804,2953.57695 3370.11591,3002.99659 C3375.02558,3001.42261 3380.11421,3000.30187 3385.28843,2999.46131 C3386.191,2976.40376 3403.99342,2957.96101 3425.98968,2957.96101 C3435.38886,2957.96101 3443.93993,2961.45508 3450.84148,2967.09998 C3473.22678,2936.21373 3507.43887,2915.57071 3546.3661,2912.7359 C3560.58158,2872.6118 3597.02675,2844 3639.8755,2844 C3694.9245,2844 3739.55505,2891.12872 3739.8196,2949.36593 C3764.90483,2960.45795 3786.02186,2979.47755 3800.55635,3003.43334 C3804.91359,2982.16403 3814.33611,2962.95489 3827.38448,2947.14094 C3829.10403,2915.28229 3853.97918,2889.98326 3884.49539,2889.98326 C3898.3763,2889.98326 3911.09787,2895.21612 3921.01058,2903.91833 C3934.89149,2904.35508 3948.15772,2907.28878 3960.45913,2912.32387 C3979.9422,2899.1387 4003.02777,2891.39242 4027.87179,2891.39242 C4065.18841,2891.39242 4098.60685,2908.74739 4121.58349,2936.14781 C4131.24722,2921.70181 4147.12778,2912.2497 4165.11694,2912.2497 C4165.56823,2912.2497 4166.00395,2912.30739 4166.44746,2912.31563 C4184.78675,2899.92157 4206.5029,2892.63677 4229.86858,2892.63677 C4295.10263,2892.63677 4347.98858,2948.64899 4347.98858,3017.73925 C4347.98858,3018.04415 4347.9419,3018.34082 4347.9419,3018.64573 C4363.77578,3009.1112 4382.03727,3003.59816 4401.55146,3003.59816 C4461.59573,3003.59816 4510.27228,3055.15215 4510.27228,3118.74584 C4510.27228,3181.11751 4463.44848,3231.89983 4405.00002,3233.82845 L4405,3612 L444,3612 L444,3170.21072 C388.210884,3166.67138 344,3117.62537 344,3057.64909 C344,3017.03878 364.338955,2981.55421 394.746237,2961.7023 C393.353478,2958.29064 392.559838,2954.54111 392.559838,2950.5938 C392.559838,2935.14244 404.386621,2922.61653 418.975581,2922.61653 C430.444448,2922.61653 440.115956,2930.40402 443.765141,2941.2241 C465.761402,2916.69145 496.783365,2901.31426 531.252214,2901.31426 C543.250174,2901.31426 554.820192,2903.23435 565.759966,2906.68721 C593.467318,2876.03995 632.394552,2856.87202 675.608996,2856.87202 C736.057864,2856.87202 788.119052,2894.29316 812.682969,2948.36881 C835.309473,2914.68071 872.384882,2892.63677 914.393305,2892.63677 C947.562764,2892.63677 977.627691,2906.43175 999.981868,2928.77236 C1011.17063,2918.1583 1025.89964,2911.63989 1042.09922,2911.63989 C1051.0549,2911.63989 1059.55151,2913.63414 1067.27004,2917.19414 C1068.87288,2916.05692 1070.55353,2915.03507 1072.2264,2914.00498 C1081.88234,2894.46621 1101.18645,2881.10799 1123.45504,2881.10799 C1149.47396,2881.10799 1171.46244,2899.31176 1178.72969,2924.34709 C1192.35383,2936.69994 1202.51553,2953.14843 1207.56526,2971.91256 C1226.47255,2955.71953 1250.52293,2945.979 1276.73638,2945.979 C1304.008,2945.979 1328.92206,2956.54361 1348.15614,2973.93978 C1359.29822,2963.98498 1373.66931,2957.96101 1389.38649,2957.96101 C1398.76232,2957.96101 1407.64019,2960.14481 1415.66217,2963.97674 C1434.08706,2951.19538 1456.07554,2943.70455 1479.74467,2943.70455 C1514.39247,2943.70455 1545.43,2959.72453 1566.88938,2985.04004 C1592.45702,2920.09487 1652.96814,2874.42476 1723.56314,2874.42476 C1789.61417,2874.42476 1846.80289,2914.41701 1874.84481,2972.76136 C1880.50144,2973.7008 1886.05692,2974.92867 1891.42565,2976.64274 C1913.52306,2940.21873 1952.03792,2916.02395 1995.96041,2916.02395 C1999.46954,2916.02395 2002.92421,2916.27942 2006.36331,2916.57608 C2027.88494,2906.31638 2051.73303,2900.55611 2076.86494,2900.55611 C2140.42612,2900.55611 2195.87973,2937.10373 2225.64121,2991.41012 C2248.73456,2969.78646 2279.00179,2956.55185 2312.24905,2956.55185 C2339.69964,2956.55185 2365.15057,2965.526 2386.19757,2980.82079 C2390.59371,2980.30162 2395.03654,2979.98848 2399.56495,2979.98848 C2401.80581,2979.98848 2403.99221,2980.21098 2406.20195,2980.34283 C2413.11128,2952.52213 2436.95159,2931.96976 2465.38255,2931.96976 C2496.30337,2931.96976 2521.80098,2956.26342 2525.97926,2987.79244 C2533.88453,2989.85263 2541.57194,2992.48142 2548.90921,2995.85187 C2567.13179,2981.85912 2589.46263,2973.5195 2613.68419,2973.5195 C2625.03635,2973.5195 2635.9839,2975.34071 2646.29343,2978.71116 C2653.21833,2975.40663 2660.88239,2973.5195 2668.9744,2973.5195 C2686.69902,2973.5195 2702.43175,2982.38653 2712.54676,2996.12382 C2724.88708,2991.37716 2738.13774,2988.64948 2752.02643,2988.64948 C2788.16815,2988.64948 2820.42725,3006.21047 2841.661,3033.70153 C2863.50164,2997.53298 2901.66636,2973.48654 2945.21538,2973.48654 C2993.14927,2973.48654 3034.56059,3002.60664 3054.83013,3045 L3065.3868,3045 Z" id="cloud_3"></path>
        </g>
    </g>
</svg>