<?xml version="1.0" encoding="UTF-8" standalone="no"?>
<svg width="4135px" height="1280px" viewBox="0 0 4135 1280" version="1.1" xmlns="http://www.w3.org/2000/svg" xmlns:xlink="http://www.w3.org/1999/xlink">
    <!-- Generator: Sketch 3.8.3 (29802) - http://www.bohemiancoding.com/sketch -->
    <title>cloud_5</title>
    <desc>Created with Sketch.</desc>
    <defs></defs>
    <g id="Page-1" stroke="none" stroke-width="1" fill="none" fill-rule="evenodd">
        <g id="Artboard-7" transform="translate(-270.000000, -2404.000000)" fill="#F5F2EF">
            <path d="M3983.67996,2796.4811 C3983.77333,2796.60471 3983.88226,2796.71184 3983.98341,2796.83545 C3983.87448,2796.87666 3983.76554,2796.90962 3983.65661,2796.95906 C3983.66439,2796.80249 3983.67218,2796.63767 3983.67996,2796.4811 M344,3007.45826 C301.944208,2999.59029 270,2960.69479 270,2913.89498 C270,2862.43988 308.647126,2820.64291 356.86461,2819.03597 C358.397424,2734.73333 423.281335,2666.86271 503.244395,2666.86271 C513.374968,2666.86271 523.272119,2667.95872 532.819134,2670.02715 C535.954787,2656.70189 547.244697,2646.78006 560.798813,2646.78006 C563.26532,2646.78006 565.615115,2647.20857 567.894883,2647.81839 C575.037638,2615.19335 602.589374,2590.85848 635.564313,2590.85848 C649.242921,2590.85848 661.956713,2595.09422 672.701968,2602.32133 C695.235103,2584.10933 723.284809,2573.16564 753.808803,2573.16564 C823.314496,2573.16564 880.433191,2629.24379 887.085756,2701.01228 C888.688597,2700.70737 890.330341,2700.50135 892.01877,2700.48487 C899.61281,2682.54481 916.582687,2670.03539 936.345865,2670.03539 C938.633414,2670.03539 940.866497,2670.25789 943.068457,2670.57927 C942.469337,2666.52484 942.072518,2662.39623 942.072518,2658.15226 C942.072518,2613.9902 975.872219,2578.18424 1017.57719,2578.18424 C1026.02712,2578.18424 1034.11913,2579.72526 1041.70539,2582.43646 C1070.1986,2537.83765 1118.40052,2508.51714 1173.06827,2508.51714 C1176.46069,2508.51714 1179.7753,2508.83029 1183.11325,2509.05279 C1205.03171,2447.70057 1260.85879,2404 1326.46631,2404 C1378.44191,2404 1424.30182,2431.44986 1452.04808,2473.32924 C1467.19725,2454.19427 1489.92491,2442.00623 1515.35249,2442.00623 C1534.94449,2442.00623 1552.91809,2449.26631 1567.07911,2461.33074 C1574.15183,2452.99936 1584.29797,2447.65113 1595.72015,2447.65113 C1613.04795,2447.65113 1627.54354,2459.82268 1632.43765,2476.47719 C1645.26815,2472.68646 1658.73668,2470.51091 1672.70317,2470.51091 C1692.61419,2470.51091 1711.57594,2474.71368 1728.95042,2482.17978 C1749.9274,2457.56472 1780.18685,2442.00623 1813.95543,2442.00623 C1852.49362,2442.00623 1886.5034,2462.21249 1907.27808,2493.09874 C1915.8525,2483.85264 1927.77265,2478.10886 1940.97663,2478.10886 C1963.0118,2478.10886 1981.4678,2494.10411 1986.68871,2515.71953 C1996.43024,2512.43148 2006.79424,2510.62677 2017.55505,2510.62677 C2073.66225,2510.62677 2119.1409,2558.79381 2119.1409,2618.20946 C2119.1409,2627.29074 2117.95822,2636.06711 2115.95856,2644.48913 C2130.29853,2661.07772 2141.47173,2680.72361 2148.46665,2702.47913 C2171.41217,2673.64483 2205.71762,2655.29273 2244.10798,2655.29273 C2258.70472,2655.29273 2272.65566,2658.07809 2285.68068,2662.94012 C2290.80821,2660.57503 2296.44928,2659.21531 2302.40157,2659.21531 C2324.70128,2659.21531 2342.75269,2677.73223 2344.02096,2701.01228 C2354.92961,2690.91739 2369.16843,2684.75333 2384.79223,2684.75333 C2419.06656,2684.75333 2446.84394,2714.17272 2446.84394,2750.47312 L2446.84394,2750.53905 C2480.94709,2757.79089 2507.95418,2785.57862 2516.08509,2821.1868 C2531.47547,2829.73243 2544.11145,2843.04945 2552.25015,2859.3084 C2563.07321,2840.0251 2581.68483,2826.29605 2603.5177,2822.93383 C2596.29713,2819.1431 2591.29409,2811.33913 2591.29409,2802.22489 C2591.29409,2792.41018 2597.06743,2784.07057 2605.20613,2780.68363 C2606.5522,2773.15984 2610.21695,2766.55902 2615.35226,2761.58986 C2614.44191,2757.63431 2613.90504,2753.52219 2613.90504,2749.26998 C2613.90504,2720.50984 2635.91686,2697.19682 2663.07178,2697.19682 C2675.83225,2697.19682 2687.42561,2702.38848 2696.16343,2710.83523 C2701.95233,2694.17248 2716.9381,2682.21518 2734.68606,2682.21518 C2755.15729,2682.21518 2772.01045,2698.08682 2775.19279,2718.82049 C2829.22252,2729.18732 2873.10611,2770.10253 2890.41056,2824.12874 C2904.91393,2803.64229 2925.63414,2788.46287 2949.66897,2781.70548 C2952.04211,2769.5092 2962.23493,2760.32903 2974.45075,2760.32903 C2983.15744,2760.32903 2990.82151,2764.98504 2995.38104,2772.07207 C2998.80458,2769.44328 3002.60938,2767.33365 3006.69429,2765.87504 C3010.00112,2748.90738 3024.18548,2736.15074 3041.18648,2736.15074 C3046.25955,2736.15074 3051.06029,2737.3374 3055.42531,2739.38934 C3062.94154,2728.06659 3075.31298,2720.63345 3089.36506,2720.63345 C3100.47602,2720.63345 3110.51322,2725.32242 3117.96721,2732.84621 C3119.17323,2732.92861 3120.37925,2733.00278 3121.53858,2733.22528 C3121.44521,2732.21991 3121.25069,2731.24751 3121.25069,2730.21742 C3121.25069,2711.84884 3135.31056,2696.95784 3152.65392,2696.95784 C3169.99727,2696.95784 3184.06492,2711.84884 3184.06492,2730.21742 C3184.06492,2730.43992 3184.00267,2730.64593 3184.00267,2730.86843 C3194.61565,2728.4127 3205.60989,2727.03649 3216.92315,2727.03649 C3226.74249,2727.03649 3236.30506,2728.11603 3245.61088,2729.97019 C3248.50533,2645.65108 3313.77828,2578.18424 3394.09925,2578.18424 C3402.26907,2578.18424 3410.22102,2579.066 3418.03293,2580.40924 C3422.64693,2576.14054 3428.61478,2573.47055 3435.22845,2573.47055 C3447.70103,2573.47055 3458.09615,2582.70016 3460.78052,2595.04477 C3461.27071,2595.30848 3461.76868,2595.53097 3462.25109,2595.79468 C3480.69153,2563.74649 3509.19253,2539.01607 3543.20231,2526.49841 C3544.89074,2507.48705 3559.82205,2492.56309 3578.21581,2492.56309 C3587.17149,2492.56309 3595.25572,2496.20549 3601.48812,2502.02345 C3608.64644,2476.32062 3631.06286,2457.54824 3657.64978,2457.54824 C3683.53643,2457.54824 3705.47044,2475.35645 3713.21232,2500.02095 C3721.00088,2496.98836 3729.38077,2495.24133 3738.17305,2495.24133 C3778.11957,2495.24133 3810.49539,2529.53923 3810.49539,2571.84713 C3810.49539,2572.57231 3810.4098,2573.28101 3810.39424,2574.01444 C3813.59992,2573.51175 3816.85229,2573.16564 3820.19802,2573.16564 C3830.93549,2573.16564 3841.05051,2575.9098 3850.04509,2580.67294 C3856.33196,2572.33333 3865.89453,2566.89445 3876.7565,2566.89445 C3880.54574,2566.89445 3884.13268,2567.70204 3887.54066,2568.90519 C3889.41583,2551.22883 3903.40566,2537.44209 3920.60119,2537.44209 C3939.06497,2537.44209 3954.02741,2553.28901 3954.02741,2572.84425 C3954.02741,2573.14916 3953.95738,2573.42935 3953.9496,2573.72601 C3965.69858,2574.59129 3976.54498,2578.88471 3985.60959,2585.69979 C3989.70228,2572.39925 4001.36567,2562.72464 4015.28548,2562.72464 C4028.45055,2562.72464 4039.686,2571.34444 4044.32334,2583.53248 C4055.43429,2580.11257 4067.15215,2578.18424 4079.30572,2578.18424 C4148.4924,2578.18424 4204.58404,2637.59165 4204.58404,2710.86819 C4204.58404,2713.16735 4204.36617,2715.40883 4204.25724,2717.68327 C4216.53531,2719.32317 4226.05898,2730.29982 4226.05898,2743.74045 C4226.05898,2750.9346 4223.32793,2757.44478 4218.91623,2762.20792 C4224.05154,2766.12226 4228.1987,2771.29744 4231.17096,2777.26373 C4237.06879,2767.243 4247.47947,2760.51033 4259.45409,2760.51033 C4275.31131,2760.51033 4288.52307,2772.25336 4291.93105,2787.95195 C4302.88639,2781.45001 4315.49125,2777.70872 4328.93644,2777.70872 C4370.84371,2777.70872 4404.81459,2813.69598 4404.81459,2858.07229 C4404.81459,2902.45685 4370.84371,2938.4441 4328.93644,2938.4441 C4327.12352,2938.4441 4325.35728,2938.28753 4323.57548,2938.15568 C4323.6066,2939.36706 4323.74666,2940.54549 4323.74666,2941.76512 C4323.74666,3006.22119 4281.66044,3060.26685 4225,3074.75866 L4225,3684 L344,3684 L344,3007.45826 Z M1598.16678,2865 C1601.27777,2862.47016 1604.29476,2859.81506 1607.21236,2857.0422 C1607.77398,2859.72177 1608.40155,2862.37505 1609.09317,2865 L1598.16678,2865 Z" id="cloud_5"></path>
        </g>
    </g>
</svg>