<?xml version="1.0" encoding="UTF-8" standalone="no"?>
<svg width="4152px" height="651px" viewBox="0 0 4152 651" version="1.1" xmlns="http://www.w3.org/2000/svg" xmlns:xlink="http://www.w3.org/1999/xlink">
    <!-- Generator: Sketch 3.8.3 (29802) - http://www.bohemiancoding.com/sketch -->
    <title>cloud_2</title>
    <desc>Created with Sketch.</desc>
    <defs></defs>
    <g id="Page-1" stroke="none" stroke-width="1" fill="none" fill-rule="evenodd">
        <g id="Artboard-7" transform="translate(-239.000000, -3044.000000)" fill="#BBBBB6">
            <path d="M463,3409.73208 C439.884628,3426.90486 411.728255,3436.98378 381.349341,3436.98378 C302.732356,3436.98378 239,3369.48399 239,3286.21969 C239,3202.95538 302.732356,3135.45559 381.349341,3135.45559 C407.12706,3135.45559 431.231912,3142.8228 452.084398,3155.51352 C463.545485,3143.86113 479.075918,3136.65873 496.216973,3136.65873 C513.599232,3136.65873 529.339747,3144.04242 540.847518,3155.98324 C550.192233,3118.43849 582.381314,3090.70844 620.763894,3090.70844 C655.551754,3090.70844 685.274328,3113.46933 697.505711,3145.68233 C712.522614,3145.99548 724.831805,3157.66435 727.220504,3172.93441 C729.165699,3173.63488 731.087551,3174.38478 733.001622,3175.16765 C739.023945,3170.45395 746.407904,3167.57794 754.46879,3167.57794 C757.588882,3167.57794 760.56114,3168.12183 763.447808,3168.9047 C765.890973,3153.98898 778.099014,3142.61678 792.882493,3142.61678 C798.422408,3142.61678 803.549941,3144.32261 808.000546,3147.09149 C815.64127,3143.47381 824.03673,3141.35595 832.875694,3141.0016 C831.817509,3137.12845 831.078335,3133.11522 831.078335,3128.87125 C831.078335,3104.60231 849.658833,3084.92345 872.573226,3084.92345 C892.453115,3084.92345 909.026173,3099.74028 913.087739,3119.50978 C925.747066,3107.32999 942.499082,3099.83917 960.947307,3099.82268 C967.825515,3085.20363 981.939848,3075.06754 998.403975,3075.06754 C1009.77169,3075.06754 1020.04232,3079.89661 1027.59746,3087.65937 C1038.70841,3065.52478 1060.68133,3050.43601 1085.99998,3050.43601 C1122.51517,3050.43601 1152.12103,3081.79197 1152.12103,3120.46571 C1152.12103,3127.61866 1151.09397,3134.51614 1149.21102,3141.01808 C1150.17584,3140.96863 1151.13287,3140.8615 1152.12103,3140.8615 C1164.08787,3140.8615 1175.15214,3144.88298 1184.24009,3151.6651 C1208.21267,3152.44797 1230.76136,3159.16416 1250.52454,3170.68469 C1252.9288,3168.12183 1255.44199,3165.69081 1258.06411,3163.37517 C1256.54686,3159.51851 1255.69876,3155.29102 1255.69876,3150.84927 C1255.69876,3132.84328 1269.47851,3118.24895 1286.47952,3118.24895 C1291.73154,3118.24895 1296.60231,3119.77348 1300.92842,3122.22922 C1311.63477,3103.3662 1331.08672,3090.70844 1353.38643,3090.70844 C1381.48282,3090.70844 1405.09748,3110.77461 1412.30248,3138.09262 C1435.39583,3116.7409 1465.51523,3103.71231 1498.57575,3103.71231 C1543.32301,3103.71231 1582.78712,3127.4456 1606.50293,3163.63887 C1623.26273,3121.60293 1662.5401,3092.10112 1708.32998,3092.10112 C1735.39931,3092.10112 1760.16553,3102.45148 1779.37627,3119.56747 C1784.10698,3103.68759 1797.95677,3092.10112 1814.51426,3092.10112 C1833.70166,3092.10112 1849.29434,3107.62665 1851.15395,3127.42912 C1852.79569,3127.19014 1854.41409,3126.89347 1856.11808,3126.89347 C1868.87078,3126.89347 1880.11401,3133.70031 1886.8366,3144.04242 C1902.19585,3133.38716 1920.52737,3127.14069 1940.2672,3127.14069 C1976.36223,3127.14069 2007.81214,3147.93205 2024.71977,3178.77709 C2032.05705,3171.35219 2041.9542,3166.72915 2052.90953,3166.72915 C2068.68895,3166.72915 2082.21973,3176.30487 2089.03569,3190.17401 C2098.07695,3178.33209 2111.88783,3170.74238 2127.37936,3170.74238 C2146.32556,3170.74238 2162.75078,3182.07338 2171.01397,3198.66196 C2181.04339,3200.70566 2189.15096,3208.24593 2192.59785,3218.20073 C2215.31772,3186.83652 2250.95369,3166.53137 2291.16475,3166.53137 C2333.53109,3166.53137 2370.89439,3189.02031 2393.33415,3223.30998 C2402.49213,3212.64648 2415.64942,3205.9138 2430.33175,3205.9138 C2450.08715,3205.9138 2467.11149,3218.05239 2475.25797,3235.65459 C2481.88719,3189.76198 2519.2038,3154.56583 2564.38678,3154.56583 C2580.74976,3154.56583 2596.05455,3159.24657 2609.28966,3167.306 C2616.10562,3158.02694 2626.62523,3151.95352 2638.59207,3151.95352 C2656.02879,3151.95352 2670.54772,3164.68545 2674.60929,3181.81792 C2684.44419,3178.40626 2694.93268,3176.49441 2705.8569,3176.49441 C2722.4922,3176.49441 2738.13935,3180.85375 2751.95023,3188.44346 C2752.84502,3187.19911 2753.662,3185.89708 2754.59569,3184.69393 C2752.75943,3180.43347 2751.67012,3175.73626 2751.67012,3170.74238 C2751.67012,3152.13482 2765.91673,3137.05429 2783.48572,3137.05429 C2792.12239,3137.05429 2799.93429,3140.72965 2805.66872,3146.64649 C2818.188,3141.85863 2831.6254,3139.11447 2845.70083,3139.11447 C2874.10845,3139.11447 2900.1585,3149.75325 2920.51301,3167.46257 C2937.93418,3121.56172 2980.28495,3089.10974 3029.85629,3089.10974 C3065.11878,3089.10974 3096.6854,3105.59943 3118.28484,3131.59069 C3126.87482,3115.39766 3143.23001,3104.44573 3162.01281,3104.44573 C3189.71238,3104.44573 3212.16771,3128.22847 3212.16771,3157.56546 C3212.16771,3160.67221 3211.86426,3163.7048 3211.38185,3166.66322 C3242.62946,3167.18239 3270.88925,3180.6807 3291.50053,3202.37853 C3299.05566,3187.69356 3313.76134,3177.72228 3330.66897,3177.72228 C3339.04108,3177.72228 3346.8452,3180.21922 3353.54446,3184.47143 C3361.93992,3178.20848 3372.15608,3174.50015 3383.21256,3174.50015 C3388.99368,3174.50015 3394.5336,3175.55496 3399.71559,3177.40913 C3411.42567,3162.24619 3426.9172,3150.56908 3444.62625,3143.74576 C3447.08497,3123.3994 3463.32346,3107.61017 3483.20335,3107.61017 C3491.8867,3107.61017 3499.83087,3110.70868 3506.32004,3115.78497 C3530.58051,3094.12834 3561.57913,3080.81133 3595.5111,3079.60818 C3605.41603,3059.85516 3625.0236,3046.38157 3647.61898,3046.38157 C3680.1971,3046.38157 3706.60506,3074.3506 3706.60506,3108.85452 C3706.60506,3114.61479 3705.81142,3120.1608 3704.442,3125.45134 C3717.62264,3139.60067 3728.23562,3156.42 3735.52621,3175.08524 C3745.63344,3168.03118 3757.72477,3163.89434 3770.74201,3163.89434 C3782.37428,3163.89434 3793.25181,3167.22359 3802.65099,3172.95914 C3807.33501,3148.3276 3827.86849,3129.77773 3852.50243,3129.77773 C3861.85493,3129.77773 3870.58496,3132.49717 3878.11676,3137.16142 C3879.68847,3136.93892 3881.24463,3136.65873 3882.87081,3136.65873 C3894.65091,3136.65873 3905.01491,3142.77335 3911.51964,3152.08537 C3919.7128,3147.00085 3929.21313,3144.03418 3939.39039,3144.03418 C3945.86399,3144.03418 3952.04193,3145.27029 3957.81527,3147.4376 C3962.88056,3089.43113 4008.91942,3044 4065.01105,3044 C4116.72989,3044 4159.88987,3082.61605 4170.29277,3134.10411 C4175.14019,3131.43411 4180.57118,3129.77773 4186.41454,3129.77773 C4205.86649,3129.77773 4221.63812,3146.48168 4221.63812,3167.0835 C4221.63812,3167.23183 4221.59144,3167.37192 4221.59144,3167.5285 C4236.32823,3171.8796 4249.54778,3180.02968 4260.24635,3190.96512 C4263.31197,3172.29164 4278.59342,3158.06814 4297.10389,3158.06814 C4310.29231,3158.06814 4321.83899,3165.31174 4328.52268,3176.21422 C4363.85519,3183.8781 4390.42655,3216.98934 4390.42655,3256.66844 C4390.42655,3270.50462 4387.1664,3283.51673 4381.46309,3294.95486 C4387.17418,3310.49687 4390.42655,3327.34915 4390.42655,3345.03375 C4390.42655,3373.74282 4382.15511,3400.38035 4368,3422.4469 L4368,3695 L463,3695 L463,3409.73208 Z M1003.62032,3236 C1006.99698,3233.32285 1010.14366,3230.3373 1013.02406,3227.08423 C1013.09408,3227.11719 1013.17189,3227.14191 1013.24192,3227.17488 C1011.42857,3230.02402 1009.73843,3232.96859 1008.1797,3236 L1003.62034,3236 Z" id="cloud_2"></path>
        </g>
    </g>
</svg>