<?xml version="1.0" encoding="UTF-8" standalone="no"?>
<svg width="4104px" height="466px" viewBox="0 0 4104 466" version="1.1" xmlns="http://www.w3.org/2000/svg" xmlns:xlink="http://www.w3.org/1999/xlink">
    <!-- Generator: Sketch 3.8.3 (29802) - http://www.bohemiancoding.com/sketch -->
    <title>cloud_1</title>
    <desc>Created with Sketch.</desc>
    <defs></defs>
    <g id="Page-1" stroke="none" stroke-width="1" fill="none" fill-rule="evenodd">
        <g id="Artboard-7" transform="translate(-301.000000, -3228.000000)" fill="#B4B4B0">
            <path d="M335,3530.92035 C314.399354,3515.12313 301,3489.44178 301,3460.44618 C301,3412.42747 337.748617,3373.49827 383.094993,3373.49827 C383.857509,3373.49827 384.596683,3373.59716 385.351419,3373.62189 C396.267851,3362.15079 411.284753,3355.05553 427.873373,3355.05553 C433.926819,3355.05553 439.762403,3356.02793 445.278974,3357.78321 C466.287076,3312.59106 510.069516,3281.42463 560.846876,3281.42463 C616.782893,3281.42463 664.261203,3319.24133 682.094747,3371.99022 C689.042982,3366.14755 697.71855,3362.51339 707.273346,3362.51339 C718.41542,3362.51339 728.491528,3367.26828 735.836583,3374.9404 C751.818302,3363.87311 770.881209,3357.37941 791.399122,3357.37941 C815.200523,3357.37941 837.033388,3366.10634 854.3534,3380.61002 C854.337839,3379.75299 854.244469,3378.91243 854.236689,3378.0554 C837.85815,3370.05365 826.46709,3352.55035 826.46709,3332.19575 C826.46709,3304.29265 847.825327,3281.67185 874.178824,3281.67185 C880.675774,3281.67185 886.877054,3283.0563 892.525899,3285.55324 C913.401728,3265.34697 941.10908,3252.91172 971.625293,3252.91172 C1011.14387,3252.91172 1046.0251,3273.66187 1067.30553,3305.3557 C1069.95877,3304.96839 1072.65092,3304.70469 1075.40532,3304.70469 C1086.31397,3304.70469 1096.49901,3307.86913 1105.2835,3313.29152 C1111.72599,3300.37006 1124.38532,3291.47008 1139.12989,3291.47008 C1148.32677,3291.47008 1156.64442,3295.03007 1163.25808,3300.72441 C1173.70767,3297.68359 1184.66301,3295.92831 1196.02294,3295.92831 C1218.29931,3295.92831 1239.1518,3302.25719 1257.19542,3313.19263 C1268.96774,3269.63215 1306.77454,3237.71582 1351.6852,3237.71582 C1373.55696,3237.71582 1393.69362,3245.37145 1410.03325,3258.16106 C1416.07114,3254.82357 1422.926,3252.91172 1430.21659,3252.91172 C1431.35259,3252.91172 1432.46524,3253.00237 1433.57789,3253.09301 C1458.17293,3237.27906 1486.93847,3228 1517.8126,3228 C1562.68435,3228 1603.30779,3247.2421 1632.75026,3278.35084 C1637.74551,3276.57084 1643.08313,3275.56548 1648.64639,3275.56548 C1667.73264,3275.56548 1684.29791,3286.9212 1692.69337,3303.59219 C1705.90513,3306.66598 1716.88381,3315.96976 1722.78942,3328.4627 C1724.36892,3328.39678 1725.9173,3328.20724 1727.50457,3328.20724 C1752.31748,3328.20724 1775.36414,3336.06065 1794.66825,3349.46831 C1800.38713,3346.97137 1806.64287,3345.57869 1813.20985,3345.57869 C1822.7024,3345.57869 1831.5258,3348.49591 1839.01869,3353.46507 C1843.32146,3352.74812 1847.70982,3352.27016 1852.20711,3352.27016 C1873.0596,3352.27016 1892.11472,3360.31311 1906.84374,3373.57244 C1909.26356,3349.85563 1928.20975,3331.38816 1951.24864,3331.38816 C1970.59165,3331.38816 1987.01688,3344.43323 1993.22594,3362.65348 C1994.12851,3362.61227 1995.00774,3362.51339 1995.91809,3362.51339 C2008.0172,3362.51339 2019.26042,3366.33708 2028.68295,3372.87198 C2050.8037,3335.54149 2089.89433,3310.65449 2134.57156,3310.65449 C2198.65405,3310.65449 2251.39995,3361.72228 2258.69054,3427.51624 C2275.49702,3432.83151 2289.3079,3445.40686 2296.95641,3461.8059 C2306.32446,3452.06536 2319.14719,3446.04139 2333.3082,3446.04139 C2347.76489,3446.04139 2360.82882,3452.31259 2370.24356,3462.41572 C2372.13429,3462.20146 2374.04836,3462.07785 2375.99355,3462.07785 C2404.49454,3462.07785 2427.72795,3485.66281 2429.4086,3515.39535 C2431.05034,3514.17572 2432.76211,3513.0385 2434.48945,3511.94249 C2428.56049,3503.72648 2424.9969,3493.48326 2424.9969,3482.33355 C2424.9969,3455.34517 2445.66264,3433.46604 2471.14469,3433.46604 C2489.00936,3433.46604 2504.47755,3444.24491 2512.14161,3459.97646 C2527.57868,3417.80866 2566.15578,3387.85362 2611.42435,3387.85362 C2623.14998,3387.85362 2634.40099,3389.93852 2644.95172,3393.64685 C2644.94394,3393.45731 2644.89726,3393.2925 2644.89726,3393.10296 C2644.89726,3372.11383 2660.96456,3355.10497 2680.78221,3355.10497 C2685.76968,3355.10497 2690.51596,3356.18451 2694.83429,3358.13756 C2710.45031,3339.15092 2731.42729,3325.31474 2755.29872,3319.19188 C2759.36029,3305.85015 2771.03924,3296.13433 2784.99017,3296.13433 C2799.39239,3296.13433 2811.39035,3306.47644 2815.06288,3320.48568 C2827.30204,3324.21049 2838.72423,3329.93779 2848.95595,3337.40389 C2854.12239,3319.53799 2869.63726,3306.45172 2888.20998,3306.45172 C2910.98432,3306.45172 2929.45588,3326.01521 2929.45588,3350.13581 C2929.45588,3350.28415 2929.41698,3350.42424 2929.4092,3350.57257 C2939.14295,3347.67184 2949.3669,3346.01545 2959.9721,3346.01545 C2986.93249,3346.01545 3011.65981,3356.05266 3031.08841,3372.73189 C3041.7792,3356.89321 3059.23927,3346.53462 3079.02579,3346.53462 C3107.80689,3346.53462 3131.73278,3368.39726 3136.89922,3397.28925 C3147.59779,3399.70379 3157.5494,3404.22794 3166.34168,3410.45793 C3179.25778,3400.77508 3194.99829,3395.02305 3212.0382,3395.02305 C3247.79865,3395.02305 3278.00363,3420.12431 3287.86188,3454.59527 C3295.96167,3448.2087 3305.95997,3444.38501 3316.8375,3444.38501 C3332.35237,3444.38501 3346.13213,3452.10657 3355.04112,3464.08034 C3368.08949,3443.30547 3389.86011,3429.27975 3414.80528,3427.68105 C3413.45921,3420.71764 3412.75116,3413.49876 3412.75116,3406.10683 C3412.75116,3346.92193 3458.05085,3298.94442 3513.9324,3298.94442 C3542.36336,3298.94442 3568.00881,3311.4044 3586.39479,3331.40464 C3590.58863,3330.91844 3594.83693,3330.62177 3599.15526,3330.62177 C3628.97121,3330.62177 3656.06388,3342.66971 3676.57401,3362.29913 C3682.32401,3352.49266 3692.50904,3345.90832 3704.21133,3345.90832 C3722.22384,3345.90832 3736.82836,3361.37617 3736.82836,3380.45345 C3736.82836,3381.62363 3736.6105,3382.73613 3736.50157,3383.88159 C3741.43458,3383.08224 3746.43762,3382.53835 3751.58071,3382.53835 C3787.78468,3382.53835 3819.33573,3403.26378 3836.48457,3434.05938 C3846.05493,3421.31921 3860.79172,3413.13617 3877.36478,3413.13617 C3888.0011,3413.13617 3897.87491,3416.51487 3906.13032,3422.29986 C3912.13708,3406.27989 3926.83497,3394.91592 3944.10051,3394.91592 C3951.7957,3394.91592 3958.91512,3397.29749 3965.06193,3401.21184 C3973.1306,3375.00633 3996.364,3356.05266 4023.79903,3356.05266 C4052.45564,3356.05266 4076.48268,3376.73688 4083.4776,3404.74711 C4091.38287,3397.18212 4101.83245,3392.52611 4113.33245,3392.52611 C4137.95083,3392.52611 4157.90853,3413.67182 4157.90853,3439.74548 L4157.90853,3439.85261 C4165.14465,3434.70215 4173.85134,3431.69429 4183.22718,3431.69429 C4190.50999,3431.69429 4197.36485,3433.54845 4203.46498,3436.77058 C4208.91931,3428.1755 4218.17065,3422.51412 4228.68249,3422.51412 C4235.50623,3422.51412 4241.73863,3424.9781 4246.80392,3428.99957 C4252.56948,3412.84775 4267.19734,3401.31073 4284.46289,3401.31073 C4286.01126,3401.31073 4287.47405,3401.60739 4288.97574,3401.78869 C4291.23216,3398.22046 4293.83094,3394.82528 4296.81098,3391.66908 C4321.46049,3365.55421 4361.43813,3365.55421 4386.08763,3391.66908 C4407.80379,3414.66895 4410.37144,3450.23592 4393.83729,3476.23542 C4396.87957,3483.52022 4398.59913,3491.56317 4398.59913,3500.03464 C4398.59913,3514.79994 4393.47183,3528.29628 4385,3538.63554 L4385,3694 L335,3694 L335,3530.92035 Z" id="cloud_1"></path>
        </g>
    </g>
</svg>