<?xml version="1.0" encoding="UTF-8" standalone="no"?>
<svg width="4078px" height="971px" viewBox="0 0 4078 971" version="1.1" xmlns="http://www.w3.org/2000/svg" xmlns:xlink="http://www.w3.org/1999/xlink">
    <!-- Generator: Sketch 3.8.3 (29802) - http://www.bohemiancoding.com/sketch -->
    <title>cloud_4</title>
    <desc>Created with Sketch.</desc>
    <defs></defs>
    <g id="Page-1" stroke="none" stroke-width="1" fill="none" fill-rule="evenodd">
        <g id="Artboard-7" transform="translate(-409.000000, -2641.000000)" fill="#E0E1DB">
            <path d="M4264.827,2883.44219 C4264.53911,2884.73598 4264.19675,2886.00505 4263.94777,2887.31533 C4263.62098,2885.79079 4263.23194,2884.29922 4262.85068,2882.79117 C4263.51205,2883.01367 4264.15007,2883.27737 4264.827,2883.44219 M495,3015.56377 C445.249974,2999.75758 409,2950.88836 409,2893.05087 C409,2822.42784 463.060849,2765.17127 529.7499,2765.17127 C532.838869,2765.17127 535.873373,2765.41849 538.900096,2765.65748 C559.690336,2705.51665 614.046854,2662.51654 678.028195,2662.51654 C717.795754,2662.51654 753.828538,2679.19577 780.462143,2706.19239 C786.554493,2704.10749 793.035881,2702.96203 799.781816,2702.96203 C818.976996,2702.96203 836.141393,2712.08451 847.695849,2726.41513 C853.064587,2713.88923 864.914712,2705.12934 878.748936,2705.12934 C894.458328,2705.12934 907.545597,2716.42737 911.529356,2731.72216 C924.196463,2728.37643 937.377102,2726.40689 951.016806,2726.40689 C966.827348,2726.40689 982.062112,2728.91207 996.511018,2733.35383 C1005.96466,2728.92032 1016.39869,2726.40689 1027.40849,2726.40689 C1069.59587,2726.40689 1103.79239,2762.62489 1103.79239,2807.30611 C1103.79239,2813.74212 1103.00653,2819.96387 1101.66824,2825.96312 C1105.95545,2821.2247 1111.96221,2818.2498 1118.6459,2818.2498 C1122.51294,2818.2498 1126.09988,2819.32933 1129.32112,2821.06812 C1153.09918,2770.62663 1202.17255,2735.90845 1259.01892,2735.90845 C1264.53549,2735.90845 1269.95869,2736.29577 1275.31187,2736.93854 C1275.30409,2736.63364 1275.22628,2736.35345 1275.22628,2736.04854 C1275.22628,2724.37143 1284.1664,2714.90284 1295.19954,2714.90284 C1296.73235,2714.90284 1298.21848,2715.12534 1299.65793,2715.47145 C1312.83856,2694.39991 1335.40282,2680.48132 1361.06383,2680.48132 C1388.34324,2680.48132 1412.10574,2696.24583 1424.82731,2719.59181 C1446.83913,2724.42088 1467.47376,2733.20549 1486.05425,2745.21223 C1520.74875,2746.87686 1550.71252,2767.67645 1566.66312,2797.97761 C1583.79639,2787.29762 1603.52067,2780.88634 1624.62992,2780.00458 C1624.34981,2778.22458 1624.10861,2776.43635 1624.10861,2774.57394 C1624.10861,2756.50203 1637.95061,2741.85002 1655.01386,2741.85002 C1662.58456,2741.85002 1669.43164,2744.84964 1674.80038,2749.6375 C1680.94719,2746.6626 1687.75537,2744.97325 1694.95259,2744.97325 C1698.15049,2744.97325 1701.27059,2745.31936 1704.29731,2745.93742 C1717.26787,2697.44074 1759.28407,2661.85728 1809.22889,2661.85728 C1849.09759,2661.85728 1883.86989,2684.56872 1902.91724,2718.37218 C1912.26195,2702.36869 1928.93616,2691.66399 1948.00685,2691.66399 C1977.30148,2691.66399 2001.04842,2716.81469 2001.04842,2747.84102 C2001.04842,2749.56334 2000.94727,2751.26093 2000.80721,2752.94203 C2008.01999,2751.49991 2015.4273,2750.66759 2023.0369,2750.66759 C2081.13597,2750.66759 2129.52463,2794.55771 2140.34769,2852.729 C2142.44072,2852.01205 2144.62712,2851.51761 2146.93801,2851.51761 C2147.71609,2851.51761 2148.44748,2851.67418 2149.20222,2851.76483 C2151.87103,2840.12068 2161.70593,2831.4432 2173.51715,2831.4432 C2174.21742,2831.4432 2174.87101,2831.59977 2175.54793,2831.65746 C2182.17716,2801.90843 2207.34798,2779.74088 2237.45959,2779.74088 C2259.41695,2779.74088 2278.77552,2791.50864 2290.22105,2809.41574 C2298.76434,2786.19337 2320.02921,2769.71191 2344.98217,2769.71191 C2354.50584,2769.71191 2363.4693,2772.15941 2371.42125,2776.41987 C2380.13572,2761.62776 2395.59613,2751.75537 2413.26628,2751.75537 C2437.64346,2751.75537 2457.84236,2770.50302 2461.84168,2795.10983 C2469.99593,2796.2965 2477.83896,2798.43909 2485.30072,2801.45519 C2511.8643,2770.66784 2549.96677,2751.2362 2592.44204,2751.2362 C2665.34794,2751.2362 2725.54004,2808.17963 2735.95072,2882.32145 C2748.1043,2875.82775 2761.79847,2872.08646 2776.34852,2872.08646 C2787.24161,2872.08646 2797.63673,2874.24553 2807.29268,2877.99507 C2811.48652,2871.78156 2816.92528,2866.58166 2823.25883,2862.83213 C2817.24429,2848.44382 2813.84409,2832.5557 2813.84409,2815.81054 C2813.84409,2751.49167 2863.07308,2699.36083 2923.79427,2699.36083 C2974.9918,2699.36083 3017.89501,2736.46882 3030.13417,2786.63837 C3053.74105,2786.968 3076.25863,2792.09373 3096.831,2801.18325 C3100.62802,2793.32984 3108.25319,2787.8992 3117.16218,2787.8992 C3121.70615,2787.8992 3125.91555,2789.34133 3129.47915,2791.75586 C3134.34992,2783.92717 3142.70647,2778.74375 3152.22237,2778.74375 C3164.89725,2778.74375 3175.45577,2787.95688 3178.49805,2800.37566 C3197.49094,2788.6491 3219.50276,2781.82578 3243.07074,2781.82578 C3250.01897,2781.82578 3256.78825,2782.57569 3263.43303,2783.69643 C3262.5149,2780.14467 3261.8691,2776.47755 3261.8691,2772.62089 C3261.8691,2749.29139 3279.72598,2730.38716 3301.75337,2730.38716 C3315.6654,2730.38716 3327.88122,2737.95215 3335.01619,2749.39028 C3350.44548,2746.87686 3366.76955,2750.38741 3380.54931,2760.64711 C3384.30743,2763.44896 3387.65316,2766.62988 3390.64098,2770.07451 C3391.59801,2755.5049 3402.94239,2743.95964 3416.94001,2743.95964 C3425.70117,2743.95964 3433.41192,2748.525 3438.22822,2755.47194 C3474.34659,2720.68783 3522.33065,2699.48444 3574.99096,2699.48444 C3575.13102,2699.48444 3575.27107,2699.49268 3575.4189,2699.49268 C3577.50415,2682.41789 3591.13608,2669.17505 3607.82585,2669.17505 C3611.85629,2669.17505 3615.66887,2670.0568 3619.23247,2671.45773 C3636.03895,2652.7348 3659.73142,2641 3686.05379,2641 C3707.59877,2641 3727.36973,2648.87813 3743.07134,2661.98913 C3744.6664,2661.93969 3746.25368,2661.85728 3747.85652,2661.85728 C3790.68192,2661.85728 3829.75699,2678.70957 3859.59628,2706.43961 C3863.68118,2703.89323 3868.38077,2702.32749 3873.4694,2702.32749 C3882.09829,2702.32749 3889.70789,2706.62915 3894.74205,2713.22173 C3899.36383,2706.71156 3906.64664,2702.44286 3914.93317,2702.44286 C3928.92301,2702.44286 3940.26739,2714.4496 3940.26739,2729.26643 C3940.26739,2730.97226 3940.08065,2732.63688 3939.79276,2734.25207 C3962.06135,2738.03456 3981.9568,2749.27491 3997.04373,2765.59979 C3997.93074,2765.51738 3998.77884,2765.31961 3999.68141,2765.31961 C4009.44629,2765.31961 4018.04405,2770.5195 4023.19492,2778.4306 C4026.36948,2773.03293 4031.97942,2769.39877 4038.43747,2769.39877 C4046.5995,2769.39877 4053.40769,2775.192 4055.60965,2783.07837 C4066.51052,2775.07663 4079.72228,2770.35469 4093.98444,2770.35469 C4111.34336,2770.35469 4127.12278,2777.35931 4139.07406,2788.76447 C4141.64171,2788.59142 4144.18603,2788.35244 4146.79259,2788.35244 C4187.82063,2788.35244 4224.00125,2810.14916 4245.70962,2843.36753 C4249.96571,2833.0419 4259.66056,2825.81478 4270.97381,2825.81478 C4277.92205,2825.81478 4284.19335,2828.62487 4289.04078,2833.11607 C4309.60538,2807.88296 4339.95819,2791.84651 4373.89795,2791.84651 C4435.83295,2791.84651 4486.03453,2845.02392 4486.03453,2910.61186 C4486.03453,2976.20805 4435.83295,3029.37722 4373.89795,3029.37722 C4368.15288,3029.37722 4362.51009,3028.91904 4357,3028.03536 L4357,3612 L495,3612 L495,3015.56377 Z M1113.92616,2904.00002 C1113.97062,2902.34207 1113.99299,2900.67826 1113.99299,2899.00892 C1113.99299,2887.9581 1112.91146,2877.18747 1111.0363,2866.72175 C1112.49908,2867.24916 1114.01633,2867.61999 1115.59583,2867.84249 C1114.64658,2874.93776 1113.99299,2882.13191 1113.99299,2889.50736 C1113.99299,2894.39531 1114.2087,2899.22953 1114.63059,2904 L1113.92616,2904 Z" id="cloud_4"></path>
        </g>
    </g>
</svg>