<?xml version="1.0" encoding="UTF-8" standalone="no"?>
<svg width="630px" height="110px" viewBox="0 0 630 110" version="1.1" xmlns="http://www.w3.org/2000/svg" xmlns:xlink="http://www.w3.org/1999/xlink">
    <!-- Generator: Sketch 3.8.3 (29802) - http://www.bohemiancoding.com/sketch -->
    <title>dubhacks_logo_light</title>
    <desc>Created with Sketch.</desc>
    <defs>
        <path d="M128.90041,69.5350894 C128.90041,77.1859933 127.771785,80.5822796 122.115778,80.5822796 L120.863181,80.5822796 C115.203955,80.5822796 112.800192,77.1859933 112.800192,69.5350894 L112.800192,29.0501969 L90.2598872,29.0501969 L90.2598872,69.5350894 C90.2598872,89.7082894 100.370824,99.9068106 120.863181,99.9068106 L122.115778,99.9068106 C142.604915,99.9068106 149.830693,89.7082894 149.830693,69.5350894 L149.830693,29.0501969 L128.90041,29.0501969 L128.90041,69.5350894 L128.90041,69.5350894 Z" id="path-1"></path>
        <filter x="-50%" y="-50%" width="200%" height="200%" filterUnits="objectBoundingBox" id="filter-2">
            <feOffset dx="0" dy="0" in="SourceAlpha" result="shadowOffsetOuter1"></feOffset>
            <feGaussianBlur stdDeviation="2" in="shadowOffsetOuter1" result="shadowBlurOuter1"></feGaussianBlur>
            <feColorMatrix values="0 0 0 0 0   0 0 0 0 0   0 0 0 0 0  0 0 0 0.223618659 0" type="matrix" in="shadowBlurOuter1"></feColorMatrix>
        </filter>
        <path d="M449.425961,81.8472312 C445.714861,81.8472312 442.446517,80.942199 439.620928,79.133745 C436.698739,77.3719919 434.497839,74.983802 433.013399,71.9691751 C431.483878,68.9561587 430.719118,65.5469893 430.719118,61.7448878 C430.719118,56.875106 432.501412,52.7944092 436.07405,49.5011871 C439.595168,46.2095753 443.906806,44.5637694 449.008965,44.5637694 C451.744392,44.5637694 454.338137,44.9808572 456.798251,45.8150328 C459.161763,46.6492084 461.341732,47.9020821 463.334939,49.5704333 L474.878795,33.8499273 C471.402758,31.0688052 467.392194,28.9125097 462.848713,27.3810406 C458.350312,25.8978828 453.737599,25.1554987 449.008965,25.1554987 C443.211277,25.1554987 437.811264,26.1056215 432.804096,28.0074774 C427.751848,29.9560343 423.45953,32.6212092 419.938412,36.0078333 C416.367384,39.4846385 413.564336,43.6587372 411.524438,48.528519 C409.529621,53.3048989 408.533018,58.6368591 408.533018,64.5260099 C408.533018,70.9723514 410.17685,77.0241504 413.470955,82.6814068 C416.763449,88.2468717 421.492083,92.7446563 427.658466,96.176371 C433.82324,99.5613846 440.941146,101.253891 449.008965,101.253891 C451.882854,101.253891 455.012737,100.90605 458.397002,100.210367 C461.779658,99.5162941 465.073763,98.4486137 468.272876,97.0105466 C471.425299,95.5740898 473.880582,93.9266735 475.645166,92.0731289 L463.473401,76.6296078 C459.580368,80.1080234 454.895205,81.8472312 449.425961,81.8472312" id="path-3"></path>
        <filter x="-50%" y="-50%" width="200%" height="200%" filterUnits="objectBoundingBox" id="filter-4">
            <feOffset dx="0" dy="0" in="SourceAlpha" result="shadowOffsetOuter1"></feOffset>
            <feGaussianBlur stdDeviation="2" in="shadowOffsetOuter1" result="shadowBlurOuter1"></feGaussianBlur>
            <feColorMatrix values="0 0 0 0 0   0 0 0 0 0   0 0 0 0 0  0 0 0 0.223618659 0" type="matrix" in="shadowBlurOuter1"></feColorMatrix>
        </filter>
        <path d="M617.126474,62.5094951 C614.065822,59.4030768 610.24202,57.2693265 605.651848,56.1098546 C601.478672,55.1355762 597.329646,54.0920515 593.20316,52.9792806 C589.446979,51.9599116 587.569694,50.1740028 587.569694,47.6231647 C587.569694,44.7953417 590.097428,43.3798198 595.149676,43.3798198 C599.366323,43.3798198 603.260966,44.7244851 606.833604,47.415426 L619.07299,35.2425819 C616.988012,33.3407259 614.576199,31.6240634 611.840772,30.0942047 C609.337188,28.6561375 606.50999,27.4515751 603.355957,26.4772967 C600.435378,25.6882117 597.558269,25.2952795 594.732681,25.2952795 C589.725513,25.2952795 585.10958,26.1520004 580.892933,27.8686629 C576.764838,29.5386245 573.406332,32.1345531 570.809367,35.6596697 C568.259093,39.1831758 566.983955,43.495767 566.983955,48.5974432 C566.983955,55.2289781 568.537626,60.1438504 571.643358,63.3436707 C574.797391,66.5901919 578.667883,68.8157337 583.258055,70.0219065 C588.914062,71.5066747 593.038938,72.5501994 595.637513,73.1524806 C599.297092,74.126759 601.130907,75.6340724 601.130907,77.6744208 C601.130907,81.5683138 597.815872,83.5168707 591.185803,83.5168707 C584.832657,83.5168707 579.456794,81.3138742 575.051774,76.9078811 L563.784842,91.7942115 C566.983955,94.2065571 570.044607,96.1309583 572.965186,97.5674151 C575.790774,99.0054823 578.830496,100.026462 582.076299,100.628743 C585.318883,101.277725 588.960753,101.603021 592.993857,101.603021 C597.815872,101.603021 602.475275,100.651288 606.973676,98.7510426 C611.467247,96.9425886 615.064036,94.1824014 617.752772,90.4720915 C620.438288,86.8084825 621.785877,82.4508007 621.785877,77.3958255 C621.785877,70.6241878 620.230596,65.6626144 617.126474,62.5094951" id="path-5"></path>
        <filter x="-50%" y="-50%" width="200%" height="200%" filterUnits="objectBoundingBox" id="filter-6">
            <feOffset dx="0" dy="0" in="SourceAlpha" result="shadowOffsetOuter1"></feOffset>
            <feGaussianBlur stdDeviation="2" in="shadowOffsetOuter1" result="shadowBlurOuter1"></feGaussianBlur>
            <feColorMatrix values="0 0 0 0 0   0 0 0 0 0   0 0 0 0 0  0 0 0 0.223618659 0" type="matrix" in="shadowBlurOuter1"></feColorMatrix>
        </filter>
        <path d="M59.6694734,29.4466719 L59.6694734,29.4676068 L59.6694734,62.8684483 L59.9158067,62.8684483 C59.9158067,62.8684483 59.9174167,63.1132257 59.9190268,63.1261087 C59.9174167,68.0892924 58.0626716,72.4630779 54.3547915,76.0348954 C50.6919919,79.6051025 46.3562033,81.4457641 41.3490355,81.4457641 C36.2951772,81.4457641 31.9352382,79.6872318 28.2756587,76.1154143 C24.5629485,72.5452072 22.7114234,68.2922 22.7114234,63.3306266 C22.7114234,60.0841054 23.569565,57.1226211 25.2842382,54.4332905 C26.9973014,51.697259 29.2931925,49.5216389 32.1686914,47.8983783 C35.0441903,46.2751177 38.1032316,45.4650977 41.3490355,45.4650977 C44.5932294,45.4650977 46.8633601,46.2783384 49.6921684,47.901599 C50.6646216,48.4507378 51.6193645,49.0884473 51.6193645,49.7648059 L51.6193645,26.926431 C50.0093427,25.8893478 44.6028896,25.3643647 40.6325759,25.3643647 C35.3484844,25.3643647 30.5602796,26.2693969 25.5531119,28.0778509 C20.684406,29.886305 16.4822492,32.5514799 12.5876065,36.0765964 C8.73643437,39.555012 5.83678515,43.6115531 3.70672633,48.2494406 C1.52514682,52.934029 0.481852704,57.9648485 0.481852704,63.3435097 C0.481852704,68.8622736 1.57022743,73.9172489 3.70350629,78.5084354 C5.8335651,83.0996219 8.86040605,87.1803187 12.7550487,90.7505258 C16.694772,94.3223433 21.0804714,96.9875182 25.9057066,98.7508816 C30.7728025,100.651127 35.9216521,101.60286 41.3474255,101.60286 C48.4411815,101.60286 55.1404821,99.9328988 61.4469374,96.594586 C67.7501727,93.3013639 72.8104712,88.7568783 76.5231814,82.959519 C80.2310615,77.2555616 82.2097783,70.8800768 82.2097783,63.8314541 L82.2097783,0.182890434 L59.6694734,0.113644198 L59.6694734,29.4466719 Z" id="path-7"></path>
        <filter x="-50%" y="-50%" width="200%" height="200%" filterUnits="objectBoundingBox" id="filter-8">
            <feOffset dx="0" dy="0" in="SourceAlpha" result="shadowOffsetOuter1"></feOffset>
            <feGaussianBlur stdDeviation="2" in="shadowOffsetOuter1" result="shadowBlurOuter1"></feGaussianBlur>
            <feColorMatrix values="0 0 0 0 0   0 0 0 0 0   0 0 0 0 0  0 0 0 0.223618659 0" type="matrix" in="shadowBlurOuter1"></feColorMatrix>
        </filter>
        <path d="M227.753976,36.0765964 C223.859334,32.5514799 219.478464,29.886305 214.609758,28.0778509 C209.602591,26.2693969 204.089876,25.3643647 198.804175,25.3643647 C194.878941,25.3643647 190.081077,25.8716337 186.861033,26.8861715 L186.861033,49.5731709 C188.471055,48.9692793 188.810769,48.4008161 189.694671,47.901599 C192.56856,46.2783384 195.788604,45.4667081 198.987717,45.4667081 C202.280212,45.4667081 205.431024,46.2783384 208.259832,47.901599 C211.133721,49.5248596 213.474693,51.7037005 215.189366,54.439732 C216.904039,57.1306729 217.786331,60.0985988 217.786331,63.3435097 C217.786331,68.3066934 215.942856,72.5725836 212.233366,76.1427907 C208.570567,79.7146082 204.217068,81.4989066 199.164819,81.4989066 C194.157652,81.4989066 189.823473,79.7146082 186.163894,76.1427907 C182.451183,72.5725836 180.601268,68.1376037 180.601268,63.1760304 C180.601268,63.1277191 180.610928,62.8684483 180.610928,62.8684483 L180.420946,62.8684483 L180.420946,29.4676068 L180.420946,29.4482823 L180.420946,0.113644198 L156.270619,0.182890434 L156.270619,63.8314541 C156.270619,70.8800768 159.26526,77.2555616 162.97797,82.959519 C166.68585,88.7568783 172.230765,93.3013639 178.53561,96.594586 C184.838846,99.9328988 191.80863,101.60286 198.902386,101.60286 C204.326549,101.60286 209.607421,100.651127 214.476127,98.7508816 C219.298142,96.9875182 223.746632,94.3223433 227.686355,90.7505258 C231.580998,87.1803187 234.628769,83.0996219 236.762048,78.5084354 C238.892107,73.9172489 239.983702,68.8622736 239.983702,63.3435097 C239.983702,57.9648485 238.900157,52.934029 236.720188,48.2494406 C234.586909,43.6115531 231.601928,39.555012 227.753976,36.0765964" id="path-9"></path>
        <filter x="-50%" y="-50%" width="200%" height="200%" filterUnits="objectBoundingBox" id="filter-10">
            <feOffset dx="0" dy="0" in="SourceAlpha" result="shadowOffsetOuter1"></feOffset>
            <feGaussianBlur stdDeviation="2" in="shadowOffsetOuter1" result="shadowBlurOuter1"></feGaussianBlur>
            <feColorMatrix values="0 0 0 0 0   0 0 0 0 0   0 0 0 0 0  0 0 0 0.223618659 0" type="matrix" in="shadowBlurOuter1"></feColorMatrix>
        </filter>
        <polygon id="path-11" points="246.432 99.4460816 265.752261 99.3075891 265.752261 67.8907329 265.752261 0.531859256 246.432 0.601105493"></polygon>
        <filter x="-50%" y="-50%" width="200%" height="200%" filterUnits="objectBoundingBox" id="filter-12">
            <feOffset dx="0" dy="0" in="SourceAlpha" result="shadowOffsetOuter1"></feOffset>
            <feGaussianBlur stdDeviation="2" in="shadowOffsetOuter1" result="shadowBlurOuter1"></feGaussianBlur>
            <feColorMatrix values="0 0 0 0 0   0 0 0 0 0   0 0 0 0 0  0 0 0 0.223618659 0" type="matrix" in="shadowBlurOuter1"></feColorMatrix>
        </filter>
        <path d="M287.895213,25.2252281 C284.601108,25.2252281 279.600381,25.851665 276.401267,27.1029284 C275.642947,27.404069 273.802692,27.7341964 273.802692,28.0884794 L273.802692,46.379148 C273.802692,45.6866857 277.563703,45.3275715 279.519879,45.3275715 C283.040997,45.3275715 287.016141,46.3952518 288.964267,48.5273917 C290.910784,50.661142 293.122954,53.8609623 293.122954,58.1268525 L293.122954,99.3766743 L315.663258,99.3074281 L315.663258,56.5969938 C315.663258,35.6830201 305.742304,25.2252281 287.895213,25.2252281" id="path-13"></path>
        <filter x="-50%" y="-50%" width="200%" height="200%" filterUnits="objectBoundingBox" id="filter-14">
            <feOffset dx="0" dy="0" in="SourceAlpha" result="shadowOffsetOuter1"></feOffset>
            <feGaussianBlur stdDeviation="2" in="shadowOffsetOuter1" result="shadowBlurOuter1"></feGaussianBlur>
            <feColorMatrix values="0 0 0 0 0   0 0 0 0 0   0 0 0 0 0  0 0 0 0.223618659 0" type="matrix" in="shadowBlurOuter1"></feColorMatrix>
        </filter>
        <path d="M376.891099,28.0775289 C371.883931,26.2223739 366.739911,25.2947964 361.45421,25.2947964 C356.123428,25.2947964 350.977798,26.2449192 346.017321,28.1467751 C341.053624,29.9552291 336.698515,32.5753135 332.942334,36.0070281 C329.141073,39.4387427 326.151262,43.4727386 323.971293,48.110626 C321.789713,52.793604 320.702949,57.8485793 320.702949,63.2739414 C320.702949,70.4626669 322.580234,76.9782546 326.336415,82.8207045 C330.044295,88.5713628 335.053073,93.1158484 341.357918,96.4541611 C347.661153,99.7473833 354.03362,101.393189 361.127375,101.393189 C365.049389,101.393189 368.794299,100.874648 372.014343,99.8633304 L372.014343,77.5724839 C368.794299,80.0395824 365.352073,81.2908458 361.127375,81.2908458 C356.120208,81.2908458 351.947031,79.5290927 348.285842,76.0039762 C344.574742,72.4337691 342.805328,68.1904241 342.805328,63.2739414 C342.805328,60.0290305 343.70372,57.036949 345.420003,54.3009175 C347.133066,51.5648859 349.448277,49.3860451 352.325386,47.7627845 C355.199275,46.1862248 358.247047,45.3971398 361.44616,45.3971398 C364.737044,45.3971398 367.802526,46.1862248 370.631334,47.7627845 C373.505223,49.3860451 375.802724,51.5648859 377.519007,54.3009175 C379.23207,57.036949 379.422053,60.0290305 379.423663,63.2739414 C379.422053,64.3915434 379.423663,99.5154919 379.423663,99.5154919 L401.319959,99.5154889 L401.833556,63.2739414 C401.833556,57.8485793 400.967364,52.793604 398.787395,48.110626 C396.655726,43.5661405 393.857508,39.5321446 389.962866,36.0070281 C386.251765,32.5753135 381.898266,29.9326838 376.891099,28.0775289 Z" id="path-15"></path>
        <filter x="-50%" y="-50%" width="200%" height="200%" filterUnits="objectBoundingBox" id="filter-16">
            <feOffset dx="0" dy="0" in="SourceAlpha" result="shadowOffsetOuter1"></feOffset>
            <feGaussianBlur stdDeviation="2" in="shadowOffsetOuter1" result="shadowBlurOuter1"></feGaussianBlur>
            <feColorMatrix values="0 0 0 0 0   0 0 0 0 0   0 0 0 0 0  0 0 0 0.223618659 0" type="matrix" in="shadowBlurOuter1"></feColorMatrix>
        </filter>
        <polygon id="path-17" points="481.49518 99.9066496 505.645506 99.9066496 505.645506 64.5942899 505.645506 64.3881616 505.645506 55.5294745 505.645506 55.3539434 505.645506 0.601105493 481.49518 0.670351729"></polygon>
        <filter x="-50%" y="-50%" width="200%" height="200%" filterUnits="objectBoundingBox" id="filter-18">
            <feOffset dx="0" dy="0" in="SourceAlpha" result="shadowOffsetOuter1"></feOffset>
            <feGaussianBlur stdDeviation="2" in="shadowOffsetOuter1" result="shadowBlurOuter1"></feGaussianBlur>
            <feColorMatrix values="0 0 0 0 0   0 0 0 0 0   0 0 0 0 0  0 0 0 0.223618659 0" type="matrix" in="shadowBlurOuter1"></feColorMatrix>
        </filter>
        <polygon id="path-19" points="554.517557 29.0500359 528.438424 29.0500359 513.695454 46.2569204 513.695454 75.3403396 531.289772 99.9066496 559.038498 99.9066496 528.786189 59.4346402"></polygon>
        <filter x="-50%" y="-50%" width="200%" height="200%" filterUnits="objectBoundingBox" id="filter-20">
            <feOffset dx="0" dy="0" in="SourceAlpha" result="shadowOffsetOuter1"></feOffset>
            <feGaussianBlur stdDeviation="2" in="shadowOffsetOuter1" result="shadowBlurOuter1"></feGaussianBlur>
            <feColorMatrix values="0 0 0 0 0   0 0 0 0 0   0 0 0 0 0  0 0 0 0.223618659 0" type="matrix" in="shadowBlurOuter1"></feColorMatrix>
        </filter>
    </defs>
    <g id="Page-1" stroke="none" stroke-width="1" fill="none" fill-rule="evenodd">
        <g id="Artboard-5" transform="translate(-346.000000, -903.000000)">
            <g id="dubhacks_logo_light" transform="translate(350.000000, 907.000000)">
                <g id="Fill-1">
                    <use fill="black" fill-opacity="1" filter="url(#filter-2)" xlink:href="#path-1"></use>
                    <use fill="#FFFFFF" fill-rule="evenodd" xlink:href="#path-1"></use>
                </g>
                <g id="Fill-3">
                    <use fill="black" fill-opacity="1" filter="url(#filter-4)" xlink:href="#path-3"></use>
                    <use fill="#FFFFFF" fill-rule="evenodd" xlink:href="#path-3"></use>
                </g>
                <g id="Fill-5">
                    <use fill="black" fill-opacity="1" filter="url(#filter-6)" xlink:href="#path-5"></use>
                    <use fill="#FFFFFF" fill-rule="evenodd" xlink:href="#path-5"></use>
                </g>
                <g id="Fill-7">
                    <use fill="black" fill-opacity="1" filter="url(#filter-8)" xlink:href="#path-7"></use>
                    <use fill="#FFFFFF" fill-rule="evenodd" xlink:href="#path-7"></use>
                </g>
                <g id="Fill-9">
                    <use fill="black" fill-opacity="1" filter="url(#filter-10)" xlink:href="#path-9"></use>
                    <use fill="#FFFFFF" fill-rule="evenodd" xlink:href="#path-9"></use>
                </g>
                <g id="Fill-11">
                    <use fill="black" fill-opacity="1" filter="url(#filter-12)" xlink:href="#path-11"></use>
                    <use fill="#FFFFFF" fill-rule="evenodd" xlink:href="#path-11"></use>
                </g>
                <g id="Fill-13">
                    <use fill="black" fill-opacity="1" filter="url(#filter-14)" xlink:href="#path-13"></use>
                    <use fill="#FFFFFF" fill-rule="evenodd" xlink:href="#path-13"></use>
                </g>
                <g id="Fill-15">
                    <use fill="black" fill-opacity="1" filter="url(#filter-16)" xlink:href="#path-15"></use>
                    <use fill="#FFFFFF" fill-rule="evenodd" xlink:href="#path-15"></use>
                </g>
                <g id="Fill-17">
                    <use fill="black" fill-opacity="1" filter="url(#filter-18)" xlink:href="#path-17"></use>
                    <use fill="#FFFFFF" fill-rule="evenodd" xlink:href="#path-17"></use>
                </g>
                <g id="Fill-19">
                    <use fill="black" fill-opacity="1" filter="url(#filter-20)" xlink:href="#path-19"></use>
                    <use fill="#FFFFFF" fill-rule="evenodd" xlink:href="#path-19"></use>
                </g>
            </g>
        </g>
    </g>
</svg>