<?xml version="1.0" encoding="UTF-8" standalone="no"?>
<svg width="94px" height="94px" viewBox="0 0 94 94" version="1.1" xmlns="http://www.w3.org/2000/svg" xmlns:xlink="http://www.w3.org/1999/xlink">
    <!-- Generator: Sketch 3.8.3 (29802) - http://www.bohemiancoding.com/sketch -->
    <title>dubhacks_logo_pink</title>
    <desc>Created with Sketch.</desc>
    <defs></defs>
    <g id="Page-1" stroke="none" stroke-width="1" fill="none" fill-rule="evenodd">
        <g id="Artboard-5" transform="translate(-2786.000000, -1458.000000)">
            <g id="dubhacks_logo_pink" transform="translate(2788.000000, 1459.890000)">
                <path d="M44.9551,0.2766 C20.2351,0.2766 0.1951,20.3166 0.1951,45.0366 C0.1951,69.7576 20.2351,89.7966 44.9551,89.7966 C69.6751,89.7966 89.7151,69.7576 89.7151,45.0366 C89.7151,20.3166 69.6751,0.2766 44.9551,0.2766 L44.9551,0.2766 Z" id="Stroke-2388" stroke="#D82169" stroke-width="3" stroke-linecap="round" stroke-linejoin="round"></path>
                <path d="M21.4213,48.0422 C21.6753,48.9902 21.5723,49.3742 20.8713,49.5622 L20.7163,49.6032 C20.0153,49.7912 19.7753,49.4992 19.5213,48.5512 L18.1683,43.4992 L15.3183,44.2632 L16.6723,49.3152 C17.3413,51.8142 18.8553,52.8162 21.3953,52.1362 L21.5503,52.0952 C24.0893,51.4142 24.6243,49.8622 23.9543,47.3632 L22.6003,42.3112 L20.0673,42.9902 L21.4213,48.0422 Z" id="Fill-2390" fill="#D82169"></path>
                <path d="M61.4953,38.9392 C61.0353,39.0622 60.6003,39.0592 60.1903,38.9282 C59.7693,38.8072 59.4173,38.5842 59.1333,38.2602 C58.8443,37.9382 58.6363,37.5412 58.5103,37.0702 C58.3483,36.4662 58.4333,35.9022 58.7673,35.3752 C59.0943,34.8502 59.5733,34.5032 60.2063,34.3342 C60.5453,34.2432 60.8803,34.2092 61.2123,34.2302 C61.5333,34.2552 61.8453,34.3382 62.1473,34.4792 L63.0563,32.1482 C62.5333,31.9192 61.9643,31.7852 61.3503,31.7462 C60.7443,31.7112 60.1473,31.7732 59.5613,31.9302 C58.8433,32.1222 58.2063,32.4192 57.6483,32.8212 C57.0873,33.2302 56.6433,33.7032 56.3203,34.2392 C55.9923,34.7892 55.7843,35.3992 55.6923,36.0702 C55.6043,36.7282 55.6573,37.4212 55.8533,38.1512 C56.0673,38.9502 56.4713,39.6452 57.0673,40.2362 C57.6603,40.8162 58.3953,41.2172 59.2733,41.4372 C60.1503,41.6522 61.0883,41.6252 62.0883,41.3572 C62.4443,41.2622 62.8203,41.1152 63.2163,40.9162 C63.6123,40.7182 63.9853,40.4762 64.3343,40.1922 C64.6773,39.9092 64.9263,39.6242 65.0833,39.3352 L63.0633,37.8262 C62.6953,38.3862 62.1733,38.7572 61.4953,38.9392" id="Fill-2392" fill="#D82169"></path>
                <path d="M81.6337,30.9755 C81.1517,30.6925 80.6067,30.5545 79.9997,30.5635 C79.4497,30.5815 78.9007,30.5905 78.3527,30.5895 C77.8537,30.5875 77.5617,30.4285 77.4767,30.1125 C77.3837,29.7625 77.6497,29.5035 78.2757,29.3355 C78.7977,29.1955 79.3257,29.2325 79.8577,29.4475 L80.9697,27.5325 C80.6487,27.3665 80.2927,27.2335 79.9027,27.1355 C79.5447,27.0405 79.1547,26.9845 78.7317,26.9685 C78.3437,26.9685 77.9737,27.0145 77.6237,27.1085 C77.0027,27.2745 76.4597,27.5345 75.9937,27.8865 C75.5377,28.2305 75.2077,28.6645 75.0027,29.1865 C74.8037,29.7085 74.7897,30.2845 74.9587,30.9165 C75.1787,31.7385 75.5347,32.2955 76.0257,32.5895 C76.5237,32.8865 77.0777,33.0335 77.6867,33.0305 C78.4367,33.0265 78.9817,33.0195 79.3237,33.0075 C79.8097,33.0065 80.0877,33.1325 80.1547,33.3855 C80.2847,33.8675 79.9387,34.2195 79.1167,34.4395 C78.3297,34.6505 77.5897,34.5555 76.8977,34.1565 L75.9957,36.3745 C76.4727,36.5675 76.9157,36.7035 77.3257,36.7845 C77.7237,36.8695 78.1337,36.8945 78.5557,36.8615 C78.9797,36.8345 79.4417,36.7535 79.9407,36.6195 C80.5387,36.4595 81.0847,36.1875 81.5787,35.8025 C82.0757,35.4295 82.4297,34.9675 82.6397,34.4185 C82.8507,33.8755 82.8727,33.2915 82.7057,32.6645 C82.4807,31.8265 82.1227,31.2635 81.6337,30.9755" id="Fill-2394" fill="#D82169"></path>
                <path d="M15.5329,48.8626 L13.4199,40.9776 L10.5679,41.6696 L11.5429,45.2426 L11.5349,45.2426 L12.6589,49.4996 L12.6139,49.5436 C12.6149,49.5446 12.6149,49.5626 12.6159,49.5636 C12.7809,50.1786 12.6919,50.7766 12.3509,51.3416 C12.0159,51.9056 11.5379,52.2756 10.9179,52.4416 C10.2919,52.6096 9.6919,52.5346 9.1199,52.2136 C8.5409,51.8946 8.1699,51.4286 8.0059,50.8136 C7.8979,50.4116 7.9059,50.0166 8.0289,49.6256 C8.1499,49.2306 8.3619,48.8846 8.6649,48.5876 C8.9669,48.2906 9.3189,48.0886 9.7219,47.9816 C10.1229,47.8736 10.5269,47.8736 10.9309,47.9806 C11.0699,48.0166 11.2009,48.0656 11.3269,48.1216 L10.5689,45.2926 C10.0569,45.2916 9.5529,45.3576 9.0609,45.4896 C8.4059,45.6646 7.7949,45.9486 7.2339,46.3386 C6.6909,46.7246 6.2349,47.2006 5.8699,47.7666 C5.5079,48.3256 5.2709,48.9276 5.1609,49.5726 C5.0469,50.2256 5.0779,50.8846 5.2569,51.5516 C5.4399,52.2346 5.7399,52.8256 6.1569,53.3236 C6.5729,53.8216 7.0819,54.2276 7.6829,54.5406 C8.2899,54.8516 8.9209,55.0366 9.5769,55.0946 C10.2439,55.1686 10.9129,55.1156 11.5849,54.9356 C12.4639,54.7006 13.2389,54.2706 13.9089,53.6476 C14.5809,53.0306 15.1269,52.2816 15.3939,51.4396 C15.6639,50.6096 15.7669,49.7356 15.5329,48.8626" id="Fill-2396" fill="#D82169"></path>
                <path d="M34.9287,43.6009 C34.7497,42.9349 34.4487,42.3469 34.0227,41.8389 C33.6047,41.3359 33.0997,40.9319 32.5077,40.6289 C31.9087,40.3219 31.2767,40.1369 30.6137,40.0739 C29.9327,40.0169 29.2657,40.0759 28.6107,40.2509 C28.1237,40.3809 27.6627,40.5719 27.2267,40.8239 L27.9797,43.6339 C28.0557,43.5339 28.1367,43.4369 28.2297,43.3459 C28.5317,43.0489 28.8817,42.8479 29.2777,42.7409 C29.6857,42.6319 30.0917,42.6309 30.4957,42.7379 C30.9057,42.8439 31.2627,43.0379 31.5667,43.3199 C31.8677,43.5959 32.0727,43.9349 32.1807,44.3369 C32.3457,44.9519 32.2567,45.5419 31.9157,46.1079 C31.5807,46.6719 31.0997,47.0379 30.4737,47.2049 C29.8537,47.3719 29.2567,47.2939 28.6847,46.9739 C28.1057,46.6539 27.7347,46.1869 27.5707,45.5729 C27.5687,45.5669 27.5687,45.5609 27.5667,45.5549 L27.5497,45.5599 L26.4287,41.3779 L26.4237,41.3819 L25.4487,37.7449 L22.6017,38.5169 L24.7147,46.4019 C24.9487,47.2759 25.4597,47.9849 26.1087,48.5689 C26.7607,49.1639 27.5627,49.5519 28.4537,49.7509 C29.3457,49.9549 30.2467,49.9349 31.1257,49.6999 C31.7977,49.5199 32.4117,49.2289 32.9517,48.8319 C33.4907,48.4539 33.9487,47.9769 34.3187,47.4029 C34.6827,46.8319 34.9227,46.2259 35.0347,45.5859 C35.1467,44.9469 35.1117,44.2849 34.9287,43.6009" id="Fill-2398" fill="#D82169"></path>
                <polygon id="Fill-2400" fill="#D82169" points="38.4549 43.2406 36.2239 34.9136 33.6969 35.5996 36.9789 47.8456 39.5069 47.1496 38.4589 43.2396"></polygon>
                <path d="M44.1047,40.2462 C43.4107,37.6552 41.8227,36.6922 39.6107,37.2842 C39.2027,37.3942 38.6347,37.6292 38.2797,37.8912 C38.1957,37.9532 38.1087,38.0202 38.0207,38.0912 L38.6277,40.3572 C38.8047,40.2182 39.0227,40.1112 39.2657,40.0462 C39.7017,39.9302 40.1947,39.9392 40.5067,40.1392 C40.8187,40.3382 41.1647,40.6712 41.3057,41.1992 L42.6757,46.3092 L45.5227,45.5372 L44.1047,40.2462 Z" id="Fill-2402" fill="#D82169"></path>
                <path d="M51.8427,40.9581 C51.5217,41.3721 51.0997,41.6511 50.5767,41.7911 C49.9557,41.9571 49.3597,41.8831 48.7897,41.5681 C48.2107,41.2491 47.8407,40.7851 47.6777,40.1761 C47.5697,39.7731 47.5767,39.3741 47.6987,38.9781 C47.8197,38.5831 48.0317,38.2361 48.3347,37.9401 C48.6387,37.6491 48.9887,37.4511 49.3847,37.3441 C49.7927,37.2351 50.1977,37.2311 50.6007,37.3331 C51.0107,37.4381 51.3677,37.6321 51.6707,37.9141 C51.9737,38.1961 52.1797,38.5381 52.2877,38.9401 C52.3247,39.0791 52.3467,39.2161 52.3577,39.3521 L53.4467,43.4141 L56.2037,42.7031 L55.0227,38.2071 C54.8427,37.5351 54.5467,36.9431 54.1217,36.4351 C53.7067,35.9431 53.2057,35.5421 52.6067,35.2341 C52.0327,34.9321 51.4047,34.7501 50.7227,34.6861 C50.0407,34.6221 49.3727,34.6781 48.7177,34.8541 C48.0567,35.0311 47.4507,35.3201 46.8987,35.7201 C46.3437,36.1091 45.8917,36.5781 45.5397,37.1281 C45.1827,37.6791 44.9457,38.2781 44.8297,38.9251 C44.7147,39.5781 44.7487,40.2401 44.9287,40.9121 C45.1667,41.8031 45.6157,42.5471 46.2747,43.1471 C46.9257,43.7361 47.6967,44.1331 48.5887,44.3371 C49.4797,44.5361 50.3647,44.5171 51.2437,44.2811 C51.7297,44.1511 52.1687,43.9651 52.5827,43.7191 L51.8427,40.9581 Z" id="Fill-2404" fill="#D82169"></path>
                <polygon id="Fill-2406" fill="#D82169" points="68.1333 34.8697 67.8263 33.7247 67.8153 33.7517 65.9923 26.9467 62.8283 27.8037 66.1363 40.1477 69.3023 39.2997 68.1093 34.8487"></polygon>
                <polygon id="Fill-2408" fill="#D82169" points="70.587 33.5348 72.755 28.8728 69.524 29.7388 68.407 32.3618 69.372 35.9648 72.252 38.5088 75.691 37.5878"></polygon>
            </g>
        </g>
    </g>
</svg>