<?xml version="1.0" encoding="UTF-8" standalone="no"?>
<svg width="485px" height="485px" viewBox="0 0 485 485" version="1.1" xmlns="http://www.w3.org/2000/svg" xmlns:xlink="http://www.w3.org/1999/xlink">
    <!-- Generator: Sketch 39.1 (31720) - http://www.bohemiancoding.com/sketch -->
    <title>dubhacks_logo_white</title>
    <desc>Created with Sketch.</desc>
    <defs></defs>
    <g id="Page-1" stroke="none" stroke-width="1" fill="none" fill-rule="evenodd">
        <g id="Artboard-7" transform="translate(-3921.000000, -535.000000)">
            <g id="dubhacks_logo_white" transform="translate(3929.000000, 543.000000)">
                <path d="M234.265023,0.44754 C104.897023,0.44754 0.0210233333,105.32354 0.0210233333,234.69154 C0.0210233333,364.064773 104.897023,468.93554 234.265023,468.93554 C363.633023,468.93554 468.509023,364.064773 468.509023,234.69154 C468.509023,105.32354 363.633023,0.44754 234.265023,0.44754 L234.265023,0.44754 Z" id="Stroke-2388" stroke="#FFFFFF" stroke-width="15.676416" stroke-linecap="round" stroke-linejoin="round"></path>
                <path d="M115.104803,269.420847 C116.43407,274.382047 115.895037,276.391647 112.22647,277.375513 L111.415303,277.59008 C107.746737,278.573947 106.490737,277.045813 105.16147,272.084613 L98.08077,245.645813 L83.16577,249.64408 L90.2517033,276.08288 C93.7528033,289.16098 101.67607,294.40478 114.968737,290.846113 L115.779903,290.631547 C129.067337,287.067647 131.86717,278.945513 128.360837,265.867413 L121.274903,239.428613 L108.01887,242.982047 L115.104803,269.420847 Z" id="Fill-2390" fill="#FFFFFF"></path>
                <path d="M324.825403,221.781813 C322.41807,222.425513 320.14157,222.409813 317.995903,221.724247 C315.79267,221.091013 313.950537,219.92398 312.46427,218.22838 C310.951837,216.543247 309.863303,214.465613 309.203903,212.000713 C308.356103,208.83978 308.800937,205.88818 310.54887,203.130213 C312.26017,200.382713 314.766937,198.566747 318.079637,197.682313 C319.853737,197.20608 321.606903,197.028147 323.34437,197.138047 C325.02427,197.26888 326.65707,197.703247 328.237537,198.441147 L332.994637,186.242247 C330.257603,185.043813 327.279837,184.342547 324.06657,184.138447 C320.89517,183.95528 317.77087,184.279747 314.704137,185.10138 C310.946603,186.10618 307.61297,187.66048 304.69277,189.76428 C301.75687,191.904713 299.43327,194.38008 297.742903,197.185147 C296.02637,200.06348 294.937837,203.255813 294.45637,206.76738 C293.995837,210.210913 294.273203,213.837613 295.298937,217.657947 C296.41887,221.83938 298.533137,225.476547 301.652203,228.569447 C304.75557,231.60478 308.60207,233.703347 313.196937,234.85468 C317.78657,235.979847 322.695437,235.838547 327.92877,234.436013 C329.791837,233.938847 331.75957,233.169547 333.83197,232.128113 C335.90437,231.091913 337.856403,229.825447 339.682837,228.33918 C341.47787,226.858147 342.78097,225.366647 343.602603,223.854213 L333.03127,215.957113 C331.105403,218.88778 328.373603,220.829347 324.825403,221.781813" id="Fill-2392" fill="#FFFFFF"></path>
                <path d="M430.216363,180.105117 C427.693897,178.624083 424.84173,177.901883 421.665097,177.948983 C418.786763,178.043183 415.913663,178.090283 413.045797,178.08505 C410.434363,178.074583 408.90623,177.242483 408.461397,175.58875 C407.974697,173.757083 409.366763,172.40165 412.64283,171.52245 C415.37463,170.789783 418.13783,170.983417 420.921963,172.108583 L426.74143,162.08675 C425.06153,161.218017 423.198463,160.521983 421.157463,160.009117 C419.28393,159.51195 417.24293,159.218883 415.02923,159.13515 C412.998697,159.13515 411.062363,159.375883 409.230697,159.867817 C405.980797,160.73655 403.139097,162.097217 400.700363,163.93935 C398.313963,165.739617 396.586963,168.010883 395.51413,170.742683 C394.472697,173.474483 394.39943,176.488883 395.283863,179.79635 C396.435197,184.09815 398.298263,187.013117 400.86783,188.551717 C403.47403,190.106017 406.373297,190.875317 409.560397,190.859617 C413.485397,190.838683 416.337563,190.80205 418.127363,190.73925 C420.670763,190.734017 422.12563,191.393417 422.476263,192.71745 C423.156597,195.239917 421.345863,197.08205 417.044063,198.233383 C412.92543,199.337617 409.052763,198.84045 405.431297,196.75235 L400.71083,208.359883 C403.20713,209.369917 405.525497,210.08165 407.671163,210.50555 C409.75403,210.950383 411.899697,211.081217 414.108163,210.908517 C416.327097,210.767217 418.744897,210.343317 421.35633,209.64205 C424.485863,208.804717 427.343263,207.38125 429.92853,205.366417 C432.529497,203.414383 434.382097,200.996583 435.481097,198.123483 C436.58533,195.281783 436.700463,192.225517 435.826497,188.944217 C434.648997,184.558683 432.775463,181.612317 430.216363,180.105117" id="Fill-2394" fill="#FFFFFF"></path>
                <path d="M84.2888433,273.714273 L73.23081,232.44944 L58.3053433,236.070907 L63.4078433,254.769607 L63.3659767,254.769607 L69.2482433,277.047907 L69.0127433,277.278173 C69.0179767,277.283407 69.0179767,277.377607 69.02321,277.38284 C69.88671,280.60134 69.4209433,283.730873 67.6363767,286.687707 C65.88321,289.639307 63.3816767,291.57564 60.13701,292.444373 C56.8609433,293.323573 53.7209433,292.931073 50.7274767,291.251173 C47.6973767,289.58174 45.75581,287.143007 44.8975433,283.924507 C44.3323433,281.820707 44.37421,279.75354 45.01791,277.707307 C45.6511433,275.64014 46.76061,273.829407 48.34631,272.275107 C49.9267767,270.720807 51.76891,269.663673 53.8779433,269.103707 C55.97651,268.538507 58.0907767,268.538507 60.2050433,269.098473 C60.9324767,269.286873 61.6180433,269.543307 62.2774433,269.836373 L58.3105767,255.031273 C55.63111,255.02604 52.99351,255.37144 50.41871,256.06224 C46.9908767,256.978073 43.79331,258.46434 40.85741,260.50534 C38.01571,262.525407 35.62931,265.016473 33.7191433,267.97854 C31.8246767,270.903973 30.5843767,274.05444 30.00871,277.42994 C29.41211,280.847307 29.5743433,284.296073 30.51111,287.786707 C31.46881,291.361073 33.03881,294.453973 35.22111,297.060173 C37.3981767,299.666373 40.0619433,301.791107 43.2071767,303.42914 C46.38381,305.056707 49.6860433,306.024873 53.11911,306.328407 C56.6097433,306.715673 60.1108433,306.438307 63.6276433,305.496307 C68.2277433,304.266473 72.2835767,302.01614 75.78991,298.755773 C79.30671,295.526807 82.16411,291.60704 83.56141,287.200573 C84.97441,282.856907 85.5134433,278.282973 84.2888433,273.714273" id="Fill-2396" fill="#FFFFFF"></path>
                <path d="M185.79353,246.178043 C184.856763,242.692643 183.28153,239.615443 181.05213,236.95691 C178.864597,234.324543 176.221763,232.210277 173.12363,230.624577 C169.988863,229.017943 166.681397,228.049777 163.211697,227.720077 C159.647797,227.421777 156.157163,227.730543 152.72933,228.646377 C150.180697,229.32671 147.76813,230.326277 145.486397,231.645077 L149.427097,246.350743 C149.82483,245.82741 150.24873,245.319777 150.73543,244.843543 C152.315897,243.289243 154.147563,242.237343 156.219963,241.677377 C158.355163,241.106943 160.479897,241.10171 162.594163,241.661677 C164.73983,242.21641 166.60813,243.231677 168.199063,244.707477 C169.774297,246.151877 170.84713,247.925977 171.41233,250.029777 C172.27583,253.248277 171.810063,256.335943 170.025497,259.29801 C168.27233,262.24961 165.755097,264.16501 162.47903,265.038977 C159.234363,265.912943 156.110063,265.504743 153.116597,263.830077 C150.086497,262.15541 148.14493,259.711443 147.286663,256.498177 C147.276197,256.466777 147.276197,256.435377 147.26573,256.403977 L147.176763,256.430143 L141.310197,234.544343 L141.28403,234.565277 L136.18153,215.531643 L121.28223,219.571777 L132.340263,260.83661 C133.564863,265.410543 136.239097,269.120977 139.63553,272.177243 C143.047663,275.291077 147.244797,277.32161 151.907697,278.363043 C156.57583,279.430643 161.291063,279.325977 165.891163,278.096143 C169.407963,277.154143 172.62123,275.631243 175.44723,273.55361 C178.267997,271.57541 180.664863,269.07911 182.601197,266.075177 C184.50613,263.086943 185.76213,259.915543 186.348263,256.56621 C186.934397,253.22211 186.75123,249.757643 185.79353,246.178043" id="Fill-2398" fill="#FFFFFF"></path>
                <polygon id="Fill-2400" fill="#FFFFFF" points="204.24731 244.292473 192.571743 200.714507 179.34711 204.304573 196.52291 268.391973 209.752777 264.749573 204.268243 244.28724"></polygon>
                <path d="M233.814597,228.62178 C230.182663,215.062213 221.87213,210.022513 210.295997,213.120647 C208.160797,213.696313 205.188263,214.926147 203.33043,216.29728 C202.89083,216.621747 202.43553,216.97238 201.974997,217.343947 L205.15163,229.20268 C206.07793,228.475247 207.218797,227.91528 208.490497,227.575113 C210.77223,226.968047 213.352263,227.015147 214.985063,228.061813 C216.617863,229.103247 218.428597,230.845947 219.166497,233.609147 L226.336163,260.35148 L241.235463,256.311347 L233.814597,228.62178 Z" id="Fill-2402" fill="#FFFFFF"></path>
                <path d="M274.31013,232.34739 C272.63023,234.51399 270.421763,235.97409 267.68473,236.706757 C264.43483,237.57549 261.315763,237.188223 258.332763,235.539723 C255.302663,233.87029 253.36633,231.442023 252.513297,228.254923 C251.948097,226.14589 251.98473,224.05779 252.623197,221.98539 C253.25643,219.918223 254.365897,218.102257 255.951597,216.55319 C257.54253,215.03029 259.374197,213.99409 261.446597,213.434123 C263.581797,212.86369 265.701297,212.842757 267.81033,213.376557 C269.955997,213.926057 271.824297,214.941323 273.409997,216.417123 C274.995697,217.892923 276.073763,219.682723 276.638963,221.786523 C276.832597,222.513957 276.94773,223.230923 277.005297,223.942657 L282.704397,245.200457 L297.132697,241.479557 L290.95213,217.95049 C290.01013,214.43369 288.461063,211.335557 286.236897,208.677023 C284.065063,206.102223 281.443163,204.003657 278.308397,202.39179 C275.304463,200.811323 272.01793,199.858857 268.448797,199.523923 C264.879663,199.18899 261.383797,199.482057 257.955963,200.403123 C254.49673,201.329423 251.32533,202.841857 248.43653,204.93519 C245.53203,206.970957 243.166563,209.42539 241.32443,212.303723 C239.45613,215.18729 238.21583,218.322057 237.608763,221.708023 C237.00693,225.12539 237.184863,228.589857 238.126863,232.106657 C239.372397,236.769557 241.722163,240.663157 245.17093,243.803157 C248.57783,246.88559 252.61273,248.963223 257.280863,250.030823 C261.943763,251.072257 266.575263,250.972823 271.175363,249.737757 C273.718763,249.057423 276.016197,248.084023 278.182797,246.796623 L274.31013,232.34739 Z" id="Fill-2404" fill="#FFFFFF"></path>
                <polygon id="Fill-2406" fill="#FFFFFF" points="359.56427 200.484763 357.957637 194.492597 357.90007 194.633897 348.359703 159.021063 331.801437 163.50603 349.113303 228.106297 365.682037 223.66843 359.43867 200.374863"></polygon>
                <polygon id="Fill-2408" fill="#FFFFFF" points="372.4053 193.498787 383.751167 169.100987 366.842267 173.633053 360.996633 187.360087 366.0468 206.215787 381.1188 219.529387 399.116233 214.709487"></polygon>
            </g>
        </g>
    </g>
</svg>