<?xml version="1.0" encoding="UTF-8" standalone="no"?>
<svg width="594px" height="97px" viewBox="0 0 594 97" version="1.1" xmlns="http://www.w3.org/2000/svg" xmlns:xlink="http://www.w3.org/1999/xlink">
    <!-- Generator: Sketch 3.8.3 (29802) - http://www.bohemiancoding.com/sketch -->
    <title>dubhacks_logo_dark</title>
    <desc>Created with Sketch.</desc>
    <defs></defs>
    <g id="Page-1" stroke="none" stroke-width="1" fill="none" fill-rule="evenodd">
        <g id="Artboard-5" transform="translate(-364.000000, -678.000000)" fill="#0A0B09">
            <g id="dubhacks_logo_dark" transform="translate(364.000000, 678.000000)">
                <path d="M123.125042,66.0129084 C123.125042,73.2828806 121.905966,76.7135853 116.505441,76.7135853 L115.309424,76.7135853 C109.907362,76.7135853 107.752072,73.2828806 107.752072,66.0129084 L107.752072,27.7472391 L86.229913,27.7472391 L86.229913,66.0129084 C86.229913,85.1817027 95.7427072,95.0759651 115.309424,95.0759651 L116.505441,95.0759651 C136.069084,95.0759651 143.109904,85.1817027 143.109904,66.0129084 L143.109904,27.7472391 L123.125042,27.7472391 L123.125042,66.0129084 Z" id="Fill-2355"></path>
                <path d="M429.031169,77.7121927 C425.4877,77.7121927 422.366987,76.8522212 419.66903,75.1338085 C416.878836,73.4597716 414.775814,71.1904875 413.359963,68.3259562 C411.899531,65.4629552 411.169315,62.2235253 411.169315,58.6107271 C411.169315,53.9834074 412.871103,50.1058848 416.282365,46.9766293 C419.644434,43.8489039 423.761315,42.283511 428.63301,42.283511 C431.244877,42.283511 433.721463,42.6813626 436.070453,43.4740053 C438.327205,44.2666481 440.408705,45.4571424 442.311879,47.0424278 L453.334299,32.1046318 C450.015274,29.4619793 446.185867,27.4130438 441.847615,25.9578252 C437.552407,24.5485125 433.148051,23.8430911 428.63301,23.8430911 C423.097203,23.8430911 417.941108,24.7459081 413.160115,26.5530723 C408.336076,28.4030821 404.237642,30.9370905 400.875574,34.1550976 C397.464312,37.4587957 394.789415,41.4250698 392.841659,46.0523895 C390.936948,50.5909577 389.985361,55.6574443 389.985361,61.2533796 C389.985361,67.3787634 391.554942,73.1292487 394.700252,78.5048354 C397.844024,83.7932008 402.359065,88.0670447 408.246913,91.3278973 C414.133224,94.5443742 420.929614,96.1526126 428.63301,96.1526126 C431.377085,96.1526126 434.36559,95.8220898 437.596989,95.1610441 C440.82685,94.4999984 443.97216,93.4870071 447.026769,92.12054 C450.036797,90.7556031 452.381175,89.1902103 454.064515,87.428952 L442.444086,72.7543501 C438.725365,76.0595785 434.253368,77.7121927 429.031169,77.7121927" id="Fill-2357"></path>
                <path d="M589.156646,59.3371122 C586.234244,56.3853597 582.583164,54.3578469 578.20033,53.2561041 C574.215656,52.3303341 570.254042,51.3387656 566.313949,50.2813986 C562.727435,49.3127831 560.934947,47.6157931 560.934947,45.191959 C560.934947,42.5049307 563.348503,41.1598864 568.172541,41.1598864 C572.198722,41.1598864 575.917444,42.437602 579.328706,44.9945634 L591.015238,33.4277943 C589.024439,31.6206301 586.721568,29.9894387 584.1097,28.5357503 C581.719203,27.1692832 579.019709,26.0246949 576.008144,25.0989249 C573.219488,24.3491277 570.472338,23.9757593 567.774381,23.9757593 C562.993388,23.9757593 558.585957,24.7898248 554.559776,26.4210162 C550.618146,28.0078319 547.411345,30.4745116 544.931684,33.8241157 C542.496606,37.1721896 541.279067,41.2700607 541.279067,46.117729 C541.279067,52.4190856 542.762558,57.0892509 545.728004,60.129755 C548.739569,63.2146348 552.435231,65.3293688 556.818065,66.4754874 C562.21859,67.8863302 566.157145,68.8778987 568.638342,69.4501929 C572.132619,70.3759629 573.8836,71.8082285 573.8836,73.7469898 C573.8836,77.4470093 570.718305,79.2985493 564.387716,79.2985493 C558.321542,79.2985493 553.188507,77.205238 548.982462,73.0186154 L538.224457,87.1637686 C541.279067,89.4560057 544.201468,91.2845927 546.990125,92.6495296 C549.688081,94.0159967 552.590498,94.9861424 555.689689,95.5584366 C558.785805,96.1751065 562.263171,96.4842066 566.114101,96.4842066 C570.718305,96.4842066 575.167243,95.5798594 579.462451,93.7742254 C583.753047,92.0558127 587.187369,89.4330527 589.754655,85.9074758 C592.320404,82.4262746 593.605584,78.285558 593.605584,73.4822655 C593.605584,67.0477816 592.120555,62.3332405 589.156646,59.3371122" id="Fill-2359"></path>
                <path d="M57.0212688,27.9204576 L57.0212688,27.9403501 L57.0212688,59.8817098 L57.1150439,59.8817098 C57.1150439,59.8817098 57.1165812,60.0117767 57.1181185,60.0255485 C57.1165812,64.7400895 55.345615,68.8471418 51.8052199,72.2395914 C48.3078691,75.6320411 44.1679281,77.3550444 39.3869342,77.3550444 C34.5613588,77.3550444 30.3983583,75.6718262 26.9040821,72.2793766 C23.3606124,68.8853967 21.5911835,64.8380222 21.5911835,60.1234811 C21.5911835,57.0386013 22.4105628,54.2230364 24.0477842,51.666075 C25.6834683,49.0662681 27.8756539,46.99744 30.6228037,45.4550001 C33.366879,43.9125602 36.2892807,43.1428704 39.3869342,43.1428704 C42.4845878,43.1428704 44.7228923,43.9140904 47.4239233,45.4565303 C48.3524507,45.9783279 49.3347835,46.5842864 49.3347835,47.2269697 L49.3347835,25.5256972 C47.7974865,24.5402495 42.5645273,24.0414048 38.77509,24.0414048 C33.7281438,24.0414048 29.1208645,24.9013763 24.3398706,26.619789 C19.6910843,28.3382017 15.6618287,30.8706799 11.9431071,34.220284 C8.26589256,37.5255124 5.48645948,41.380082 3.45261547,45.7870531 C1.36957795,50.2384 0.370334862,55.0187396 0.370334862,60.1296019 C0.370334862,65.3735916 1.40801038,70.1768841 3.44339168,74.5394795 C5.47877299,78.9020749 8.36735417,82.7795974 12.0860758,86.1720471 C15.8463044,89.566027 20.0354389,92.0985052 24.6411808,93.7740723 C29.2899672,95.5797064 34.2062432,96.4840536 39.385397,96.4840536 C46.1587278,96.4840536 52.5554209,94.8972379 58.5770134,91.7251368 C64.5955314,88.5958812 69.4979718,84.2776616 73.0429788,78.7689476 C76.5833739,73.3489852 78.5434277,67.2909301 78.5434277,60.593252 L78.5434277,0.113693735 L57.0212688,0.0478952073 L57.0212688,27.9204576 Z" id="Fill-2361"></path>
                <path d="M217.372113,34.220284 C213.653392,30.8706799 209.470406,28.3382017 204.82162,26.619789 C200.040626,24.8998461 194.847637,24.0414048 189.800691,24.0414048 C186.05276,24.0414048 181.542331,24.5234173 178.467737,25.4874422 L178.467737,47.0448761 C180.005034,46.4710518 180.258688,45.9308918 181.102664,45.4565303 C183.846739,43.9140904 186.885975,43.1428704 189.940585,43.1428704 C193.084357,43.1428704 196.075937,43.9140904 198.775431,45.4565303 C201.519506,46.9989702 203.747049,49.0693285 205.384271,51.6691354 C207.019955,54.2260968 207.859319,57.0462523 207.859319,60.1296019 C207.859319,64.8456732 206.097577,68.8991685 202.555644,72.2916182 C199.058293,75.685598 194.898368,77.3810578 190.075867,77.3810578 C185.294873,77.3810578 181.154932,75.685598 177.660656,72.2916182 C174.117186,68.8991685 172.349294,64.7875256 172.349294,60.0714544 C172.349294,60.0270787 172.358518,59.8817098 172.358518,59.8817098 L172.318548,59.8817098 L172.318548,27.9403501 L172.318548,27.9219878 L172.318548,0.0478952073 L149.259092,0.113693735 L149.259092,60.593252 C149.259092,67.2909301 152.047749,73.3489852 155.592756,78.7689476 C159.133151,84.2776616 164.392245,88.5958812 170.4123,91.7251368 C176.430818,94.8972379 183.068867,96.4840536 189.842198,96.4840536 C195.021351,96.4840536 200.054462,95.5797064 204.703248,93.7740723 C209.305916,92.0985052 213.548855,89.566027 217.312159,86.1720471 C221.03088,82.7795974 223.937909,78.9020749 225.974828,74.5394795 C228.008672,70.1768841 229.050959,65.3735916 229.050959,60.1296019 C229.050959,55.0187396 228.014821,50.2384 225.933321,45.7870531 C223.897939,41.380082 221.046253,37.5255124 217.372113,34.220284" id="Fill-2363"></path>
                <polygon id="Fill-2365" points="235.347728 94.4345059 253.795293 94.3029089 253.795293 64.4502699 253.795293 0.445134691 235.347728 0.510933218"></polygon>
                <path d="M274.867331,23.9091957 C271.722021,23.9091957 266.982534,24.5044428 263.927925,25.6934069 C263.203858,25.979554 261.482085,26.2932447 261.482085,26.6298883 L261.482085,44.0098808 C261.482085,43.3518955 265.002496,43.0106613 266.870311,43.0106613 C270.23238,43.0106613 274.063324,44.0251828 275.923454,46.0511653 C277.782046,48.0786781 279.92965,51.1191822 279.92965,55.1726775 L279.92965,94.3687074 L301.451809,94.3029089 L301.451809,53.7189891 C301.451809,33.8463036 291.908269,23.9091957 274.867331,23.9091957" id="Fill-2367"></path>
                <path d="M359.772709,26.6194829 C354.991715,24.8566945 350.080051,23.9753003 345.033104,23.9753003 C339.943114,23.9753003 335.029912,24.8781173 330.2935,26.6852815 C325.554013,28.4036942 321.395625,30.8933268 317.809111,34.1541795 C314.179552,37.4150321 311.324792,41.2481789 309.243292,45.65515 C307.160254,50.1049667 306.122578,54.9082592 306.122578,60.0634974 C306.122578,66.8943027 307.915067,73.0854851 311.501581,78.6370445 C315.041976,84.1013827 319.824507,88.4196024 325.844562,91.5917035 C331.86308,94.7209591 338.018418,96.2848217 344.790211,96.2848217 C348.536604,96.2848217 352.183073,95.7920979 355.257667,94.8311333 L355.257667,73.6501282 C352.183073,75.9943921 348.825616,77.1833561 344.791749,77.1833561 C340.010755,77.1833561 335.990723,75.5093192 332.49491,72.1597151 C328.95144,68.7672654 327.24504,64.7351928 327.24504,60.0634974 C327.24504,56.9801478 328.093628,54.1370393 329.732387,51.5372323 C331.368071,48.9374254 333.574092,46.8670671 336.321242,45.3246272 C339.065317,43.826563 341.972346,43.0767659 345.026955,43.0767659 C348.170728,43.0767659 351.096204,43.826563 353.797235,45.3246272 C356.54131,46.8670671 358.735033,48.9374254 360.372254,51.5372323 C362.007939,54.1370393 362.261593,56.9801478 362.261593,60.0634974 C362.261593,61.125455 362.261594,94.5 362.261594,94.5 L383.168833,94.5006105 L383.623872,60.0634974 C383.623872,54.9082592 382.778359,50.1049667 380.698396,45.65515 C378.661478,41.3369304 375.972745,37.5037836 372.254023,34.1541795 C368.710554,30.8933268 364.553702,28.3822714 359.772709,26.6194829 Z" id="Fill-2369"></path>
                <polygon id="Fill-2371" points="459.793099 95.075659 482.852554 95.075659 482.852554 61.317954 482.852554 61.1220886 482.852554 52.7044676 482.852554 52.537676 482.852554 0.510933218 459.793099 0.576731746"></polygon>
                <polygon id="Fill-2373" points="529.375775 27.7469331 504.474638 27.7469331 490.53904 43.8935857 490.53904 71.5289673 507.197191 95.075659 533.692506 95.075659 504.806694 56.6187149"></polygon>
            </g>
        </g>
    </g>
</svg>