<?xml version="1.0" encoding="UTF-8" standalone="no"?>
<svg width="365px" height="365px" viewBox="0 0 365 365" version="1.1" xmlns="http://www.w3.org/2000/svg" xmlns:xlink="http://www.w3.org/1999/xlink">
    <!-- Generator: Sketch 3.8.3 (29802) - http://www.bohemiancoding.com/sketch -->
    <title>moon</title>
    <desc>Created with Sketch.</desc>
    <defs>
        <radialGradient cx="50%" cy="50%" fx="50%" fy="50%" r="50%" id="radialGradient-1">
            <stop stop-color="#FBFEB7" offset="0%"></stop>
            <stop stop-color="#FCFE93" offset="100%"></stop>
        </radialGradient>
        <circle id="path-2" cx="152.5" cy="152.5" r="152.5"></circle>
        <filter x="-50%" y="-50%" width="200%" height="200%" filterUnits="objectBoundingBox" id="filter-3">
            <feOffset dx="0" dy="0" in="SourceAlpha" result="shadowOffsetOuter1"></feOffset>
            <feGaussianBlur stdDeviation="15" in="shadowOffsetOuter1" result="shadowBlurOuter1"></feGaussianBlur>
            <feColorMatrix values="0 0 0 0 0.980392157   0 0 0 0 0.988235294   0 0 0 0 0.639215686  0 0 0 0.4 0" type="matrix" in="shadowBlurOuter1"></feColorMatrix>
        </filter>
    </defs>
    <g id="Page-1" stroke="none" stroke-width="1" fill="none" fill-rule="evenodd">
        <g id="Artboard-5" transform="translate(-79.000000, -144.000000)">
            <g id="moon" transform="translate(109.000000, 174.000000)">
                <g id="Oval-1">
                    <use fill="black" fill-opacity="1" filter="url(#filter-3)" xlink:href="#path-2"></use>
                    <use fill="url(#radialGradient-1)" fill-rule="evenodd" xlink:href="#path-2"></use>
                </g>
                <g id="Moon-Crevests" transform="translate(9.384615, 15.641026)" fill-opacity="0.05" fill="#000000">
                    <path d="M90.8048434,106.358974 C90.8048434,102.048572 78.2920228,79.7692308 90.8048433,79.7692308 C106.622079,79.7692308 127.561254,95.5794484 127.561254,103.230769 C127.561254,109.135004 125.938974,125.944535 119.740741,129.038462 C114.228898,131.789768 107.397278,132.948718 101.753561,132.948718 C91.8463715,132.948718 90.8048434,115.604127 90.8048434,106.358974 Z" id="Rectangle-6"></path>
                    <path d="M177.35884,241.752435 C177.35884,237.442033 167.389693,215.162691 177.35884,215.162691 C189.960662,215.162691 206.643208,230.972909 206.643208,238.62423 C206.643208,244.528465 205.350714,261.337996 200.412491,264.431922 C196.021125,267.183228 190.578275,268.342179 186.081843,268.342179 C178.188641,268.342179 177.35884,250.997588 177.35884,241.752435 Z" id="Rectangle-6" transform="translate(189.785658, 241.752435) rotate(37.000000) translate(-189.785658, -241.752435) "></path>
                    <path d="M134.512821,199.423077 C137.641026,193.948718 150.935898,179.089744 163.448718,179.089744 C179.265954,179.089744 166.576923,194.11791 166.576923,201.769231 C166.576923,207.673465 161.044387,208.05992 154.846154,211.153846 C149.334311,213.905152 143.284743,219.75641 137.641026,219.75641 C127.733836,219.75641 131.384615,204.897436 134.512821,199.423077 Z" id="Rectangle-6"></path>
                    <path d="M265.350018,132.948718 C265.350018,128.638316 259.543247,106.358974 265.350018,106.358974 C272.690254,106.358974 282.407407,122.169192 282.407407,129.820513 C282.407407,135.724748 281.654563,152.534279 278.778176,155.628205 C276.220318,158.379511 273.049998,159.538462 270.430942,159.538462 C265.833355,159.538462 265.350018,142.193871 265.350018,132.948718 Z" id="Rectangle-6"></path>
                    <path d="M218.457973,97.6676851 C218.457973,93.3572827 212.651202,71.0779415 218.457973,71.0779415 C225.79821,71.0779415 235.515363,86.8881591 235.515363,94.53948 C235.515363,100.443715 234.762518,117.253246 231.886131,120.347172 C229.328274,123.098478 226.157953,124.257429 223.538898,124.257429 C218.941311,124.257429 218.457973,106.912838 218.457973,97.6676851 Z" id="Rectangle-6" transform="translate(225.696275, 97.667685) rotate(36.000000) translate(-225.696275, -97.667685) "></path>
                    <path d="M145.376042,70.4266643 C145.376042,66.1162618 146.158094,43.880368 158.670914,43.880368 C174.488149,43.880368 172.747837,50.3059702 172.747837,57.957291 C172.747837,63.8615257 186.027979,90.012225 179.829746,93.1061514 C174.317903,95.8574576 167.486283,97.0164079 161.842567,97.0164079 C151.935377,97.0164079 145.376042,79.6718174 145.376042,70.4266643 Z" id="Rectangle-6" transform="translate(163.426994, 70.448388) rotate(90.000000) translate(-163.426994, -70.448388) "></path>
                    <path d="M51.0298087,229.716057 C51.0298087,227.241893 51.4787049,214.478527 58.6610434,214.478527 C67.7401105,214.478527 66.7411742,218.166812 66.7411742,222.558657 C66.7411742,225.947679 74.3639539,240.958137 70.8061783,242.734046 C67.6423894,244.313291 63.721051,244.978527 60.4815667,244.978527 C54.794856,244.978527 51.0298087,235.02276 51.0298087,229.716057 Z" id="Rectangle-6" transform="translate(61.391026, 229.728527) rotate(90.000000) translate(-61.391026, -229.728527) "></path>
                    <path d="M204.058097,26.4099316 C204.058097,22.0960047 202.278141,1.03480898 209.084679,1.03480898 C217.688703,1.03480897 217.492087,3.58822473 217.492087,11.2458018 C217.492087,14.0283854 215.907058,22.1854171 217.492087,27.292152 C220.359765,36.5313904 228.390229,46.0287141 226.218803,48.022925 C223.220552,50.7764808 220.562073,51.6476538 217.492087,51.6476538 C212.102922,51.6476538 204.058097,35.6626441 204.058097,26.4099316 Z" id="Rectangle-6" transform="translate(215.217407, 26.341231) rotate(137.000000) translate(-215.217407, -26.341231) "></path>
                    <path d="M62.4521782,25.2220946 C62.4521782,22.0500895 62.7909992,5.68679884 68.2121356,5.68679884 C75.0648984,5.68679884 74.3109141,10.4153696 74.3109141,16.0459409 C74.3109141,20.3908397 80.0644898,39.6350175 77.3791267,41.9118235 C74.9911397,43.9364969 72.0313641,44.7893629 69.5862431,44.7893629 C65.2939873,44.7893629 62.4521782,32.0255597 62.4521782,25.2220946 Z" id="Rectangle-6" transform="translate(70.272691, 25.238081) rotate(52.000000) translate(-70.272691, -25.238081) "></path>
                    <path d="M127.171591,17.8246626 C127.171591,11.8874589 127.473726,-18.7405475 132.307885,-18.7405475 C138.418659,-18.7405475 133.034269,-1.93366153 133.533209,6.45972928 C134.03215,14.8531201 143.652554,40.5923988 141.25795,44.8540129 C139.128525,48.6436974 135.065338,54.4097258 132.8217,53.7237782 C129.001452,52.5558134 127.171591,30.5590555 127.171591,17.8246626 Z" id="Rectangle-6-Copy" transform="translate(134.405876, 17.519632) rotate(73.000000) translate(-134.405876, -17.519632) "></path>
                    <path d="M105.954434,259.594491 C105.954434,253.657287 106.256569,223.02928 111.090728,223.02928 C117.201502,223.02928 111.817113,239.836166 112.316053,248.229557 C112.814993,256.622948 122.435397,282.362227 120.040794,286.623841 C117.911368,290.413525 113.848181,296.179554 111.604543,295.493606 C107.784295,294.325641 105.954434,272.328883 105.954434,259.594491 Z" id="Rectangle-6-Copy" transform="translate(113.188719, 259.289459) rotate(-70.000000) translate(-113.188719, -259.289459) "></path>
                    <path d="M55.3540004,163.545057 C55.3540004,156.76049 56.2706995,121.76123 70.9378852,121.76123 C89.4784155,121.76123 87.4384692,131.875117 87.4384692,143.918284 C87.4384692,153.211539 103.005088,194.372697 95.7396889,199.242533 C89.2788574,203.573084 81.27102,205.39727 74.6556094,205.39727 C63.0426727,205.39727 55.3540004,178.096913 55.3540004,163.545057 Z" id="Rectangle-6" transform="translate(76.512832, 163.579250) rotate(335.000000) translate(-76.512832, -163.579250) "></path>
                    <path d="M24.1338594,90.4572046 C24.1338594,87.7443653 24.559268,73.7497537 31.3658059,73.7497537 C39.9698302,73.7497537 39.0231611,77.793837 39.0231611,82.6093512 C39.0231611,86.3253013 46.247095,102.783775 42.8754725,104.731001 C39.8772222,106.462591 36.1610594,107.192 33.0910742,107.192 C27.7019086,107.192 24.1338594,96.2758296 24.1338594,90.4572046 Z" id="Rectangle-6" transform="translate(33.952948, 90.470877) rotate(385.000000) translate(-33.952948, -90.470877) "></path>
                    <path d="M199.332419,170.602018 C199.332419,165.820892 207.186645,153.42032 221.853831,153.42032 C240.394361,153.42032 232.867166,169.336428 232.867166,177.823322 C232.867166,184.372337 258.00751,202.438031 250.742111,205.869834 C244.28128,208.9216 236.273442,210.207115 229.658032,210.207115 C218.045095,210.207115 199.332419,180.856801 199.332419,170.602018 Z" id="Rectangle-6" transform="translate(225.696275, 181.813717) rotate(391.000000) translate(-225.696275, -181.813717) "></path>
                    <path d="M147.867317,158.259925 C144.068919,148.973731 142.006821,136.381877 153.967828,123.74891 C159.068748,118.361425 176.835989,122.088731 176.835989,128.372222 C176.835989,134.655712 171.559292,136.757088 168.01158,143.054968 C164.463867,149.352848 172.811484,156.956893 168.01158,163.950645 C165.319746,167.872811 151.665715,167.546119 147.867317,158.259925 Z" id="Rectangle-6" transform="translate(160.871633, 143.739727) rotate(335.000000) translate(-160.871633, -143.739727) "></path>
                    <path d="M10.0239601,192.826914 C8.77904648,183.54072 8.10319975,170.948866 12.0233847,158.315899 C13.6951961,152.928414 19.5183569,156.65572 19.5183569,162.93921 C19.5183568,169.2227 17.788935,171.324077 16.6261828,177.621957 C15.4634306,183.919837 18.1993373,191.523882 16.6261829,198.517634 C15.7439423,202.439799 11.2688738,202.113108 10.0239601,192.826914 Z" id="Rectangle-6" transform="translate(14.286086, 178.306716) rotate(335.000000) translate(-14.286086, -178.306716) "></path>
                </g>
            </g>
        </g>
    </g>
</svg>