<?xml version="1.0" encoding="UTF-8" standalone="no"?>
<svg width="1817px" height="650px" viewBox="0 0 1817 650" version="1.1" xmlns="http://www.w3.org/2000/svg" xmlns:xlink="http://www.w3.org/1999/xlink">
    <!-- Generator: Sketch 3.8.1 (29687) - http://www.bohemiancoding.com/sketch -->
    <title>Group</title>
    <desc>Created with Sketch.</desc>
    <defs>
        <linearGradient x1="50%" y1="50%" x2="66.3190636%" y2="50%" id="linearGradient-1">
            <stop stop-color="#57C2B2" offset="0%"></stop>
            <stop stop-color="#0499AA" offset="100%"></stop>
        </linearGradient>
        <linearGradient x1="42.5404037%" y1="73.1439552%" x2="53.2523174%" y2="73.1439531%" id="linearGradient-2">
            <stop stop-color="#57C2B2" offset="0%"></stop>
            <stop stop-color="#0499AA" offset="100%"></stop>
        </linearGradient>
        <linearGradient x1="0%" y1="54.930313%" x2="50%" y2="54.9303114%" id="linearGradient-3">
            <stop stop-color="#57C2B2" offset="0%"></stop>
            <stop stop-color="#0499AA" offset="100%"></stop>
        </linearGradient>
        <path d="M0.264,0.636 C1.258,0.67 2.097,0.542 2.8,0.319 C2.8,0.319 0.301,0.631 0.264,0.636 L0.264,0.636 Z" id="path-4"></path>
        <polygon id="path-6" points="0 1170 1856.969 1170 1856.969 0.1 0 0.1"></polygon>
        <path d="M1.20996488,23.2162801 C1.19335333,23.2162802 1.1770199,23.2155362 1.161,23.214 L1.159,23.183 L1.211,23.191 L0.625,0.59 L0.621,0.591 C0.957,0.459 1.427,0.349 2.066,0.349 C2.769,0.349 3.674,0.482 4.827,0.863 L4.819,0.732 C4.945,0.719 5.654,1.079 6.442,1.498 C7.162,1.822 7.955,2.229 8.828,2.734 L8.828,2.735 C9.261,2.985 9.712,3.259 10.184,3.561 C11.031,3.978 12.038,4.405 12.578,4.626 C13.643,4.942 14.936,5.119 15.975,4.64 C15.975,4.64 18.998,4.324 20.446,4.841 C20.378,4.817 22.115,5.296 24.621,7.828 L24.621,7.827 C24.637,7.845 24.654,7.861 24.67,7.877 C24.693,7.901 24.715,7.925 24.739,7.946 C25.337,8.526 26.053,8.772 26.603,8.874 C27.295,8.998 28.179,8.982 29.207,8.582 C29.296,8.558 33.303,6.571 36.401,8.503 C36.218,8.553 33.273,9.161 31.176,11.353 C31.176,11.353 30.409,13.49 27.801,14.319 L27.804,14.316 C27.804,14.316 25.301,14.631 25.264,14.636 L25.262,14.636 C24.806,14.62 24.317,14.57 23.794,14.479 C23.794,14.479 21.644,13.595 17.752,17.217 C17.736,17.233 16.574,18.866 14.063,19.811 C14.069,19.843 14.079,19.856 14.079,19.856 C14.037,19.88 13.836,19.927 13.557,19.985 C12.817,20.219 11.973,20.387 11.023,20.445 C11.016,20.446 11.008,20.447 11.008,20.447 L11.001,20.446 C10.295,20.487 9.531,20.467 8.707,20.366 C7.053,20.413 6.108,20.681 6.003,20.713 C5.102,21.031 3.946,21.579 2.502,22.506 C2.502,22.506 1.72322544,23.2162799 1.20996489,23.2162801 L1.2099648,23.2162801 L1.20996488,23.2162801 Z" id="path-8"></path>
    </defs>
    <g id="Page-1" stroke="none" stroke-width="1" fill="none" fill-rule="evenodd">
        <g id="Group" transform="translate(-20.000000, -286.000000)">
            <path d="M1532.5353,855.387 L1532.5353,376.72 L1532.5353,855.387 Z" id="Fill-1" fill="#181817"></path>
            <path d="M1532.5349,376.7206 L1532.5349,855.3876" id="Stroke-2" stroke="#526093"></path>
            <polygon id="Fill-3" fill="url(#linearGradient-1)" points="440.611 890.135 1072.889 890.135 752.506 444.57"></polygon>
            <polygon id="Fill-5" fill="#F5F4F2" points="752.1214 444.5697 752.1214 898.6217 435.7914 896.4697"></polygon>
            <polygon id="Fill-6" fill="url(#linearGradient-2)" points="116.264 891.196 1230.177 891.196 945.864 426.535 701.864 778.744 568.194 604.761 445.133 780.865 241.446 409.561 84.437 889.074"></polygon>
            <polygon id="Fill-8" fill="url(#linearGradient-3)" points="241.446 409.561 241.446 893.318 504.542 891.196"></polygon>
            <polygon id="Fill-10" fill="#F5F4F2" points="944.8027 425.474 944.8027 892.957 621.2377 894.025"></polygon>
            <polygon id="Fill-11" fill="#F5F4F2" points="568.194 604.761 568.194 894.347 351.777 896.5"></polygon>
            <polygon id="Fill-12" fill="#F5F4F2" points="241.4461 408.5002 241.4461 893.3172 20.7851 893.3172"></polygon>
            <polygon id="Fill-13" fill="#181817" points="1473.165 913.56 1573.66 913.56 1573.66 375.087 1473.165 375.087"></polygon>
            <path d="M1470.5352,854.0541 L1470.5352,375.3871 L1470.5352,854.0541 Z" id="Fill-14" fill="#181817"></path>
            <path d="M1470.5349,375.3872 L1470.5349,854.0542" id="Stroke-15" stroke="#57BAA5"></path>
            <path d="M1482.8058,853.8246 L1482.8058,375.1576 L1482.8058,853.8246 Z" id="Fill-16" fill="#181817"></path>
            <path d="M1482.8058,375.1581 L1482.8058,853.8251" id="Stroke-17" stroke="#57BAA5"></path>
            <path d="M1494.5345,854.0541 L1494.5345,375.3871 L1494.5345,854.0541 Z" id="Fill-18" fill="#181817"></path>
            <path d="M1494.5349,375.3872 L1494.5349,854.0542" id="Stroke-19" stroke="#57BAA5"></path>
            <path d="M1506.8682,854.0541 L1506.8682,375.3871 L1506.8682,854.0541 Z" id="Fill-20" fill="#181817"></path>
            <path d="M1506.8683,375.3872 L1506.8683,854.0542" id="Stroke-21" stroke="#57BAA5"></path>
            <path d="M1519.2018,853.7202 L1519.2018,375.0542 L1519.2018,853.7202 Z" id="Fill-22" fill="#181817"></path>
            <path d="M1519.2017,375.0539 L1519.2017,853.7209" id="Stroke-23" stroke="#57BAA5"></path>
            <g id="Group-56" transform="translate(1176.000000, 285.900000)">
                <path d="M101.3262,102.1987 L101.0172,97.7997 C101.0172,97.7997 103.9852,92.8917 103.9902,92.0257 C77.9342,84.5117 55.2212,94.0747 55.2212,94.0747 L59.7222,99.5877 L60.4092,104.6667 C55.3932,104.7417 29.2602,116.8247 29.2602,116.8247 L140.1512,117.8887 C140.1512,117.8887 137.4922,115.2297 136.1252,114.5507 C131.8322,110.6817 101.3262,102.1987 101.3262,102.1987" id="Fill-24" fill="#F1EEEA"></path>
                <path d="M85.6548,82.3083 L84.3068,78.2653 L77.3928,78.2653 C77.3928,78.2653 75.7968,84.3813 75.5308,84.3813 C67.0678,86.1103 60.9048,91.0293 60.9048,91.0293 C87.7638,84.9133 103.9898,92.0253 103.9898,92.0253 C99.7398,87.1713 85.6548,82.3083 85.6548,82.3083" id="Fill-26" fill="#1A1918"></path>
                <polygon id="Fill-28" fill="#9F8465" points="78.9883 77.7336 84.3063 78.2656 80.5843 0.3486"></polygon>
                <path d="M151.0543,125.866 C151.0543,125.6 148.9273,118.952 140.1513,117.888 C141.2153,118.42 28.3923,117.153 28.3923,117.153 C28.3923,117.153 21.0723,116.678 13.0663,125.66 C12.2403,126.664 148.6613,127.994 151.0543,125.866" id="Fill-30" fill="#1A1918"></path>
                <path d="M151.0543,130.121 C105.3153,124.537 11.7093,133.578 11.4433,133.312 C-12.7567,134.376 10.9113,139.96 11.1773,139.694 C25.0053,139.428 24.7393,149.534 24.7393,149.534 C37.5183,143.805 110.5353,147.022 134.8993,148.142 C138.1413,148.235 140.0163,148.268 140.0363,148.195 C140.2183,148.264 140.3693,148.331 140.5433,148.399 C142.0483,148.465 142.8583,148.494 142.8103,148.47 C149.5823,139.116 153.9793,139.428 153.7133,139.694 C177.9133,128.791 151.3203,129.855 151.0543,130.121" id="Fill-32" fill="#F1EEEA"></path>
                <path d="M134.8993,148.1415 C114.1063,147.5435 36.5763,144.4655 24.3013,150.8865 C24.3013,150.8865 4.7953,151.3945 23.9413,159.3725 C24.0913,159.3725 47.1653,162.9975 73.9473,164.0765 L73.5873,158.6525 L77.1273,157.7775 C77.1273,157.7775 77.2983,160.1895 77.5883,164.2055 C88.6123,164.5465 100.1043,164.4195 110.7743,163.4085 L111.6973,157.7775 L119.1433,159.6385 L118.7743,162.4555 C124.2673,161.6505 129.4233,160.5565 134.0353,159.1075 C134.2983,159.6335 157.7693,155.1885 140.5433,148.3995 C140.3693,148.3305 140.2183,148.2635 140.0363,148.1955 C140.0163,148.2685 138.1413,148.2345 134.8993,148.1415" id="Fill-34" fill="#1A1918"></path>
                <polygon id="Fill-36" fill="#11110F" points="89.2399 500.97 83.7749 408.812 79.9619 254.877 73.9789 164.551 71.8079 164.425 71.5419 241.81 72.0739 329.832 61.2079 505.414 61.4369 503.947"></polygon>
                <polygon id="Fill-38" fill="#11110F" points="100.5283 594.4291 100.7353 600.3241 109.6093 600.2801 109.0613 593.1851"></polygon>
                <polygon id="Fill-40" fill="#11110F" points="89.9771 515.0492 60.6281 514.7932 56.9901 573.5672 55.4111 600.5452 94.3601 600.3552 92.5501 570.4952"></polygon>
                <path d="M77.6282,164.7601 C79.1462,185.7741 83.6402,247.0111 84.4932,247.2911 C91.0612,265.5371 97.0152,247.3891 97.0152,247.3891 L94.9442,165.7551 L77.6282,164.7601 Z" id="Fill-42" fill="#11110F"></path>
                <path d="M104.3477,502.6685 L97.8687,504.5455 L93.6477,472.5305 L101.1727,471.2615 L104.3477,502.6685 Z M105.2997,546.6635 L97.1527,545.0055 L95.5607,514.5845 L103.1877,514.3845 L105.2997,546.6635 Z M107.6817,585.6435 L99.6167,585.9625 L98.9327,553.7415 L106.3787,553.2105 L107.6817,585.6435 Z M92.0187,430.6175 L99.5367,430.8475 L102.3897,462.7955 L94.0987,464.4105 L92.0187,430.6175 Z M93.0827,387.5375 L97.7037,423.4395 L92.5507,420.7785 L93.0827,387.5375 Z M111.6977,157.7775 L110.7747,163.4085 L97.0147,247.3895 C97.0147,247.3895 91.0617,265.5375 84.4927,247.2915 C83.6407,247.0115 79.1457,185.7745 77.6287,164.7605 C77.6147,164.5685 77.6017,164.3905 77.5877,164.2055 C77.2987,160.1895 77.1267,157.7775 77.1267,157.7775 L73.5877,158.6525 L73.9467,164.0765 L73.9787,164.5505 L79.9627,254.8775 L83.7747,408.8125 L89.2397,500.9705 L61.4367,503.9475 L61.2077,505.4135 L60.8417,507.7585 L60.9057,506.6725 L67.5537,391.7925 L71.0107,311.4835 L71.0107,257.2335 L53.9917,164.1595 L44.0837,163.4345 C44.0837,163.4345 59.8417,234.0985 60.3737,248.9905 L64.6287,327.1725 C64.6287,327.1725 65.5637,382.0865 63.4997,391.4605 C62.8997,391.4055 51.8877,504.8165 51.8877,504.8165 L42.2907,610.3845 L54.7887,611.1825 L55.4117,600.5445 L56.9907,573.5675 L60.4297,514.7915 L60.6277,514.7925 L89.9767,515.0495 L92.5507,570.4955 L94.3607,600.3545 L94.9967,610.8455 L101.0607,609.5865 L100.7357,600.3235 L100.5287,594.4295 L109.0617,593.1845 L109.6097,600.2805 L110.1017,606.6615 L118.8777,605.3315 L111.1397,513.4635 L113.7587,511.6485 L116.7497,572.0905 L118.0797,582.1955 L120.4727,509.3325 L110.1017,383.2835 L105.0487,358.8175 L103.7197,292.6015 L105.5807,255.9045 L114.0907,198.1985 L118.7747,162.4555 L119.1437,159.6385 L111.6977,157.7775 Z" id="Fill-44" fill="#F1EEEA"></path>
                <polygon id="Fill-46" fill="#11110F" points="93.0824 387.5377 92.5504 420.7787 97.7034 423.4387"></polygon>
                <polygon id="Fill-48" fill="#11110F" points="102.3898 462.795 99.5368 430.848 92.0188 430.618 94.0988 464.41"></polygon>
                <polygon id="Fill-50" fill="#11110F" points="93.6472 472.5305 97.8692 504.5455 104.3472 502.6685 101.1732 471.2615"></polygon>
                <polygon id="Fill-52" fill="#11110F" points="95.5608 514.5845 97.1528 545.0055 105.2998 546.6635 103.1878 514.3845"></polygon>
                <polygon id="Fill-54" fill="#11110F" points="99.6171 585.9628 107.6821 585.6438 106.3791 553.2098 98.9331 553.7418"></polygon>
            </g>
            <g id="Group-59" transform="translate(1282.000000, 299.900000)">
                <mask id="mask-5" fill="white">
                    <use xlink:href="#path-4"></use>
                </mask>
                <g id="Clip-58"></g>
                <path d="M0.264,0.636 C1.258,0.67 2.097,0.542 2.8,0.319 L2.8,0.319 C2.8,0.319 0.301,0.631 0.264,0.636" id="Fill-57" mask="url(#mask-5)"></path>
            </g>
            <g id="Group-407" transform="translate(0.000000, 0.900000)">
                <polygon id="Fill-63" fill="#BA9043" points="1256.646 285.6013 1256.646 285.6103 1256.692 285.6013"></polygon>
                <mask id="mask-7" fill="white">
                    <use xlink:href="#path-6"></use>
                </mask>
                <g id="Clip-66"></g>
                <polygon id="Fill-65" fill="#52524F" mask="url(#mask-7)" points="1321.012 934.908 1393.669 934.908 1393.669 450.683 1321.012 450.683"></polygon>
                <polygon id="Fill-67" fill="#393937" mask="url(#mask-7)" points="1390.67 934.908 1463.326 934.908 1463.326 450.683 1390.67 450.683"></polygon>
                <path d="M1329.3689,483.3467 L1402.0249,483.3467" id="Stroke-68" stroke="#983F79" stroke-width="3" mask="url(#mask-7)"></path>
                <path d="M1330.7822,463.405 L1403.4392,463.405" id="Stroke-69" stroke="#983F79" stroke-width="3" mask="url(#mask-7)"></path>
                <path d="M1329.2662,499.8453 L1401.9222,499.8453" id="Stroke-70" stroke="#983F79" stroke-width="3" mask="url(#mask-7)"></path>
                <path d="M1329.4202,517.7354 L1402.0762,517.7354" id="Stroke-71" stroke="#983F79" stroke-width="3" mask="url(#mask-7)"></path>
                <path d="M1329.2662,535.9236 L1401.9222,535.9236" id="Stroke-72" stroke="#983F79" stroke-width="3" mask="url(#mask-7)"></path>
                <path d="M1329.2662,554.1119 L1401.9222,554.1119" id="Stroke-73" stroke="#D6256A" stroke-width="3" mask="url(#mask-7)"></path>
                <path d="M1329.728,571.7038 L1402.384,571.7038" id="Stroke-74" stroke="#D6256A" stroke-width="3" mask="url(#mask-7)"></path>
                <path d="M1329.728,590.7865 L1402.384,590.7865" id="Stroke-75" stroke="#D6256A" stroke-width="3" mask="url(#mask-7)"></path>
                <path d="M1329.882,608.3784 L1402.538,608.3784" id="Stroke-76" stroke="#D6256A" stroke-width="3" mask="url(#mask-7)"></path>
                <path d="M1329.4202,628.0575 L1402.0762,628.0575" id="Stroke-77" stroke="#D6256A" stroke-width="3" mask="url(#mask-7)"></path>
                <path d="M1329.728,646.842 L1402.384,646.842" id="Stroke-78" stroke="#D6256A" stroke-width="3" mask="url(#mask-7)"></path>
                <path d="M1329.882,669.2047 L1402.538,669.2047" id="Stroke-79" stroke="#D6256A" stroke-width="3" mask="url(#mask-7)"></path>
                <path d="M1329.2662,691.5673 L1401.9222,691.5673" id="Stroke-80" stroke="#D6256A" stroke-width="3" mask="url(#mask-7)"></path>
                <path d="M1329.5741,712.7372 L1402.2301,712.7372" id="Stroke-81" stroke="#D6256A" stroke-width="3" mask="url(#mask-7)"></path>
                <path d="M1329.728,735.0998 L1402.384,735.0998" id="Stroke-82" stroke="#D6256A" stroke-width="3" mask="url(#mask-7)"></path>
                <path d="M1329.4202,756.2697 L1402.0762,756.2697" id="Stroke-83" stroke="#D6256A" stroke-width="3" mask="url(#mask-7)"></path>
                <path d="M1329.4202,778.6323 L1402.0762,778.6323" id="Stroke-84" stroke="#D6256A" stroke-width="3" mask="url(#mask-7)"></path>
                <path d="M1329.882,800.1003 L1402.538,800.1003" id="Stroke-85" stroke="#D6256A" stroke-width="3" mask="url(#mask-7)"></path>
                <path d="M1329.5741,821.8666 L1402.2301,821.8666" id="Stroke-86" stroke="#D6256A" stroke-width="3" mask="url(#mask-7)"></path>
                <path d="M1329.728,846.3163 L1402.384,846.3163" id="Stroke-87" stroke="#D6256A" stroke-width="3" mask="url(#mask-7)"></path>
                <path d="M1814.172,674.077 L1824.72,674.077 L1824.72,656.077 L1814.172,656.077 L1814.172,674.077 Z M1813.607,754.494 L1824.155,754.494 L1824.155,739.327 L1813.607,739.327 L1813.607,754.494 Z M1813.607,810.41 L1824.155,810.41 L1824.155,795.077 L1813.607,795.077 L1813.607,810.41 Z M1813.325,838.827 L1823.873,838.827 L1823.873,820.827 L1813.325,820.827 L1813.325,838.827 Z M1813.042,783.827 L1823.59,783.827 L1823.59,765.827 L1813.042,765.827 L1813.042,783.827 Z M1812.76,514.827 L1823.308,514.827 L1823.308,496.827 L1812.76,496.827 L1812.76,514.827 Z M1794.678,674.077 L1805.226,674.077 L1805.226,656.077 L1794.678,656.077 L1794.678,674.077 Z M1794.113,754.494 L1804.661,754.494 L1804.661,739.327 L1794.113,739.327 L1794.113,754.494 Z M1794.113,810.41 L1804.661,810.41 L1804.661,795.077 L1794.113,795.077 L1794.113,810.41 Z M1793.831,838.827 L1804.379,838.827 L1804.379,820.827 L1793.831,820.827 L1793.831,838.827 Z M1793.549,783.827 L1804.097,783.827 L1804.097,765.827 L1793.549,765.827 L1793.549,783.827 Z M1793.266,514.827 L1803.814,514.827 L1803.814,496.827 L1793.266,496.827 L1793.266,514.827 Z M1776.879,674.077 L1787.427,674.077 L1787.427,656.077 L1776.879,656.077 L1776.879,674.077 Z M1776.314,754.494 L1786.862,754.494 L1786.862,739.327 L1776.314,739.327 L1776.314,754.494 Z M1776.314,810.41 L1786.862,810.41 L1786.862,795.077 L1776.314,795.077 L1776.314,810.41 Z M1776.032,838.827 L1786.58,838.827 L1786.58,820.827 L1776.032,820.827 L1776.032,838.827 Z M1775.75,783.827 L1786.298,783.827 L1786.298,765.827 L1775.75,765.827 L1775.75,783.827 Z M1758.46,674.077 L1769.007,674.077 L1769.007,656.077 L1758.46,656.077 L1758.46,674.077 Z M1757.895,754.494 L1768.442,754.494 L1768.442,739.327 L1757.895,739.327 L1757.895,754.494 Z M1757.895,810.41 L1768.442,810.41 L1768.442,795.077 L1757.895,795.077 L1757.895,810.41 Z M1757.612,838.827 L1768.159,838.827 L1768.159,820.827 L1757.612,820.827 L1757.612,838.827 Z M1757.329,783.827 L1767.876,783.827 L1767.876,765.827 L1757.329,765.827 L1757.329,783.827 Z M1740.04,674.077 L1750.587,674.077 L1750.587,656.077 L1740.04,656.077 L1740.04,674.077 Z M1739.475,754.494 L1750.022,754.494 L1750.022,739.327 L1739.475,739.327 L1739.475,754.494 Z M1739.475,810.41 L1750.022,810.41 L1750.022,795.077 L1739.475,795.077 L1739.475,810.41 Z M1739.192,838.827 L1749.739,838.827 L1749.739,820.827 L1739.192,820.827 L1739.192,838.827 Z M1738.909,783.827 L1749.456,783.827 L1749.456,765.827 L1738.909,765.827 L1738.909,783.827 Z M1739.192,727.577 L1749.739,727.577 L1749.739,709.577 L1739.192,709.577 L1739.192,727.577 Z M1738.909,698.327 L1749.456,698.327 L1749.456,684.327 L1738.909,684.327 L1738.909,698.327 Z M1757.612,727.577 L1768.159,727.577 L1768.159,709.577 L1757.612,709.577 L1757.612,727.577 Z M1757.329,698.327 L1767.876,698.327 L1767.876,684.327 L1757.329,684.327 L1757.329,698.327 Z M1758.177,645.744 L1768.724,645.744 L1768.724,631.077 L1758.177,631.077 L1758.177,645.744 Z M1758.177,620.327 L1768.724,620.327 L1768.724,602.327 L1758.177,602.327 L1758.177,620.327 Z M1776.032,727.577 L1786.58,727.577 L1786.58,709.577 L1776.032,709.577 L1776.032,727.577 Z M1775.75,698.327 L1786.298,698.327 L1786.298,684.327 L1775.75,684.327 L1775.75,698.327 Z M1776.315,567.077 L1786.863,567.077 L1786.863,549.077 L1776.315,549.077 L1776.315,567.077 Z M1776.597,592.327 L1787.145,592.327 L1787.145,577.327 L1776.597,577.327 L1776.597,592.327 Z M1776.597,645.744 L1787.145,645.744 L1787.145,631.077 L1776.597,631.077 L1776.597,645.744 Z M1776.597,620.327 L1787.145,620.327 L1787.145,602.327 L1776.597,602.327 L1776.597,620.327 Z M1793.548,538.827 L1804.096,538.827 L1804.096,523.827 L1793.548,523.827 L1793.548,538.827 Z M1794.113,567.077 L1804.661,567.077 L1804.661,549.077 L1794.113,549.077 L1794.113,567.077 Z M1794.396,592.327 L1804.944,592.327 L1804.944,577.327 L1794.396,577.327 L1794.396,592.327 Z M1794.396,645.744 L1804.944,645.744 L1804.944,631.077 L1794.396,631.077 L1794.396,645.744 Z M1794.396,620.327 L1804.944,620.327 L1804.944,602.327 L1794.396,602.327 L1794.396,620.327 Z M1793.831,727.577 L1804.379,727.577 L1804.379,709.577 L1793.831,709.577 L1793.831,727.577 Z M1793.548,698.327 L1804.096,698.327 L1804.096,684.327 L1793.548,684.327 L1793.548,698.327 Z M1813.042,486.077 L1823.59,486.077 L1823.59,471.077 L1813.042,471.077 L1813.042,486.077 Z M1813.325,460.827 L1823.873,460.827 L1823.873,442.827 L1813.325,442.827 L1813.325,460.827 Z M1813.042,538.827 L1823.59,538.827 L1823.59,523.827 L1813.042,523.827 L1813.042,538.827 Z M1813.607,567.077 L1824.155,567.077 L1824.155,549.077 L1813.607,549.077 L1813.607,567.077 Z M1813.89,592.327 L1824.438,592.327 L1824.438,577.327 L1813.89,577.327 L1813.89,592.327 Z M1813.89,645.744 L1824.438,645.744 L1824.438,631.077 L1813.89,631.077 L1813.89,645.744 Z M1813.89,620.327 L1824.438,620.327 L1824.438,602.327 L1813.89,602.327 L1813.89,620.327 Z M1813.325,727.577 L1823.873,727.577 L1823.873,709.577 L1813.325,709.577 L1813.325,727.577 Z M1813.042,698.327 L1823.59,698.327 L1823.59,684.327 L1813.042,684.327 L1813.042,698.327 Z M1721.054,754.494 L1731.601,754.494 L1731.601,739.327 L1721.054,739.327 L1721.054,754.494 Z M1721.054,810.41 L1731.601,810.41 L1731.601,795.077 L1721.054,795.077 L1721.054,810.41 Z M1720.772,838.827 L1731.319,838.827 L1731.319,820.827 L1720.772,820.827 L1720.772,838.827 Z M1720.489,783.827 L1731.036,783.827 L1731.036,765.827 L1720.489,765.827 L1720.489,783.827 Z M1720.771,727.577 L1731.318,727.577 L1731.318,709.577 L1720.771,709.577 L1720.771,727.577 Z M1702.634,810.41 L1713.181,810.41 L1713.181,795.077 L1702.634,795.077 L1702.634,810.41 Z M1702.351,838.827 L1712.898,838.827 L1712.898,820.827 L1702.351,820.827 L1702.351,838.827 Z M1702.068,783.827 L1712.615,783.827 L1712.615,765.827 L1702.068,765.827 L1702.068,783.827 Z M1683.93,838.827 L1694.478,838.827 L1694.478,820.827 L1683.93,820.827 L1683.93,838.827 Z M1734.408,434.233 L1728.381,420.233 L1780.364,419.567 L1772.83,433.9 L1734.408,434.233 Z M1741.753,416.233 L1742.883,416.233 L1742.883,385.733 L1741.753,385.733 L1741.753,416.233 Z M1748.157,414.567 L1748.157,385.9 L1748.157,414.567 Z M1748.471,416.233 L1749.601,416.233 L1749.601,385.733 L1748.471,385.733 L1748.471,416.233 Z M1755.189,416.233 L1756.319,416.233 L1756.319,385.733 L1755.189,385.733 L1755.189,416.233 Z M1761.906,416.233 L1763.036,416.233 L1763.036,385.733 L1761.906,385.733 L1761.906,416.233 Z M1800.588,432.277 L1800.588,405.278 L1779.611,405.278 L1779.611,389.233 L1770.57,378.233 L1737.798,378.233 L1725.367,390.233 L1725.367,405.233 L1727.79,405.278 L1705.666,405.278 L1705.666,432.277 L1671.765,432.277 L1671.765,741.116 L1673.383,443.233 L1683.931,443.12 L1683.931,442.827 L1694.478,442.827 L1694.478,443.007 L1702.351,442.922 L1702.351,442.827 L1711.226,442.827 L1804.379,441.827 L1804.059,442.827 L1804.379,442.827 L1804.379,460.827 L1798.313,460.827 L1795.041,471.077 L1804.096,471.077 L1804.096,486.077 L1793.549,486.077 L1793.549,475.751 L1786.015,499.349 L1786.015,514.827 L1781.074,514.827 L1778.2,523.827 L1786.297,523.827 L1786.297,538.827 L1775.75,538.827 L1775.75,531.503 L1768.442,554.394 L1768.442,567.077 L1764.393,567.077 L1761.121,577.327 L1768.724,577.327 L1768.724,592.327 L1758.177,592.327 L1758.177,586.548 L1750.304,611.208 L1750.304,620.327 L1747.393,620.327 L1743.961,631.077 L1750.304,631.077 L1750.304,645.744 L1739.757,645.744 L1739.757,644.247 L1732.166,668.023 L1732.166,674.077 L1730.234,674.077 L1726.961,684.327 L1731.036,684.327 L1731.036,698.327 L1722.492,698.327 L1709.403,739.327 L1713.181,739.327 L1713.181,754.494 L1704.561,754.494 L1691.605,795.077 L1694.761,795.077 L1694.761,810.41 L1686.71,810.41 L1671.765,857.223 L1671.765,904.753 L1836.183,904.753 L1836.183,432.277 L1800.588,432.277 Z" id="Fill-88" fill="#F5F4F2" mask="url(#mask-7)"></path>
                <polygon id="Fill-89" fill="#7C7D7A" mask="url(#mask-7)" points="1780.3644 419.5665 1728.3804 420.2335 1734.4074 434.2335 1772.8304 433.8995"></polygon>
                <polygon id="Fill-90" fill="#FFFFFF" mask="url(#mask-7)" points="1694.4781 442.827 1683.9301 442.827 1683.9301 443.12 1694.4781 443.007"></polygon>
                <polygon id="Fill-91" fill="#FFFFFF" mask="url(#mask-7)" points="1702.351 442.827 1702.351 442.922 1711.226 442.827"></polygon>
                <polygon id="Fill-92" fill="#FFFFFF" mask="url(#mask-7)" points="1804.3787 460.827 1804.3787 442.827 1804.0597 442.827 1798.3127 460.827"></polygon>
                <polygon id="Fill-93" fill="#FFFFFF" mask="url(#mask-7)" points="1813.325 460.827 1823.873 460.827 1823.873 442.827 1813.325 442.827"></polygon>
                <polygon id="Fill-94" fill="#FFFFFF" mask="url(#mask-7)" points="1793.5486 486.077 1804.0966 486.077 1804.0966 471.077 1795.0406 471.077 1793.5486 475.751"></polygon>
                <polygon id="Fill-95" fill="#FFFFFF" mask="url(#mask-7)" points="1813.042 486.077 1823.59 486.077 1823.59 471.077 1813.042 471.077"></polygon>
                <polygon id="Fill-96" fill="#FFFFFF" mask="url(#mask-7)" points="1786.0149 514.827 1786.0149 499.349 1781.0739 514.827"></polygon>
                <polygon id="Fill-97" fill="#FFFFFF" mask="url(#mask-7)" points="1793.266 514.827 1803.814 514.827 1803.814 496.827 1793.266 496.827"></polygon>
                <polygon id="Fill-98" fill="#FFFFFF" mask="url(#mask-7)" points="1812.76 514.827 1823.308 514.827 1823.308 496.827 1812.76 496.827"></polygon>
                <polygon id="Fill-99" fill="#FFFFFF" mask="url(#mask-7)" points="1775.7498 538.827 1786.2978 538.827 1786.2978 523.827 1778.2008 523.827 1775.7498 531.503"></polygon>
                <polygon id="Fill-100" fill="#FFFFFF" mask="url(#mask-7)" points="1793.549 538.827 1804.097 538.827 1804.097 523.827 1793.549 523.827"></polygon>
                <polygon id="Fill-101" fill="#FFFFFF" mask="url(#mask-7)" points="1813.042 538.827 1823.59 538.827 1823.59 523.827 1813.042 523.827"></polygon>
                <polygon id="Fill-102" fill="#FFFFFF" mask="url(#mask-7)" points="1768.442 567.077 1768.442 554.394 1764.393 567.077"></polygon>
                <polygon id="Fill-103" fill="#FFFFFF" mask="url(#mask-7)" points="1776.314 567.077 1786.862 567.077 1786.862 549.077 1776.314 549.077"></polygon>
                <polygon id="Fill-104" fill="#FFFFFF" mask="url(#mask-7)" points="1794.114 567.077 1804.662 567.077 1804.662 549.077 1794.114 549.077"></polygon>
                <polygon id="Fill-105" fill="#FFFFFF" mask="url(#mask-7)" points="1813.608 567.077 1824.156 567.077 1824.156 549.077 1813.608 549.077"></polygon>
                <polygon id="Fill-106" fill="#FFFFFF" mask="url(#mask-7)" points="1758.177 592.327 1768.724 592.327 1768.724 577.327 1761.121 577.327 1758.177 586.548"></polygon>
                <polygon id="Fill-107" fill="#FFFFFF" mask="url(#mask-7)" points="1776.597 592.327 1787.145 592.327 1787.145 577.327 1776.597 577.327"></polygon>
                <polygon id="Fill-108" fill="#FFFFFF" mask="url(#mask-7)" points="1794.396 592.327 1804.944 592.327 1804.944 577.327 1794.396 577.327"></polygon>
                <polygon id="Fill-109" fill="#FFFFFF" mask="url(#mask-7)" points="1813.89 592.327 1824.438 592.327 1824.438 577.327 1813.89 577.327"></polygon>
                <polygon id="Fill-110" fill="#FFFFFF" mask="url(#mask-7)" points="1750.3041 620.327 1750.3041 611.208 1747.3931 620.327"></polygon>
                <polygon id="Fill-111" fill="#FFFFFF" mask="url(#mask-7)" points="1758.177 620.327 1768.724 620.327 1768.724 602.327 1758.177 602.327"></polygon>
                <polygon id="Fill-112" fill="#FFFFFF" mask="url(#mask-7)" points="1776.597 620.327 1787.145 620.327 1787.145 602.327 1776.597 602.327"></polygon>
                <polygon id="Fill-113" fill="#FFFFFF" mask="url(#mask-7)" points="1794.396 620.327 1804.944 620.327 1804.944 602.327 1794.396 602.327"></polygon>
                <polygon id="Fill-114" fill="#FFFFFF" mask="url(#mask-7)" points="1813.89 620.327 1824.438 620.327 1824.438 602.327 1813.89 602.327"></polygon>
                <polygon id="Fill-115" fill="#FFFFFF" mask="url(#mask-7)" points="1739.7567 645.7435 1750.3037 645.7435 1750.3037 631.0765 1743.9607 631.0765 1739.7567 644.2465"></polygon>
                <polygon id="Fill-116" fill="#FFFFFF" mask="url(#mask-7)" points="1758.177 645.744 1768.724 645.744 1768.724 631.077 1758.177 631.077"></polygon>
                <polygon id="Fill-117" fill="#FFFFFF" mask="url(#mask-7)" points="1776.597 645.744 1787.145 645.744 1787.145 631.077 1776.597 631.077"></polygon>
                <polygon id="Fill-118" fill="#FFFFFF" mask="url(#mask-7)" points="1794.396 645.744 1804.944 645.744 1804.944 631.077 1794.396 631.077"></polygon>
                <polygon id="Fill-119" fill="#FFFFFF" mask="url(#mask-7)" points="1813.89 645.744 1824.438 645.744 1824.438 631.077 1813.89 631.077"></polygon>
                <polygon id="Fill-120" fill="#FFFFFF" mask="url(#mask-7)" points="1732.1663 674.0771 1732.1663 668.0231 1730.2333 674.0771"></polygon>
                <polygon id="Fill-121" fill="#FFFFFF" mask="url(#mask-7)" points="1740.039 674.077 1750.586 674.077 1750.586 656.077 1740.039 656.077"></polygon>
                <polygon id="Fill-122" fill="#FFFFFF" mask="url(#mask-7)" points="1758.46 674.077 1769.007 674.077 1769.007 656.077 1758.46 656.077"></polygon>
                <polygon id="Fill-123" fill="#FFFFFF" mask="url(#mask-7)" points="1776.88 674.077 1787.428 674.077 1787.428 656.077 1776.88 656.077"></polygon>
                <polygon id="Fill-124" fill="#FFFFFF" mask="url(#mask-7)" points="1794.679 674.077 1805.227 674.077 1805.227 656.077 1794.679 656.077"></polygon>
                <polygon id="Fill-125" fill="#FFFFFF" mask="url(#mask-7)" points="1814.173 674.077 1824.721 674.077 1824.721 656.077 1814.173 656.077"></polygon>
                <polygon id="Fill-126" fill="#FFFFFF" mask="url(#mask-7)" points="1731.0361 698.3271 1731.0361 684.3271 1726.9611 684.3271 1722.4921 698.3271"></polygon>
                <polygon id="Fill-127" fill="#FFFFFF" mask="url(#mask-7)" points="1738.91 698.327 1749.457 698.327 1749.457 684.327 1738.91 684.327"></polygon>
                <polygon id="Fill-128" fill="#FFFFFF" mask="url(#mask-7)" points="1757.33 698.327 1767.877 698.327 1767.877 684.327 1757.33 684.327"></polygon>
                <polygon id="Fill-129" fill="#FFFFFF" mask="url(#mask-7)" points="1775.749 698.327 1786.297 698.327 1786.297 684.327 1775.749 684.327"></polygon>
                <polygon id="Fill-130" fill="#FFFFFF" mask="url(#mask-7)" points="1793.549 698.327 1804.097 698.327 1804.097 684.327 1793.549 684.327"></polygon>
                <polygon id="Fill-131" fill="#FFFFFF" mask="url(#mask-7)" points="1813.042 698.327 1823.59 698.327 1823.59 684.327 1813.042 684.327"></polygon>
                <polygon id="Fill-132" fill="#FFFFFF" mask="url(#mask-7)" points="1720.772 727.577 1731.319 727.577 1731.319 709.577 1720.772 709.577"></polygon>
                <polygon id="Fill-133" fill="#FFFFFF" mask="url(#mask-7)" points="1739.192 727.577 1749.739 727.577 1749.739 709.577 1739.192 709.577"></polygon>
                <polygon id="Fill-134" fill="#FFFFFF" mask="url(#mask-7)" points="1757.612 727.577 1768.159 727.577 1768.159 709.577 1757.612 709.577"></polygon>
                <polygon id="Fill-135" fill="#FFFFFF" mask="url(#mask-7)" points="1776.032 727.577 1786.58 727.577 1786.58 709.577 1776.032 709.577"></polygon>
                <polygon id="Fill-136" fill="#FFFFFF" mask="url(#mask-7)" points="1793.831 727.577 1804.379 727.577 1804.379 709.577 1793.831 709.577"></polygon>
                <polygon id="Fill-137" fill="#FFFFFF" mask="url(#mask-7)" points="1813.325 727.577 1823.873 727.577 1823.873 709.577 1813.325 709.577"></polygon>
                <polygon id="Fill-138" fill="#FFFFFF" mask="url(#mask-7)" points="1713.1809 754.4936 1713.1809 739.3266 1709.4029 739.3266 1704.5609 754.4936"></polygon>
                <polygon id="Fill-139" fill="#FFFFFF" mask="url(#mask-7)" points="1721.054 754.494 1731.601 754.494 1731.601 739.327 1721.054 739.327"></polygon>
                <polygon id="Fill-140" fill="#FFFFFF" mask="url(#mask-7)" points="1739.474 754.494 1750.021 754.494 1750.021 739.327 1739.474 739.327"></polygon>
                <polygon id="Fill-141" fill="#FFFFFF" mask="url(#mask-7)" points="1757.895 754.494 1768.442 754.494 1768.442 739.327 1757.895 739.327"></polygon>
                <polygon id="Fill-142" fill="#FFFFFF" mask="url(#mask-7)" points="1776.315 754.494 1786.863 754.494 1786.863 739.327 1776.315 739.327"></polygon>
                <polygon id="Fill-143" fill="#FFFFFF" mask="url(#mask-7)" points="1794.114 754.494 1804.662 754.494 1804.662 739.327 1794.114 739.327"></polygon>
                <polygon id="Fill-144" fill="#FFFFFF" mask="url(#mask-7)" points="1813.608 754.494 1824.156 754.494 1824.156 739.327 1813.608 739.327"></polygon>
                <polygon id="Fill-145" fill="#FFFFFF" mask="url(#mask-7)" points="1702.069 783.827 1712.616 783.827 1712.616 765.827 1702.069 765.827"></polygon>
                <polygon id="Fill-146" fill="#FFFFFF" mask="url(#mask-7)" points="1720.489 783.827 1731.036 783.827 1731.036 765.827 1720.489 765.827"></polygon>
                <polygon id="Fill-147" fill="#FFFFFF" mask="url(#mask-7)" points="1738.91 783.827 1749.457 783.827 1749.457 765.827 1738.91 765.827"></polygon>
                <polygon id="Fill-148" fill="#FFFFFF" mask="url(#mask-7)" points="1757.33 783.827 1767.877 783.827 1767.877 765.827 1757.33 765.827"></polygon>
                <polygon id="Fill-149" fill="#FFFFFF" mask="url(#mask-7)" points="1775.749 783.827 1786.297 783.827 1786.297 765.827 1775.749 765.827"></polygon>
                <polygon id="Fill-150" fill="#FFFFFF" mask="url(#mask-7)" points="1793.548 783.827 1804.096 783.827 1804.096 765.827 1793.548 765.827"></polygon>
                <polygon id="Fill-151" fill="#FFFFFF" mask="url(#mask-7)" points="1813.042 783.827 1823.59 783.827 1823.59 765.827 1813.042 765.827"></polygon>
                <polygon id="Fill-152" fill="#FFFFFF" mask="url(#mask-7)" points="1694.7606 810.4103 1694.7606 795.0773 1691.6046 795.0773 1686.7096 810.4103"></polygon>
                <polygon id="Fill-153" fill="#FFFFFF" mask="url(#mask-7)" points="1702.633 810.41 1713.18 810.41 1713.18 795.077 1702.633 795.077"></polygon>
                <polygon id="Fill-154" fill="#FFFFFF" mask="url(#mask-7)" points="1721.054 810.41 1731.601 810.41 1731.601 795.077 1721.054 795.077"></polygon>
                <polygon id="Fill-155" fill="#FFFFFF" mask="url(#mask-7)" points="1739.474 810.41 1750.021 810.41 1750.021 795.077 1739.474 795.077"></polygon>
                <polygon id="Fill-156" fill="#FFFFFF" mask="url(#mask-7)" points="1757.895 810.41 1768.442 810.41 1768.442 795.077 1757.895 795.077"></polygon>
                <polygon id="Fill-157" fill="#FFFFFF" mask="url(#mask-7)" points="1776.315 810.41 1786.863 810.41 1786.863 795.077 1776.315 795.077"></polygon>
                <polygon id="Fill-158" fill="#FFFFFF" mask="url(#mask-7)" points="1794.114 810.41 1804.662 810.41 1804.662 795.077 1794.114 795.077"></polygon>
                <polygon id="Fill-159" fill="#FFFFFF" mask="url(#mask-7)" points="1813.608 810.41 1824.156 810.41 1824.156 795.077 1813.608 795.077"></polygon>
                <polygon id="Fill-160" fill="#FFFFFF" mask="url(#mask-7)" points="1683.931 838.827 1694.479 838.827 1694.479 820.827 1683.931 820.827"></polygon>
                <polygon id="Fill-161" fill="#FFFFFF" mask="url(#mask-7)" points="1702.351 838.827 1712.898 838.827 1712.898 820.827 1702.351 820.827"></polygon>
                <polygon id="Fill-162" fill="#FFFFFF" mask="url(#mask-7)" points="1720.771 838.827 1731.318 838.827 1731.318 820.827 1720.771 820.827"></polygon>
                <polygon id="Fill-163" fill="#FFFFFF" mask="url(#mask-7)" points="1739.192 838.827 1749.739 838.827 1749.739 820.827 1739.192 820.827"></polygon>
                <polygon id="Fill-164" fill="#FFFFFF" mask="url(#mask-7)" points="1757.612 838.827 1768.159 838.827 1768.159 820.827 1757.612 820.827"></polygon>
                <polygon id="Fill-165" fill="#FFFFFF" mask="url(#mask-7)" points="1776.032 838.827 1786.58 838.827 1786.58 820.827 1776.032 820.827"></polygon>
                <polygon id="Fill-166" fill="#FFFFFF" mask="url(#mask-7)" points="1793.831 838.827 1804.379 838.827 1804.379 820.827 1793.831 820.827"></polygon>
                <polygon id="Fill-167" fill="#FFFFFF" mask="url(#mask-7)" points="1813.325 838.827 1823.873 838.827 1823.873 820.827 1813.325 820.827"></polygon>
                <path d="M1748.1571,414.5665 L1748.1571,385.8995" id="Stroke-168" stroke-linecap="round" stroke-linejoin="round" mask="url(#mask-7)"></path>
                <polygon id="Fill-169" fill="#7C7D7A" mask="url(#mask-7)" points="1741.753 416.233 1742.883 416.233 1742.883 385.733 1741.753 385.733"></polygon>
                <polygon id="Fill-170" fill="#7C7D7A" mask="url(#mask-7)" points="1748.471 416.233 1749.601 416.233 1749.601 385.733 1748.471 385.733"></polygon>
                <polygon id="Fill-171" fill="#7C7D7A" mask="url(#mask-7)" points="1755.189 416.233 1756.319 416.233 1756.319 385.733 1755.189 385.733"></polygon>
                <polygon id="Fill-172" fill="#7C7D7A" mask="url(#mask-7)" points="1761.906 416.233 1763.036 416.233 1763.036 385.733 1761.906 385.733"></polygon>
                <polygon id="Fill-173" fill="#57BAA5" mask="url(#mask-7)" points="1671.1229 859.2333 1671.7649 857.2233 1671.7649 741.1163"></polygon>
                <path d="M1683.648,783.827 L1694.196,783.827 L1694.196,765.827 L1683.648,765.827 L1683.648,783.827 Z M1683.365,514.827 L1693.913,514.827 L1693.913,496.827 L1683.365,496.827 L1683.365,514.827 Z M1683.648,486.077 L1694.196,486.077 L1694.196,471.077 L1683.648,471.077 L1683.648,486.077 Z M1683.648,538.827 L1694.196,538.827 L1694.196,523.827 L1683.648,523.827 L1683.648,538.827 Z M1684.213,567.077 L1694.761,567.077 L1694.761,549.077 L1684.213,549.077 L1684.213,567.077 Z M1684.495,592.327 L1695.043,592.327 L1695.043,577.327 L1684.495,577.327 L1684.495,592.327 Z M1684.778,674.077 L1695.326,674.077 L1695.326,656.077 L1684.778,656.077 L1684.778,674.077 Z M1701.786,514.827 L1712.333,514.827 L1712.333,496.827 L1701.786,496.827 L1701.786,514.827 Z M1702.068,486.077 L1712.615,486.077 L1712.615,471.077 L1702.068,471.077 L1702.068,486.077 Z M1702.068,538.827 L1712.615,538.827 L1712.615,523.827 L1702.068,523.827 L1702.068,538.827 Z M1702.634,567.077 L1713.181,567.077 L1713.181,549.077 L1702.634,549.077 L1702.634,567.077 Z M1702.916,592.327 L1713.463,592.327 L1713.463,577.327 L1702.916,577.327 L1702.916,592.327 Z M1703.199,674.077 L1713.746,674.077 L1713.746,656.077 L1703.199,656.077 L1703.199,674.077 Z M1720.206,514.827 L1730.753,514.827 L1730.753,496.827 L1720.206,496.827 L1720.206,514.827 Z M1720.489,486.077 L1731.036,486.077 L1731.036,471.077 L1720.489,471.077 L1720.489,486.077 Z M1720.771,460.827 L1731.318,460.827 L1731.318,442.827 L1720.771,442.827 L1720.771,460.827 Z M1720.489,538.827 L1731.036,538.827 L1731.036,523.827 L1720.489,523.827 L1720.489,538.827 Z M1721.054,567.077 L1731.601,567.077 L1731.601,549.077 L1721.054,549.077 L1721.054,567.077 Z M1721.337,592.327 L1731.884,592.327 L1731.884,577.327 L1721.337,577.327 L1721.337,592.327 Z M1721.337,620.327 L1731.884,620.327 L1731.884,602.327 L1721.337,602.327 L1721.337,620.327 Z M1721.337,645.744 L1731.884,645.744 L1731.884,631.077 L1721.337,631.077 L1721.337,645.744 Z M1702.068,698.327 L1712.615,698.327 L1712.615,684.327 L1702.068,684.327 L1702.068,698.327 Z M1702.351,727.577 L1712.898,727.577 L1712.898,709.577 L1702.351,709.577 L1702.351,727.577 Z M1702.916,620.327 L1713.463,620.327 L1713.463,602.327 L1702.916,602.327 L1702.916,620.327 Z M1702.916,645.744 L1713.463,645.744 L1713.463,631.077 L1702.916,631.077 L1702.916,645.744 Z M1683.648,698.327 L1694.196,698.327 L1694.196,684.327 L1683.648,684.327 L1683.648,698.327 Z M1683.931,727.577 L1694.479,727.577 L1694.479,709.577 L1683.931,709.577 L1683.931,727.577 Z M1684.495,620.327 L1695.043,620.327 L1695.043,602.327 L1684.495,602.327 L1684.495,620.327 Z M1684.495,645.744 L1695.043,645.744 L1695.043,631.077 L1684.495,631.077 L1684.495,645.744 Z M1684.213,754.494 L1694.761,754.494 L1694.761,739.327 L1684.213,739.327 L1684.213,754.494 Z M1738.627,514.827 L1749.174,514.827 L1749.174,496.827 L1738.627,496.827 L1738.627,514.827 Z M1738.909,486.077 L1749.456,486.077 L1749.456,471.077 L1738.909,471.077 L1738.909,486.077 Z M1739.192,460.827 L1749.739,460.827 L1749.739,442.827 L1739.192,442.827 L1739.192,460.827 Z M1738.909,538.827 L1749.456,538.827 L1749.456,523.827 L1738.909,523.827 L1738.909,538.827 Z M1739.475,567.077 L1750.022,567.077 L1750.022,549.077 L1739.475,549.077 L1739.475,567.077 Z M1739.757,592.327 L1750.304,592.327 L1750.304,577.327 L1739.757,577.327 L1739.757,592.327 Z M1757.047,514.827 L1767.594,514.827 L1767.594,496.827 L1757.047,496.827 L1757.047,514.827 Z M1757.329,486.077 L1767.876,486.077 L1767.876,471.077 L1757.329,471.077 L1757.329,486.077 Z M1757.612,460.827 L1768.159,460.827 L1768.159,442.827 L1757.612,442.827 L1757.612,460.827 Z M1757.33,538.827 L1767.877,538.827 L1767.877,523.827 L1757.33,523.827 L1757.33,538.827 Z M1775.75,486.077 L1786.298,486.077 L1786.298,471.077 L1775.75,471.077 L1775.75,486.077 Z M1776.032,460.827 L1786.58,460.827 L1786.58,442.827 L1776.032,442.827 L1776.032,460.827 Z M1684.213,810.41 L1684.213,795.077 L1691.605,795.077 L1704.561,754.494 L1702.633,754.494 L1702.633,739.327 L1709.403,739.327 L1722.492,698.327 L1720.489,698.327 L1720.489,684.327 L1726.961,684.327 L1730.234,674.077 L1721.619,674.077 L1721.619,656.077 L1732.166,656.077 L1732.166,668.023 L1739.757,644.247 L1739.757,631.077 L1743.961,631.077 L1747.393,620.327 L1739.757,620.327 L1739.757,602.327 L1750.304,602.327 L1750.304,611.208 L1758.177,586.548 L1758.177,577.327 L1761.121,577.327 L1764.393,567.077 L1757.895,567.077 L1757.895,549.077 L1768.442,549.077 L1768.442,554.394 L1775.75,531.503 L1775.75,523.827 L1778.2,523.827 L1781.074,514.827 L1775.467,514.827 L1775.467,496.827 L1786.015,496.827 L1786.015,499.349 L1793.549,475.751 L1793.549,471.077 L1795.041,471.077 L1798.313,460.827 L1793.831,460.827 L1793.831,442.827 L1804.059,442.827 L1804.379,441.827 L1711.226,442.827 L1712.898,442.827 L1712.898,460.827 L1702.351,460.827 L1702.351,442.922 L1694.478,443.007 L1694.478,460.827 L1683.931,460.827 L1683.931,443.12 L1673.383,443.233 L1671.765,741.116 L1671.765,857.223 L1686.71,810.41 L1684.213,810.41 Z" id="Fill-174" fill="#F5F4F2" mask="url(#mask-7)"></path>
                <path d="M1683.648,783.827 L1694.196,783.827 L1694.196,765.827 L1683.648,765.827 L1683.648,783.827 Z M1683.365,514.827 L1693.913,514.827 L1693.913,496.827 L1683.365,496.827 L1683.365,514.827 Z M1683.648,486.077 L1694.196,486.077 L1694.196,471.077 L1683.648,471.077 L1683.648,486.077 Z M1683.648,538.827 L1694.196,538.827 L1694.196,523.827 L1683.648,523.827 L1683.648,538.827 Z M1684.213,567.077 L1694.761,567.077 L1694.761,549.077 L1684.213,549.077 L1684.213,567.077 Z M1684.495,592.327 L1695.043,592.327 L1695.043,577.327 L1684.495,577.327 L1684.495,592.327 Z M1684.778,674.077 L1695.326,674.077 L1695.326,656.077 L1684.778,656.077 L1684.778,674.077 Z M1701.786,514.827 L1712.333,514.827 L1712.333,496.827 L1701.786,496.827 L1701.786,514.827 Z M1702.068,486.077 L1712.615,486.077 L1712.615,471.077 L1702.068,471.077 L1702.068,486.077 Z M1702.068,538.827 L1712.615,538.827 L1712.615,523.827 L1702.068,523.827 L1702.068,538.827 Z M1702.634,567.077 L1713.181,567.077 L1713.181,549.077 L1702.634,549.077 L1702.634,567.077 Z M1702.916,592.327 L1713.463,592.327 L1713.463,577.327 L1702.916,577.327 L1702.916,592.327 Z M1703.199,674.077 L1713.746,674.077 L1713.746,656.077 L1703.199,656.077 L1703.199,674.077 Z M1720.206,514.827 L1730.753,514.827 L1730.753,496.827 L1720.206,496.827 L1720.206,514.827 Z M1720.489,486.077 L1731.036,486.077 L1731.036,471.077 L1720.489,471.077 L1720.489,486.077 Z M1720.771,460.827 L1731.318,460.827 L1731.318,442.827 L1720.771,442.827 L1720.771,460.827 Z M1720.489,538.827 L1731.036,538.827 L1731.036,523.827 L1720.489,523.827 L1720.489,538.827 Z M1721.054,567.077 L1731.601,567.077 L1731.601,549.077 L1721.054,549.077 L1721.054,567.077 Z M1721.337,592.327 L1731.884,592.327 L1731.884,577.327 L1721.337,577.327 L1721.337,592.327 Z M1721.337,620.327 L1731.884,620.327 L1731.884,602.327 L1721.337,602.327 L1721.337,620.327 Z M1721.337,645.744 L1731.884,645.744 L1731.884,631.077 L1721.337,631.077 L1721.337,645.744 Z M1702.068,698.327 L1712.615,698.327 L1712.615,684.327 L1702.068,684.327 L1702.068,698.327 Z M1702.351,727.577 L1712.898,727.577 L1712.898,709.577 L1702.351,709.577 L1702.351,727.577 Z M1702.916,620.327 L1713.463,620.327 L1713.463,602.327 L1702.916,602.327 L1702.916,620.327 Z M1702.916,645.744 L1713.463,645.744 L1713.463,631.077 L1702.916,631.077 L1702.916,645.744 Z M1683.648,698.327 L1694.196,698.327 L1694.196,684.327 L1683.648,684.327 L1683.648,698.327 Z M1683.931,727.577 L1694.479,727.577 L1694.479,709.577 L1683.931,709.577 L1683.931,727.577 Z M1684.495,620.327 L1695.043,620.327 L1695.043,602.327 L1684.495,602.327 L1684.495,620.327 Z M1684.495,645.744 L1695.043,645.744 L1695.043,631.077 L1684.495,631.077 L1684.495,645.744 Z M1684.213,754.494 L1694.761,754.494 L1694.761,739.327 L1684.213,739.327 L1684.213,754.494 Z M1738.627,514.827 L1749.174,514.827 L1749.174,496.827 L1738.627,496.827 L1738.627,514.827 Z M1738.909,486.077 L1749.456,486.077 L1749.456,471.077 L1738.909,471.077 L1738.909,486.077 Z M1739.192,460.827 L1749.739,460.827 L1749.739,442.827 L1739.192,442.827 L1739.192,460.827 Z M1738.909,538.827 L1749.456,538.827 L1749.456,523.827 L1738.909,523.827 L1738.909,538.827 Z M1739.475,567.077 L1750.022,567.077 L1750.022,549.077 L1739.475,549.077 L1739.475,567.077 Z M1739.757,592.327 L1750.304,592.327 L1750.304,577.327 L1739.757,577.327 L1739.757,592.327 Z M1757.047,514.827 L1767.594,514.827 L1767.594,496.827 L1757.047,496.827 L1757.047,514.827 Z M1757.329,486.077 L1767.876,486.077 L1767.876,471.077 L1757.329,471.077 L1757.329,486.077 Z M1757.612,460.827 L1768.159,460.827 L1768.159,442.827 L1757.612,442.827 L1757.612,460.827 Z M1757.33,538.827 L1767.877,538.827 L1767.877,523.827 L1757.33,523.827 L1757.33,538.827 Z M1775.75,486.077 L1786.298,486.077 L1786.298,471.077 L1775.75,471.077 L1775.75,486.077 Z M1776.032,460.827 L1786.58,460.827 L1786.58,442.827 L1776.032,442.827 L1776.032,460.827 Z M1684.213,810.41 L1684.213,795.077 L1691.605,795.077 L1704.561,754.494 L1702.633,754.494 L1702.633,739.327 L1709.403,739.327 L1722.492,698.327 L1720.489,698.327 L1720.489,684.327 L1726.961,684.327 L1730.234,674.077 L1721.619,674.077 L1721.619,656.077 L1732.166,656.077 L1732.166,668.023 L1739.757,644.247 L1739.757,631.077 L1743.961,631.077 L1747.393,620.327 L1739.757,620.327 L1739.757,602.327 L1750.304,602.327 L1750.304,611.208 L1758.177,586.548 L1758.177,577.327 L1761.121,577.327 L1764.393,567.077 L1757.895,567.077 L1757.895,549.077 L1768.442,549.077 L1768.442,554.394 L1775.75,531.503 L1775.75,523.827 L1778.2,523.827 L1781.074,514.827 L1775.467,514.827 L1775.467,496.827 L1786.015,496.827 L1786.015,499.349 L1793.549,475.751 L1793.549,471.077 L1795.041,471.077 L1798.313,460.827 L1793.831,460.827 L1793.831,442.827 L1804.059,442.827 L1804.379,441.827 L1711.226,442.827 L1712.898,442.827 L1712.898,460.827 L1702.351,460.827 L1702.351,442.922 L1694.478,443.007 L1694.478,460.827 L1683.931,460.827 L1683.931,443.12 L1672.383,443.233 L1670.765,741.116 L1671.765,857.223 L1686.71,810.41 L1684.213,810.41 Z" id="Fill-175" fill="#E68063" opacity="0.26900653" mask="url(#mask-7)"></path>
                <polygon id="Fill-176" fill="#FFFFFF" opacity="0.2" mask="url(#mask-7)" points="1694.4781 460.827 1694.4781 443.007 1683.9301 443.12 1683.9301 460.827"></polygon>
                <polygon id="Fill-177" fill="#57BAA5" opacity="0.2" mask="url(#mask-7)" points="1694.4781 460.827 1694.4781 443.007 1683.9301 443.12 1683.9301 460.827"></polygon>
                <polygon id="Fill-178" fill="#FFFFFF" opacity="0.2" mask="url(#mask-7)" points="1712.8984 460.827 1712.8984 442.827 1711.2264 442.827 1702.3514 442.922 1702.3514 460.827"></polygon>
                <polygon id="Fill-179" fill="#57BAA5" opacity="0.2" mask="url(#mask-7)" points="1712.8984 460.827 1712.8984 442.827 1711.2264 442.827 1702.3514 442.922 1702.3514 460.827"></polygon>
                <polygon id="Fill-180" fill="#FFFFFF" opacity="0.2" mask="url(#mask-7)" points="1720.772 460.827 1731.319 460.827 1731.319 442.827 1720.772 442.827"></polygon>
                <polygon id="Fill-181" fill="#57BAA5" opacity="0.2" mask="url(#mask-7)" points="1720.772 460.827 1731.319 460.827 1731.319 442.827 1720.772 442.827"></polygon>
                <polygon id="Fill-182" fill="#FFFFFF" opacity="0.2" mask="url(#mask-7)" points="1739.192 460.827 1749.739 460.827 1749.739 442.827 1739.192 442.827"></polygon>
                <polygon id="Fill-183" fill="#57BAA5" opacity="0.2" mask="url(#mask-7)" points="1739.192 460.827 1749.739 460.827 1749.739 442.827 1739.192 442.827"></polygon>
                <polygon id="Fill-184" fill="#FFFFFF" opacity="0.2" mask="url(#mask-7)" points="1757.612 460.827 1768.159 460.827 1768.159 442.827 1757.612 442.827"></polygon>
                <polygon id="Fill-185" fill="#57BAA5" opacity="0.2" mask="url(#mask-7)" points="1757.612 460.827 1768.159 460.827 1768.159 442.827 1757.612 442.827"></polygon>
                <polygon id="Fill-186" fill="#FFFFFF" opacity="0.2" mask="url(#mask-7)" points="1776.032 460.827 1786.58 460.827 1786.58 442.827 1776.032 442.827"></polygon>
                <polygon id="Fill-187" fill="#57BAA5" opacity="0.2" mask="url(#mask-7)" points="1776.032 460.827 1786.58 460.827 1786.58 442.827 1776.032 442.827"></polygon>
                <polygon id="Fill-188" fill="#FFFFFF" opacity="0.2" mask="url(#mask-7)" points="1793.8311 460.827 1798.3131 460.827 1804.0591 442.827 1793.8311 442.827"></polygon>
                <polygon id="Fill-189" fill="#57BAA5" opacity="0.2" mask="url(#mask-7)" points="1793.8311 460.827 1798.3131 460.827 1804.0591 442.827 1793.8311 442.827"></polygon>
                <polygon id="Fill-190" fill="#FFFFFF" opacity="0.2" mask="url(#mask-7)" points="1683.648 486.077 1694.196 486.077 1694.196 471.077 1683.648 471.077"></polygon>
                <polygon id="Fill-191" fill="#57BAA5" opacity="0.2" mask="url(#mask-7)" points="1683.648 486.077 1694.196 486.077 1694.196 471.077 1683.648 471.077"></polygon>
                <polygon id="Fill-192" fill="#FFFFFF" opacity="0.2" mask="url(#mask-7)" points="1702.069 486.077 1712.616 486.077 1712.616 471.077 1702.069 471.077"></polygon>
                <polygon id="Fill-193" fill="#57BAA5" opacity="0.2" mask="url(#mask-7)" points="1702.069 486.077 1712.616 486.077 1712.616 471.077 1702.069 471.077"></polygon>
                <polygon id="Fill-194" fill="#FFFFFF" opacity="0.2" mask="url(#mask-7)" points="1720.489 486.077 1731.036 486.077 1731.036 471.077 1720.489 471.077"></polygon>
                <polygon id="Fill-195" fill="#57BAA5" opacity="0.2" mask="url(#mask-7)" points="1720.489 486.077 1731.036 486.077 1731.036 471.077 1720.489 471.077"></polygon>
                <polygon id="Fill-196" fill="#FFFFFF" opacity="0.2" mask="url(#mask-7)" points="1738.91 486.077 1749.457 486.077 1749.457 471.077 1738.91 471.077"></polygon>
                <polygon id="Fill-197" fill="#57BAA5" opacity="0.2" mask="url(#mask-7)" points="1738.91 486.077 1749.457 486.077 1749.457 471.077 1738.91 471.077"></polygon>
                <polygon id="Fill-198" fill="#FFFFFF" opacity="0.2" mask="url(#mask-7)" points="1757.33 486.077 1767.877 486.077 1767.877 471.077 1757.33 471.077"></polygon>
                <polygon id="Fill-199" fill="#57BAA5" opacity="0.2" mask="url(#mask-7)" points="1757.33 486.077 1767.877 486.077 1767.877 471.077 1757.33 471.077"></polygon>
                <polygon id="Fill-200" fill="#FFFFFF" opacity="0.2" mask="url(#mask-7)" points="1775.749 486.077 1786.297 486.077 1786.297 471.077 1775.749 471.077"></polygon>
                <polygon id="Fill-201" fill="#57BAA5" opacity="0.2" mask="url(#mask-7)" points="1775.749 486.077 1786.297 486.077 1786.297 471.077 1775.749 471.077"></polygon>
                <polygon id="Fill-202" fill="#FFFFFF" opacity="0.2" mask="url(#mask-7)" points="1793.5486 475.7506 1795.0406 471.0766 1793.5486 471.0766"></polygon>
                <polygon id="Fill-203" fill="#57BAA5" opacity="0.2" mask="url(#mask-7)" points="1793.5486 475.7506 1795.0406 471.0766 1793.5486 471.0766"></polygon>
                <polygon id="Fill-204" fill="#FFFFFF" opacity="0.2" mask="url(#mask-7)" points="1683.365 514.827 1693.913 514.827 1693.913 496.827 1683.365 496.827"></polygon>
                <polygon id="Fill-205" fill="#57BAA5" opacity="0.2" mask="url(#mask-7)" points="1683.365 514.827 1693.913 514.827 1693.913 496.827 1683.365 496.827"></polygon>
                <polygon id="Fill-206" fill="#FFFFFF" opacity="0.2" mask="url(#mask-7)" points="1701.786 514.827 1712.333 514.827 1712.333 496.827 1701.786 496.827"></polygon>
                <polygon id="Fill-207" fill="#57BAA5" opacity="0.2" mask="url(#mask-7)" points="1701.786 514.827 1712.333 514.827 1712.333 496.827 1701.786 496.827"></polygon>
                <polygon id="Fill-208" fill="#FFFFFF" opacity="0.2" mask="url(#mask-7)" points="1720.207 514.827 1730.754 514.827 1730.754 496.827 1720.207 496.827"></polygon>
                <polygon id="Fill-209" fill="#57BAA5" opacity="0.2" mask="url(#mask-7)" points="1720.207 514.827 1730.754 514.827 1730.754 496.827 1720.207 496.827"></polygon>
                <polygon id="Fill-210" fill="#FFFFFF" opacity="0.2" mask="url(#mask-7)" points="1738.627 514.827 1749.174 514.827 1749.174 496.827 1738.627 496.827"></polygon>
                <polygon id="Fill-211" fill="#57BAA5" opacity="0.2" mask="url(#mask-7)" points="1738.627 514.827 1749.174 514.827 1749.174 496.827 1738.627 496.827"></polygon>
                <polygon id="Fill-212" fill="#FFFFFF" opacity="0.2" mask="url(#mask-7)" points="1757.047 514.827 1767.594 514.827 1767.594 496.827 1757.047 496.827"></polygon>
                <polygon id="Fill-213" fill="#57BAA5" opacity="0.2" mask="url(#mask-7)" points="1757.047 514.827 1767.594 514.827 1767.594 496.827 1757.047 496.827"></polygon>
                <polygon id="Fill-214" fill="#FFFFFF" opacity="0.2" mask="url(#mask-7)" points="1775.4672 496.827 1775.4672 514.827 1781.0732 514.827 1786.0152 499.349 1786.0152 496.827"></polygon>
                <polygon id="Fill-215" fill="#57BAA5" opacity="0.2" mask="url(#mask-7)" points="1775.4672 496.827 1775.4672 514.827 1781.0732 514.827 1786.0152 499.349 1786.0152 496.827"></polygon>
                <polygon id="Fill-216" fill="#FFFFFF" opacity="0.2" mask="url(#mask-7)" points="1683.648 538.827 1694.196 538.827 1694.196 523.827 1683.648 523.827"></polygon>
                <polygon id="Fill-217" fill="#57BAA5" opacity="0.2" mask="url(#mask-7)" points="1683.648 538.827 1694.196 538.827 1694.196 523.827 1683.648 523.827"></polygon>
                <polygon id="Fill-218" fill="#FFFFFF" opacity="0.2" mask="url(#mask-7)" points="1702.069 538.827 1712.616 538.827 1712.616 523.827 1702.069 523.827"></polygon>
                <polygon id="Fill-219" fill="#57BAA5" opacity="0.2" mask="url(#mask-7)" points="1702.069 538.827 1712.616 538.827 1712.616 523.827 1702.069 523.827"></polygon>
                <polygon id="Fill-220" fill="#FFFFFF" opacity="0.2" mask="url(#mask-7)" points="1720.489 538.827 1731.036 538.827 1731.036 523.827 1720.489 523.827"></polygon>
                <polygon id="Fill-221" fill="#57BAA5" opacity="0.2" mask="url(#mask-7)" points="1720.489 538.827 1731.036 538.827 1731.036 523.827 1720.489 523.827"></polygon>
                <polygon id="Fill-222" fill="#FFFFFF" opacity="0.2" mask="url(#mask-7)" points="1738.91 538.827 1749.457 538.827 1749.457 523.827 1738.91 523.827"></polygon>
                <polygon id="Fill-223" fill="#57BAA5" opacity="0.2" mask="url(#mask-7)" points="1738.91 538.827 1749.457 538.827 1749.457 523.827 1738.91 523.827"></polygon>
                <polygon id="Fill-224" fill="#FFFFFF" opacity="0.2" mask="url(#mask-7)" points="1757.329 538.827 1767.876 538.827 1767.876 523.827 1757.329 523.827"></polygon>
                <polygon id="Fill-225" fill="#57BAA5" opacity="0.2" mask="url(#mask-7)" points="1757.329 538.827 1767.876 538.827 1767.876 523.827 1757.329 523.827"></polygon>
                <polygon id="Fill-226" fill="#FFFFFF" opacity="0.2" mask="url(#mask-7)" points="1775.7498 531.5031 1778.2008 523.8271 1775.7498 523.8271"></polygon>
                <polygon id="Fill-227" fill="#57BAA5" opacity="0.2" mask="url(#mask-7)" points="1775.7498 531.5031 1778.2008 523.8271 1775.7498 523.8271"></polygon>
                <polygon id="Fill-228" fill="#FFFFFF" opacity="0.2" mask="url(#mask-7)" points="1684.213 567.077 1694.761 567.077 1694.761 549.077 1684.213 549.077"></polygon>
                <polygon id="Fill-229" fill="#57BAA5" opacity="0.2" mask="url(#mask-7)" points="1684.213 567.077 1694.761 567.077 1694.761 549.077 1684.213 549.077"></polygon>
                <polygon id="Fill-230" fill="#FFFFFF" opacity="0.2" mask="url(#mask-7)" points="1702.633 567.077 1713.18 567.077 1713.18 549.077 1702.633 549.077"></polygon>
                <polygon id="Fill-231" fill="#57BAA5" opacity="0.2" mask="url(#mask-7)" points="1702.633 567.077 1713.18 567.077 1713.18 549.077 1702.633 549.077"></polygon>
                <polygon id="Fill-232" fill="#FFFFFF" opacity="0.2" mask="url(#mask-7)" points="1721.054 567.077 1731.601 567.077 1731.601 549.077 1721.054 549.077"></polygon>
                <polygon id="Fill-233" fill="#57BAA5" opacity="0.2" mask="url(#mask-7)" points="1721.054 567.077 1731.601 567.077 1731.601 549.077 1721.054 549.077"></polygon>
                <polygon id="Fill-234" fill="#FFFFFF" opacity="0.2" mask="url(#mask-7)" points="1739.474 567.077 1750.021 567.077 1750.021 549.077 1739.474 549.077"></polygon>
                <polygon id="Fill-235" fill="#57BAA5" opacity="0.2" mask="url(#mask-7)" points="1739.474 567.077 1750.021 567.077 1750.021 549.077 1739.474 549.077"></polygon>
                <polygon id="Fill-236" fill="#FFFFFF" opacity="0.2" mask="url(#mask-7)" points="1757.8945 549.077 1757.8945 567.077 1764.3925 567.077 1768.4415 554.394 1768.4415 549.077"></polygon>
                <polygon id="Fill-237" fill="#57BAA5" opacity="0.2" mask="url(#mask-7)" points="1757.8945 549.077 1757.8945 567.077 1764.3925 567.077 1768.4415 554.394 1768.4415 549.077"></polygon>
                <polygon id="Fill-238" fill="#FFFFFF" opacity="0.2" mask="url(#mask-7)" points="1684.495 592.327 1695.043 592.327 1695.043 577.327 1684.495 577.327"></polygon>
                <polygon id="Fill-239" fill="#57BAA5" opacity="0.2" mask="url(#mask-7)" points="1684.495 592.327 1695.043 592.327 1695.043 577.327 1684.495 577.327"></polygon>
                <polygon id="Fill-240" fill="#FFFFFF" opacity="0.2" mask="url(#mask-7)" points="1702.916 592.327 1713.463 592.327 1713.463 577.327 1702.916 577.327"></polygon>
                <polygon id="Fill-241" fill="#57BAA5" opacity="0.2" mask="url(#mask-7)" points="1702.916 592.327 1713.463 592.327 1713.463 577.327 1702.916 577.327"></polygon>
                <polygon id="Fill-242" fill="#FFFFFF" opacity="0.2" mask="url(#mask-7)" points="1721.336 592.327 1731.883 592.327 1731.883 577.327 1721.336 577.327"></polygon>
                <polygon id="Fill-243" fill="#57BAA5" opacity="0.2" mask="url(#mask-7)" points="1721.336 592.327 1731.883 592.327 1731.883 577.327 1721.336 577.327"></polygon>
                <polygon id="Fill-244" fill="#FFFFFF" opacity="0.2" mask="url(#mask-7)" points="1739.757 592.327 1750.304 592.327 1750.304 577.327 1739.757 577.327"></polygon>
                <polygon id="Fill-245" fill="#57BAA5" opacity="0.2" mask="url(#mask-7)" points="1739.757 592.327 1750.304 592.327 1750.304 577.327 1739.757 577.327"></polygon>
                <polygon id="Fill-246" fill="#FFFFFF" opacity="0.2" mask="url(#mask-7)" points="1758.177 586.5477 1761.121 577.3267 1758.177 577.3267"></polygon>
                <polygon id="Fill-247" fill="#57BAA5" opacity="0.2" mask="url(#mask-7)" points="1758.177 586.5477 1761.121 577.3267 1758.177 577.3267"></polygon>
                <polygon id="Fill-248" fill="#FFFFFF" opacity="0.2" mask="url(#mask-7)" points="1684.495 620.327 1695.043 620.327 1695.043 602.327 1684.495 602.327"></polygon>
                <polygon id="Fill-249" fill="#57BAA5" opacity="0.2" mask="url(#mask-7)" points="1684.495 620.327 1695.043 620.327 1695.043 602.327 1684.495 602.327"></polygon>
                <polygon id="Fill-250" fill="#FFFFFF" opacity="0.2" mask="url(#mask-7)" points="1702.916 620.327 1713.463 620.327 1713.463 602.327 1702.916 602.327"></polygon>
                <polygon id="Fill-251" fill="#57BAA5" opacity="0.2" mask="url(#mask-7)" points="1702.916 620.327 1713.463 620.327 1713.463 602.327 1702.916 602.327"></polygon>
                <polygon id="Fill-252" fill="#FFFFFF" opacity="0.2" mask="url(#mask-7)" points="1721.336 620.327 1731.883 620.327 1731.883 602.327 1721.336 602.327"></polygon>
                <polygon id="Fill-253" fill="#57BAA5" opacity="0.2" mask="url(#mask-7)" points="1721.336 620.327 1731.883 620.327 1731.883 602.327 1721.336 602.327"></polygon>
                <polygon id="Fill-254" fill="#FFFFFF" opacity="0.2" mask="url(#mask-7)" points="1739.7567 602.327 1739.7567 620.327 1747.3927 620.327 1750.3037 611.208 1750.3037 602.327"></polygon>
                <polygon id="Fill-255" fill="#57BAA5" opacity="0.2" mask="url(#mask-7)" points="1739.7567 602.327 1739.7567 620.327 1747.3927 620.327 1750.3037 611.208 1750.3037 602.327"></polygon>
                <polygon id="Fill-256" fill="#FFFFFF" opacity="0.2" mask="url(#mask-7)" points="1684.495 645.744 1695.043 645.744 1695.043 631.077 1684.495 631.077"></polygon>
                <polygon id="Fill-257" fill="#57BAA5" opacity="0.2" mask="url(#mask-7)" points="1684.495 645.744 1695.043 645.744 1695.043 631.077 1684.495 631.077"></polygon>
                <polygon id="Fill-258" fill="#FFFFFF" opacity="0.2" mask="url(#mask-7)" points="1702.916 645.744 1713.463 645.744 1713.463 631.077 1702.916 631.077"></polygon>
                <polygon id="Fill-259" fill="#57BAA5" opacity="0.2" mask="url(#mask-7)" points="1702.916 645.744 1713.463 645.744 1713.463 631.077 1702.916 631.077"></polygon>
                <polygon id="Fill-260" fill="#FFFFFF" opacity="0.2" mask="url(#mask-7)" points="1721.336 645.744 1731.883 645.744 1731.883 631.077 1721.336 631.077"></polygon>
                <polygon id="Fill-261" fill="#57BAA5" opacity="0.2" mask="url(#mask-7)" points="1721.336 645.744 1731.883 645.744 1731.883 631.077 1721.336 631.077"></polygon>
                <polygon id="Fill-262" fill="#FFFFFF" opacity="0.2" mask="url(#mask-7)" points="1739.7567 644.2469 1743.9607 631.0769 1739.7567 631.0769"></polygon>
                <polygon id="Fill-263" fill="#57BAA5" opacity="0.2" mask="url(#mask-7)" points="1739.7567 644.2469 1743.9607 631.0769 1739.7567 631.0769"></polygon>
                <polygon id="Fill-264" fill="#FFFFFF" opacity="0.2" mask="url(#mask-7)" points="1684.778 674.077 1695.326 674.077 1695.326 656.077 1684.778 656.077"></polygon>
                <polygon id="Fill-265" fill="#57BAA5" opacity="0.2" mask="url(#mask-7)" points="1684.778 674.077 1695.326 674.077 1695.326 656.077 1684.778 656.077"></polygon>
                <polygon id="Fill-266" fill="#FFFFFF" opacity="0.2" mask="url(#mask-7)" points="1703.198 674.077 1713.745 674.077 1713.745 656.077 1703.198 656.077"></polygon>
                <polygon id="Fill-267" fill="#57BAA5" opacity="0.2" mask="url(#mask-7)" points="1703.198 674.077 1713.745 674.077 1713.745 656.077 1703.198 656.077"></polygon>
                <polygon id="Fill-268" fill="#FFFFFF" opacity="0.2" mask="url(#mask-7)" points="1721.6189 656.077 1721.6189 674.077 1730.2339 674.077 1732.1659 668.023 1732.1659 656.077"></polygon>
                <polygon id="Fill-269" fill="#57BAA5" opacity="0.2" mask="url(#mask-7)" points="1721.6189 656.077 1721.6189 674.077 1730.2339 674.077 1732.1659 668.023 1732.1659 656.077"></polygon>
                <polygon id="Fill-270" fill="#FFFFFF" opacity="0.2" mask="url(#mask-7)" points="1683.648 698.327 1694.196 698.327 1694.196 684.327 1683.648 684.327"></polygon>
                <polygon id="Fill-271" fill="#57BAA5" opacity="0.2" mask="url(#mask-7)" points="1683.648 698.327 1694.196 698.327 1694.196 684.327 1683.648 684.327"></polygon>
                <polygon id="Fill-272" fill="#FFFFFF" opacity="0.2" mask="url(#mask-7)" points="1702.069 698.327 1712.616 698.327 1712.616 684.327 1702.069 684.327"></polygon>
                <polygon id="Fill-273" fill="#57BAA5" opacity="0.2" mask="url(#mask-7)" points="1702.069 698.327 1712.616 698.327 1712.616 684.327 1702.069 684.327"></polygon>
                <polygon id="Fill-274" fill="#FFFFFF" opacity="0.2" mask="url(#mask-7)" points="1720.4888 698.3271 1722.4918 698.3271 1726.9618 684.3271 1720.4888 684.3271"></polygon>
                <polygon id="Fill-275" fill="#57BAA5" opacity="0.2" mask="url(#mask-7)" points="1720.4888 698.3271 1722.4918 698.3271 1726.9618 684.3271 1720.4888 684.3271"></polygon>
                <polygon id="Fill-276" fill="#FFFFFF" opacity="0.2" mask="url(#mask-7)" points="1683.93 727.577 1694.478 727.577 1694.478 709.577 1683.93 709.577"></polygon>
                <polygon id="Fill-277" fill="#57BAA5" opacity="0.2" mask="url(#mask-7)" points="1683.93 727.577 1694.478 727.577 1694.478 709.577 1683.93 709.577"></polygon>
                <polygon id="Fill-278" fill="#FFFFFF" mask="url(#mask-7)" points="1702.351 727.577 1712.898 727.577 1712.898 709.577 1702.351 709.577"></polygon>
                <polygon id="Fill-279" fill="#57BAA5" mask="url(#mask-7)" points="1702.351 727.577 1712.898 727.577 1712.898 709.577 1702.351 709.577"></polygon>
                <polygon id="Fill-280" fill="#FFFFFF" mask="url(#mask-7)" points="1684.213 754.494 1694.761 754.494 1694.761 739.327 1684.213 739.327"></polygon>
                <polygon id="Fill-281" fill="#57BAA5" mask="url(#mask-7)" points="1684.213 754.494 1694.761 754.494 1694.761 739.327 1684.213 739.327"></polygon>
                <polygon id="Fill-282" fill="#FFFFFF" mask="url(#mask-7)" points="1702.6334 754.4936 1704.5604 754.4936 1709.4024 739.3266 1702.6334 739.3266"></polygon>
                <polygon id="Fill-283" fill="#57BAA5" mask="url(#mask-7)" points="1702.6334 754.4936 1704.5604 754.4936 1709.4024 739.3266 1702.6334 739.3266"></polygon>
                <polygon id="Fill-284" fill="#FFFFFF" mask="url(#mask-7)" points="1683.648 783.827 1694.196 783.827 1694.196 765.827 1683.648 765.827"></polygon>
                <polygon id="Fill-285" fill="#57BAA5" mask="url(#mask-7)" points="1683.648 783.827 1694.196 783.827 1694.196 765.827 1683.648 765.827"></polygon>
                <polygon id="Fill-286" fill="#FFFFFF" mask="url(#mask-7)" points="1684.213 810.4103 1686.71 810.4103 1691.605 795.0773 1684.213 795.0773"></polygon>
                <polygon id="Fill-287" fill="#57BAA5" mask="url(#mask-7)" points="1684.213 810.4103 1686.71 810.4103 1691.605 795.0773 1684.213 795.0773"></polygon>
                <polygon id="Fill-288" fill="#333230" mask="url(#mask-7)" points="1640.4868 529.4056 1581.3918 568.3546 1581.3918 567.5316 1563.3758 579.1546 1567.0958 917.6726 1678.6948 917.6726 1678.6948 504.7556"></polygon>
                <polygon id="Fill-289" fill="#7C7D7A" mask="url(#mask-7)" points="1640.4868 529.4056 1654.1418 520.4056 1654.1418 502.2186 1581.3918 546.8606 1581.3918 567.5316 1581.3918 568.3546"></polygon>
                <polygon id="Fill-290" fill="#7C7D7A" mask="url(#mask-7)" points="1677.4257 645.985 1722.8947 669.959 1722.8947 886.555 1676.6597 901.039"></polygon>
                <polygon id="Fill-291" fill="#7C7D7A" mask="url(#mask-7)" points="1562.514 589.7693 1517.045 619.5303 1515.392 872.5013 1565.887 901.0383"></polygon>
                <path d="M1571.0167,573.2352 L1668.5677,573.2352" id="Stroke-292" stroke="#F8CC3C" stroke-width="3" mask="url(#mask-7)"></path>
                <path d="M1571.0167,582.6046 L1668.5677,582.6046" id="Stroke-293" stroke="#F8CC3C" stroke-width="3" mask="url(#mask-7)"></path>
                <path d="M1571.0167,591.8361 L1668.5677,591.8361" id="Stroke-294" stroke="#F8CC3C" stroke-width="3" mask="url(#mask-7)"></path>
                <path d="M1571.0167,601.2053 L1668.5677,601.2053" id="Stroke-295" stroke="#F8CC3C" stroke-width="3" mask="url(#mask-7)"></path>
                <path d="M1571.0167,610.0235 L1668.5677,610.0235" id="Stroke-296" stroke="#F8CC3C" stroke-width="3" mask="url(#mask-7)"></path>
                <path d="M1571.0167,619.3928 L1668.5677,619.3928" id="Stroke-297" stroke="#F8CC3C" stroke-width="3" mask="url(#mask-7)"></path>
                <path d="M1571.0167,628.6243 L1668.5677,628.6243" id="Stroke-298" stroke="#F8CC3C" stroke-width="3" mask="url(#mask-7)"></path>
                <path d="M1571.0167,637.9936 L1668.5677,637.9936" id="Stroke-299" stroke="#F8CC3C" stroke-width="3" mask="url(#mask-7)"></path>
                <path d="M1571.0167,647.6384 L1668.5677,647.6384" id="Stroke-300" stroke="#F8CC3C" stroke-width="3" mask="url(#mask-7)"></path>
                <path d="M1571.0167,657.0077 L1668.5677,657.0077" id="Stroke-301" stroke="#F8CC3C" stroke-width="3" mask="url(#mask-7)"></path>
                <path d="M1571.0167,666.2392 L1668.5677,666.2392" id="Stroke-302" stroke="#F8CC3C" stroke-width="3" mask="url(#mask-7)"></path>
                <path d="M1571.0167,675.6085 L1668.5677,675.6085" id="Stroke-303" stroke="#F8CC3C" stroke-width="3" mask="url(#mask-7)"></path>
                <path d="M1571.0167,684.4267 L1668.5677,684.4267" id="Stroke-304" stroke="#F8CC3C" stroke-width="3" mask="url(#mask-7)"></path>
                <path d="M1571.0167,693.796 L1668.5677,693.796" id="Stroke-305" stroke="#F8CC3C" stroke-width="3" mask="url(#mask-7)"></path>
                <path d="M1571.0167,703.0275 L1668.5677,703.0275" id="Stroke-306" stroke="#F8CC3C" stroke-width="3" mask="url(#mask-7)"></path>
                <path d="M1571.0167,712.3967 L1668.5677,712.3967" id="Stroke-307" stroke="#F8CC3C" stroke-width="3" mask="url(#mask-7)"></path>
                <path d="M1571.0167,722.3172 L1668.5677,722.3172" id="Stroke-308" stroke="#F8CC3C" stroke-width="3" mask="url(#mask-7)"></path>
                <path d="M1571.0167,731.6865 L1668.5677,731.6865" id="Stroke-309" stroke="#F8CC3C" stroke-width="3" mask="url(#mask-7)"></path>
                <path d="M1571.0167,740.918 L1668.5677,740.918" id="Stroke-310" stroke="#F8CC3C" stroke-width="3" mask="url(#mask-7)"></path>
                <path d="M1571.0167,750.2872 L1668.5677,750.2872" id="Stroke-311" stroke="#F8CC3C" stroke-width="3" mask="url(#mask-7)"></path>
                <path d="M1571.0167,759.1054 L1668.5677,759.1054" id="Stroke-312" stroke="#F8CC3C" stroke-width="3" mask="url(#mask-7)"></path>
                <path d="M1571.0167,768.4747 L1668.5677,768.4747" id="Stroke-313" stroke="#F8CC3C" stroke-width="3" mask="url(#mask-7)"></path>
                <path d="M1571.0167,777.7062 L1668.5677,777.7062" id="Stroke-314" stroke="#F8CC3C" stroke-width="3" mask="url(#mask-7)"></path>
                <path d="M1571.0167,787.0755 L1668.5677,787.0755" id="Stroke-315" stroke="#F8CC3C" stroke-width="3" mask="url(#mask-7)"></path>
                <path d="M1571.0167,796.7203 L1668.5677,796.7203" id="Stroke-316" stroke="#F8CC3C" stroke-width="3" mask="url(#mask-7)"></path>
                <path d="M1571.0167,806.0896 L1668.5677,806.0896" id="Stroke-317" stroke="#F8CC3C" stroke-width="3" mask="url(#mask-7)"></path>
                <path d="M1571.0167,815.3211 L1668.5677,815.3211" id="Stroke-318" stroke="#F8CC3C" stroke-width="3" mask="url(#mask-7)"></path>
                <path d="M1571.0167,824.6904 L1668.5677,824.6904" id="Stroke-319" stroke="#F8CC3C" stroke-width="3" mask="url(#mask-7)"></path>
                <path d="M1571.0167,833.5086 L1668.5677,833.5086" id="Stroke-320" stroke="#F8CC3C" stroke-width="3" mask="url(#mask-7)"></path>
                <path d="M1571.0167,842.8779 L1668.5677,842.8779" id="Stroke-321" stroke="#F8CC3C" stroke-width="3" mask="url(#mask-7)"></path>
                <polygon id="Fill-322" fill="#BBB9B5" mask="url(#mask-7)" points="1410.5168 549.4302 1292.9128 549.4302 1292.9128 888.7412 1410.5168 888.7412 1410.5168 889.3262 1485.6148 889.3262 1485.6148 610.6612"></polygon>
                <path d="M1383.6222,607.3732 L1383.6222,592.3772" id="Fill-323" fill="#FFFFFF" mask="url(#mask-7)"></path>
                <polygon id="Fill-324" fill="#FFFFFF" mask="url(#mask-7)" points="1306.935 571.055 1322.449 571.055 1322.449 558.836 1306.935 558.836"></polygon>
                <path d="M1382.2118,606.5401 L1382.2118,591.5441" id="Fill-325" fill="#FFFFFF" mask="url(#mask-7)"></path>
                <polygon id="Fill-326" fill="#FFFFFF" mask="url(#mask-7)" points="1330.381 571.055 1345.895 571.055 1345.895 558.836 1330.381 558.836"></polygon>
                <polygon id="Fill-327" fill="#FFFFFF" mask="url(#mask-7)" points="1353.887 571.055 1369.401 571.055 1369.401 558.836 1353.887 558.836"></polygon>
                <polygon id="Fill-328" fill="#FFFFFF" mask="url(#mask-7)" points="1377.863 571.055 1393.377 571.055 1393.377 558.836 1377.863 558.836"></polygon>
                <polygon id="Fill-329" fill="#FFFFFF" mask="url(#mask-7)" points="1401.604 570.499 1417.118 570.499 1417.118 558.28 1401.604 558.28"></polygon>
                <polygon id="Fill-330" fill="#FFFFFF" mask="url(#mask-7)" points="1306.935 594.798 1322.449 594.798 1322.449 582.579 1306.935 582.579"></polygon>
                <polygon id="Fill-331" fill="#FFFFFF" mask="url(#mask-7)" points="1330.381 594.798 1345.895 594.798 1345.895 582.579 1330.381 582.579"></polygon>
                <polygon id="Fill-332" fill="#FFFFFF" mask="url(#mask-7)" points="1353.887 594.798 1369.401 594.798 1369.401 582.579 1353.887 582.579"></polygon>
                <polygon id="Fill-333" fill="#FFFFFF" mask="url(#mask-7)" points="1377.863 594.798 1393.377 594.798 1393.377 582.579 1377.863 582.579"></polygon>
                <polygon id="Fill-334" fill="#FFFFFF" mask="url(#mask-7)" points="1401.604 594.243 1417.118 594.243 1417.118 582.024 1401.604 582.024"></polygon>
                <polygon id="Fill-335" fill="#FFFFFF" mask="url(#mask-7)" points="1306.935 618.126 1322.449 618.126 1322.449 605.907 1306.935 605.907"></polygon>
                <polygon id="Fill-336" fill="#FFFFFF" mask="url(#mask-7)" points="1330.381 618.126 1345.895 618.126 1345.895 605.907 1330.381 605.907"></polygon>
                <polygon id="Fill-337" fill="#FFFFFF" mask="url(#mask-7)" points="1353.887 618.126 1369.401 618.126 1369.401 605.907 1353.887 605.907"></polygon>
                <polygon id="Fill-338" fill="#FFFFFF" mask="url(#mask-7)" points="1377.863 618.126 1393.377 618.126 1393.377 605.907 1377.863 605.907"></polygon>
                <polygon id="Fill-339" fill="#FFFFFF" mask="url(#mask-7)" points="1401.604 617.57 1417.118 617.57 1417.118 605.351 1401.604 605.351"></polygon>
                <polygon id="Fill-340" fill="#FFFFFF" mask="url(#mask-7)" points="1307.287 641.87 1322.801 641.87 1322.801 629.651 1307.287 629.651"></polygon>
                <polygon id="Fill-341" fill="#FFFFFF" mask="url(#mask-7)" points="1330.734 641.87 1346.248 641.87 1346.248 629.651 1330.734 629.651"></polygon>
                <polygon id="Fill-342" fill="#FFFFFF" mask="url(#mask-7)" points="1354.24 641.87 1369.754 641.87 1369.754 629.651 1354.24 629.651"></polygon>
                <polygon id="Fill-343" fill="#FFFFFF" mask="url(#mask-7)" points="1378.216 641.87 1393.73 641.87 1393.73 629.651 1378.216 629.651"></polygon>
                <polygon id="Fill-344" fill="#FFFFFF" mask="url(#mask-7)" points="1401.957 641.314 1417.471 641.314 1417.471 629.095 1401.957 629.095"></polygon>
                <polygon id="Fill-345" fill="#FFFFFF" mask="url(#mask-7)" points="1307.287 664.78 1322.801 664.78 1322.801 652.561 1307.287 652.561"></polygon>
                <polygon id="Fill-346" fill="#FFFFFF" mask="url(#mask-7)" points="1330.734 664.78 1346.248 664.78 1346.248 652.561 1330.734 652.561"></polygon>
                <polygon id="Fill-347" fill="#FFFFFF" mask="url(#mask-7)" points="1354.24 664.78 1369.754 664.78 1369.754 652.561 1354.24 652.561"></polygon>
                <polygon id="Fill-348" fill="#FFFFFF" mask="url(#mask-7)" points="1378.216 664.78 1393.73 664.78 1393.73 652.561 1378.216 652.561"></polygon>
                <polygon id="Fill-349" fill="#FFFFFF" mask="url(#mask-7)" points="1401.957 664.225 1417.471 664.225 1417.471 652.006 1401.957 652.006"></polygon>
                <polygon id="Fill-350" fill="#FFFFFF" mask="url(#mask-7)" points="1307.287 687.275 1322.801 687.275 1322.801 675.056 1307.287 675.056"></polygon>
                <polygon id="Fill-351" fill="#FFFFFF" mask="url(#mask-7)" points="1330.734 687.275 1346.248 687.275 1346.248 675.056 1330.734 675.056"></polygon>
                <polygon id="Fill-352" fill="#FFFFFF" mask="url(#mask-7)" points="1354.24 687.275 1369.754 687.275 1369.754 675.056 1354.24 675.056"></polygon>
                <polygon id="Fill-353" fill="#FFFFFF" mask="url(#mask-7)" points="1378.216 687.275 1393.73 687.275 1393.73 675.056 1378.216 675.056"></polygon>
                <polygon id="Fill-354" fill="#FFFFFF" mask="url(#mask-7)" points="1401.957 686.719 1417.471 686.719 1417.471 674.5 1401.957 674.5"></polygon>
                <polygon id="Fill-355" fill="#FFFFFF" mask="url(#mask-7)" points="1307.64 710.602 1323.154 710.602 1323.154 698.383 1307.64 698.383"></polygon>
                <polygon id="Fill-356" fill="#FFFFFF" mask="url(#mask-7)" points="1331.086 710.602 1346.6 710.602 1346.6 698.383 1331.086 698.383"></polygon>
                <polygon id="Fill-357" fill="#FFFFFF" mask="url(#mask-7)" points="1354.592 710.602 1370.106 710.602 1370.106 698.383 1354.592 698.383"></polygon>
                <polygon id="Fill-358" fill="#FFFFFF" mask="url(#mask-7)" points="1378.568 710.602 1394.082 710.602 1394.082 698.383 1378.568 698.383"></polygon>
                <polygon id="Fill-359" fill="#FFFFFF" mask="url(#mask-7)" points="1402.309 710.046 1417.823 710.046 1417.823 697.827 1402.309 697.827"></polygon>
                <polygon id="Fill-360" fill="#FFFFFF" mask="url(#mask-7)" points="1307.64 734.346 1323.154 734.346 1323.154 722.127 1307.64 722.127"></polygon>
                <polygon id="Fill-361" fill="#FFFFFF" mask="url(#mask-7)" points="1331.086 734.346 1346.6 734.346 1346.6 722.127 1331.086 722.127"></polygon>
                <polygon id="Fill-362" fill="#FFFFFF" mask="url(#mask-7)" points="1354.592 734.346 1370.106 734.346 1370.106 722.127 1354.592 722.127"></polygon>
                <polygon id="Fill-363" fill="#FFFFFF" mask="url(#mask-7)" points="1378.568 734.346 1394.082 734.346 1394.082 722.127 1378.568 722.127"></polygon>
                <polygon id="Fill-364" fill="#FFFFFF" mask="url(#mask-7)" points="1402.309 733.79 1417.823 733.79 1417.823 721.571 1402.309 721.571"></polygon>
                <polygon id="Fill-365" fill="#FFFFFF" mask="url(#mask-7)" points="1307.992 758.09 1323.506 758.09 1323.506 745.871 1307.992 745.871"></polygon>
                <polygon id="Fill-366" fill="#FFFFFF" mask="url(#mask-7)" points="1331.439 758.09 1346.953 758.09 1346.953 745.871 1331.439 745.871"></polygon>
                <polygon id="Fill-367" fill="#FFFFFF" mask="url(#mask-7)" points="1354.945 758.09 1370.459 758.09 1370.459 745.871 1354.945 745.871"></polygon>
                <polygon id="Fill-368" fill="#FFFFFF" mask="url(#mask-7)" points="1378.921 758.09 1394.435 758.09 1394.435 745.871 1378.921 745.871"></polygon>
                <polygon id="Fill-369" fill="#FFFFFF" mask="url(#mask-7)" points="1402.662 757.534 1418.176 757.534 1418.176 745.315 1402.662 745.315"></polygon>
                <polygon id="Fill-370" fill="#FFFFFF" mask="url(#mask-7)" points="1308.345 781.417 1323.859 781.417 1323.859 769.198 1308.345 769.198"></polygon>
                <polygon id="Fill-371" fill="#FFFFFF" mask="url(#mask-7)" points="1331.791 781.417 1347.305 781.417 1347.305 769.198 1331.791 769.198"></polygon>
                <polygon id="Fill-372" fill="#FFFFFF" mask="url(#mask-7)" points="1355.297 781.417 1370.811 781.417 1370.811 769.198 1355.297 769.198"></polygon>
                <polygon id="Fill-373" fill="#FFFFFF" mask="url(#mask-7)" points="1379.273 781.417 1394.787 781.417 1394.787 769.198 1379.273 769.198"></polygon>
                <polygon id="Fill-374" fill="#FFFFFF" mask="url(#mask-7)" points="1403.015 780.862 1418.529 780.862 1418.529 768.643 1403.015 768.643"></polygon>
                <polygon id="Fill-375" fill="#FFFFFF" mask="url(#mask-7)" points="1307.992 804.744 1323.506 804.744 1323.506 792.525 1307.992 792.525"></polygon>
                <polygon id="Fill-376" fill="#FFFFFF" mask="url(#mask-7)" points="1331.439 804.744 1346.953 804.744 1346.953 792.525 1331.439 792.525"></polygon>
                <polygon id="Fill-377" fill="#FFFFFF" mask="url(#mask-7)" points="1354.945 804.744 1370.459 804.744 1370.459 792.525 1354.945 792.525"></polygon>
                <polygon id="Fill-378" fill="#FFFFFF" mask="url(#mask-7)" points="1378.921 804.744 1394.435 804.744 1394.435 792.525 1378.921 792.525"></polygon>
                <polygon id="Fill-379" fill="#FFFFFF" mask="url(#mask-7)" points="1402.662 804.189 1418.176 804.189 1418.176 791.97 1402.662 791.97"></polygon>
                <polygon id="Fill-380" fill="#FFFFFF" mask="url(#mask-7)" points="1307.64 828.072 1323.154 828.072 1323.154 815.853 1307.64 815.853"></polygon>
                <polygon id="Fill-381" fill="#FFFFFF" mask="url(#mask-7)" points="1331.086 828.072 1346.6 828.072 1346.6 815.853 1331.086 815.853"></polygon>
                <polygon id="Fill-382" fill="#FFFFFF" mask="url(#mask-7)" points="1354.592 828.072 1370.106 828.072 1370.106 815.853 1354.592 815.853"></polygon>
                <polygon id="Fill-383" fill="#FFFFFF" mask="url(#mask-7)" points="1378.568 828.072 1394.082 828.072 1394.082 815.853 1378.568 815.853"></polygon>
                <polygon id="Fill-384" fill="#FFFFFF" mask="url(#mask-7)" points="1402.309 827.516 1417.823 827.516 1417.823 815.297 1402.309 815.297"></polygon>
                <polygon id="Fill-385" fill="#FFFFFF" mask="url(#mask-7)" points="1426.463 617.709 1441.977 617.709 1441.977 605.49 1426.463 605.49"></polygon>
                <polygon id="Fill-386" fill="#FFFFFF" mask="url(#mask-7)" points="1450.909 617.709 1466.423 617.709 1466.423 605.49 1450.909 605.49"></polygon>
                <polygon id="Fill-387" fill="#FFFFFF" mask="url(#mask-7)" points="1426.463 640.203 1441.977 640.203 1441.977 627.984 1426.463 627.984"></polygon>
                <polygon id="Fill-388" fill="#FFFFFF" mask="url(#mask-7)" points="1450.909 640.203 1466.423 640.203 1466.423 627.984 1450.909 627.984"></polygon>
                <polygon id="Fill-389" fill="#FFFFFF" mask="url(#mask-7)" points="1426.815 663.947 1442.329 663.947 1442.329 651.728 1426.815 651.728"></polygon>
                <polygon id="Fill-390" fill="#FFFFFF" mask="url(#mask-7)" points="1451.262 663.947 1466.776 663.947 1466.776 651.728 1451.262 651.728"></polygon>
                <polygon id="Fill-391" fill="#FFFFFF" mask="url(#mask-7)" points="1426.815 686.025 1442.329 686.025 1442.329 673.806 1426.815 673.806"></polygon>
                <polygon id="Fill-392" fill="#FFFFFF" mask="url(#mask-7)" points="1451.262 686.025 1466.776 686.025 1466.776 673.806 1451.262 673.806"></polygon>
                <polygon id="Fill-393" fill="#FFFFFF" mask="url(#mask-7)" points="1427.168 709.769 1442.682 709.769 1442.682 697.55 1427.168 697.55"></polygon>
                <polygon id="Fill-394" fill="#FFFFFF" mask="url(#mask-7)" points="1451.614 709.769 1467.128 709.769 1467.128 697.55 1451.614 697.55"></polygon>
                <polygon id="Fill-395" fill="#FFFFFF" mask="url(#mask-7)" points="1427.168 731.846 1442.682 731.846 1442.682 719.627 1427.168 719.627"></polygon>
                <polygon id="Fill-396" fill="#FFFFFF" mask="url(#mask-7)" points="1451.614 731.846 1467.128 731.846 1467.128 719.627 1451.614 719.627"></polygon>
                <polygon id="Fill-397" fill="#FFFFFF" mask="url(#mask-7)" points="1427.873 757.256 1443.387 757.256 1443.387 745.037 1427.873 745.037"></polygon>
                <polygon id="Fill-398" fill="#FFFFFF" mask="url(#mask-7)" points="1452.319 757.256 1467.833 757.256 1467.833 744.204 1452.319 744.204"></polygon>
                <polygon id="Fill-399" fill="#FFFFFF" mask="url(#mask-7)" points="1427.873 780.167 1443.387 780.167 1443.387 767.948 1427.873 767.948"></polygon>
                <polygon id="Fill-400" fill="#FFFFFF" mask="url(#mask-7)" points="1452.319 780.167 1467.833 780.167 1467.833 767.948 1452.319 767.948"></polygon>
                <polygon id="Fill-401" fill="#FFFFFF" mask="url(#mask-7)" points="1427.873 803.911 1443.387 803.911 1443.387 791.692 1427.873 791.692"></polygon>
                <polygon id="Fill-402" fill="#FFFFFF" mask="url(#mask-7)" points="1452.319 803.911 1467.833 803.911 1467.833 791.692 1452.319 791.692"></polygon>
                <polygon id="Fill-403" fill="#FFFFFF" mask="url(#mask-7)" points="1427.168 826.822 1442.682 826.822 1442.682 814.603 1427.168 814.603"></polygon>
                <polygon id="Fill-404" fill="#FFFFFF" mask="url(#mask-7)" points="1451.614 826.822 1467.128 826.822 1467.128 814.603 1451.614 814.603"></polygon>
                <polygon id="Fill-405" fill="#FFFFFF" mask="url(#mask-7)" points="1426.463 593.965 1441.977 593.965 1441.977 581.746 1426.463 581.746"></polygon>
                <polygon id="Fill-406" fill="#54598E" opacity="0.40001166" mask="url(#mask-7)" points="1410.5168 549.4302 1292.9128 871.2252 1292.9128 549.4302"></polygon>
            </g>
            <g id="Group-62" transform="translate(1257.000000, 285.900000)">
                <mask id="mask-9" fill="white">
                    <use xlink:href="#path-8"></use>
                </mask>
                <g id="Clip-61"></g>
                <path d="M0.621,0.591 L0.625,0.59 L1.211,23.191 L1.159,23.183 L1.161,23.214 C1.672,23.263 2.502,22.506 2.502,22.506 L2.502,22.506 C3.946,21.579 5.102,21.031 6.003,20.713 L6.003,20.713 C6.108,20.681 7.053,20.413 8.707,20.366 L8.707,20.366 C9.531,20.467 10.295,20.487 11.001,20.446 L11.001,20.446 L11.008,20.447 C11.008,20.447 11.016,20.446 11.023,20.445 L11.023,20.445 C11.973,20.387 12.817,20.219 13.557,19.985 L13.557,19.985 C13.836,19.927 14.037,19.88 14.079,19.856 L14.079,19.856 C14.079,19.856 14.069,19.843 14.063,19.811 L14.063,19.811 C16.574,18.866 17.736,17.233 17.752,17.217 L17.752,17.217 C21.644,13.595 23.794,14.479 23.794,14.479 L23.794,14.479 C24.317,14.57 24.806,14.62 25.262,14.636 L25.262,14.636 L25.264,14.636 C25.301,14.631 27.804,14.316 27.804,14.316 L27.804,14.316 L27.801,14.319 C30.409,13.49 31.176,11.353 31.176,11.353 L31.176,11.353 C33.273,9.161 36.218,8.553 36.401,8.503 L36.401,8.503 C33.303,6.571 29.296,8.558 29.207,8.582 L29.207,8.582 C28.179,8.982 27.295,8.998 26.603,8.874 L26.603,8.874 C26.053,8.772 25.337,8.526 24.739,7.946 L24.739,7.946 C24.715,7.925 24.693,7.901 24.67,7.877 L24.67,7.877 C24.654,7.861 24.637,7.845 24.621,7.827 L24.621,7.827 L24.621,7.828 C22.115,5.296 20.378,4.817 20.446,4.841 L20.446,4.841 C18.998,4.324 15.975,4.64 15.975,4.64 L15.975,4.64 C14.936,5.119 13.643,4.942 12.578,4.626 L12.578,4.626 C12.038,4.405 11.031,3.978 10.184,3.561 L10.184,3.561 C9.712,3.259 9.261,2.985 8.828,2.735 L8.828,2.735 L8.828,2.734 C7.955,2.229 7.162,1.822 6.442,1.498 L6.442,1.498 C5.654,1.079 4.945,0.719 4.819,0.732 L4.819,0.732 L4.827,0.863 C3.674,0.482 2.769,0.349 2.066,0.349 L2.066,0.349 C1.427,0.349 0.957,0.459 0.621,0.591" id="Fill-60" fill="#D5256A" mask="url(#mask-9)"></path>
            </g>
        </g>
    </g>
</svg>